<svg width="41" height="44" viewBox="0 0 41 44" fill="none" xmlns="http://www.w3.org/2000/svg">
<path d="M39.7524 41.6696H37.9161V15.0062C37.9161 13.7652 36.9064 12.7555 35.6654 12.7555H31.5609C30.3198 12.7555 29.3102 13.7653 29.3102 15.0062V41.6696H24.6474V27.0868C24.6474 25.8458 23.6377 24.8361 22.3967 24.8361H18.2922C17.0511 24.8361 16.0415 25.8458 16.0415 27.0868V41.6696H11.3786V34.1173C11.3786 32.8762 10.3689 31.8666 9.12795 31.8666H5.02333C3.78228 31.8666 2.77264 32.8763 2.77264 34.1173V41.6696H0.83725C0.374837 41.6696 0 42.0445 0 42.5069C0 42.9693 0.374837 43.3441 0.83725 43.3441H39.7524C40.2149 43.3441 40.5897 42.9693 40.5897 42.5069C40.5897 42.0445 40.2149 41.6696 39.7524 41.6696ZM9.70398 41.6696H4.44705V34.1173C4.44705 33.7995 4.70551 33.5411 5.02325 33.5411H9.12778C9.44552 33.5411 9.70398 33.7995 9.70398 34.1173V41.6696ZM22.9728 41.6696H17.7159V27.0868C17.7159 26.7691 17.9743 26.5106 18.2921 26.5106H22.3966C22.7143 26.5106 22.9728 26.7691 22.9728 27.0868V41.6696ZM36.2416 41.6696H30.9847V15.0062C30.9847 14.6885 31.2431 14.43 31.5609 14.43H35.6654C35.9832 14.43 36.2416 14.6885 36.2416 15.0062V41.6696Z" fill="#D3C0C4"/>
<path d="M37.9141 1.35738C37.9258 1.1289 37.8454 0.896558 37.671 0.722075C37.4965 0.547593 37.2641 0.467133 37.0357 0.478938C37.0222 0.478352 37.0089 0.476929 36.9951 0.476929H31.9298C31.4674 0.476929 31.0925 0.851765 31.0925 1.31418C31.0925 1.77659 31.4674 2.15143 31.9298 2.15143H35.0575L26.7807 10.4283L23.6594 7.30704C23.5024 7.15006 23.2894 7.06181 23.0674 7.06181C22.8454 7.06181 22.6324 7.15006 22.4754 7.30704L7.42423 22.3583C7.09728 22.6852 7.09728 23.2154 7.42423 23.5424C7.58774 23.7058 7.802 23.7875 8.01625 23.7875C8.2305 23.7875 8.44484 23.7058 8.60827 23.5422L23.0674 9.08302L26.1887 12.2043C26.5156 12.5312 27.0458 12.5312 27.3728 12.2043L36.2416 3.33555V6.16629C36.2416 6.62871 36.6164 7.00354 37.0789 7.00354C37.5413 7.00354 37.9161 6.62871 37.9161 6.16629V1.3979C37.9161 1.38426 37.9147 1.37094 37.9141 1.35738Z" fill="#D3C0C4"/>
<path d="M5.19421 26.7088C5.65661 26.7088 6.03146 26.3339 6.03146 25.8715C6.03146 25.4091 5.65661 25.0343 5.19421 25.0343C4.73181 25.0343 4.35696 25.4091 4.35696 25.8715C4.35696 26.3339 4.73181 26.7088 5.19421 26.7088Z" fill="#D3C0C4"/>
</svg>
