<svg width="44" height="45" viewBox="0 0 44 45" fill="none" xmlns="http://www.w3.org/2000/svg">
<path d="M33.5516 0.817749H2.7204C1.21797 0.817749 0 2.03572 0 3.53815V25.3013C0 26.8038 1.21797 28.0217 2.7204 28.0217H14.5088V26.2082H2.7204C2.21959 26.2082 1.81357 25.8021 1.81357 25.3013V3.53815C1.81357 3.03734 2.21959 2.63132 2.7204 2.63132H33.5516C34.0524 2.63132 34.4584 3.03734 34.4584 3.53815V19.8605H36.272V3.53815C36.272 2.03572 35.054 0.817749 33.5516 0.817749Z" fill="#D3C0C4"/>
<path d="M12.6953 27.1149H10.8817V32.5557H12.6953V27.1149Z" fill="#D3C0C4"/>
<path d="M6.34773 22.5809C5.84692 22.5809 5.4409 22.1749 5.4409 21.6741V19.8605H3.62733V21.6741C3.62733 23.1765 4.84531 24.3945 6.34773 24.3945H8.1613V22.5809H6.34773Z" fill="#D3C0C4"/>
<path d="M5.4409 16.2333H3.62733V18.0469H5.4409V16.2333Z" fill="#D3C0C4"/>
<path d="M33.1409 20.0255C31.2931 18.1774 28.7867 17.1391 26.1732 17.1392C20.7319 17.1394 16.321 21.5507 16.3212 26.992C16.3215 32.4333 20.7327 36.8441 26.174 36.844C28.7866 36.8439 31.2921 35.8061 33.1396 33.9589C36.9876 30.1117 36.9882 23.8735 33.1409 20.0255ZM26.1685 35.0312C21.7288 35.0297 18.1309 31.4294 18.1325 26.9897C18.134 22.5501 21.7343 18.9522 26.174 18.9537C28.3079 18.9479 30.3552 19.797 31.8587 21.3113C33.3649 22.8193 34.2107 24.8638 34.21 26.9952C34.2085 31.4349 30.6082 35.0328 26.1685 35.0312Z" fill="#D3C0C4"/>
<path d="M43.2608 40.2635L37.5688 34.5734C37.3988 34.4034 37.1681 34.3077 36.9277 34.3077C36.6872 34.3078 36.4567 34.4034 36.2866 34.5734L33.7567 37.1034C33.4027 37.4574 33.4027 38.0314 33.7567 38.3856L39.4487 44.0785C39.6187 44.2486 39.8493 44.3441 40.0898 44.3441C40.3306 44.3434 40.5613 44.2468 40.7308 44.0757L43.2608 41.5458C43.6148 41.1916 43.6148 40.6176 43.2608 40.2635ZM40.0897 42.1551L35.6799 37.7444L36.9276 36.4967L41.3374 40.9074L40.0897 42.1551Z" fill="#D3C0C4"/>
<path d="M33.1408 32.6756L31.8584 33.958L35.0208 37.1204L36.3032 35.838L33.1408 32.6756Z" fill="#D3C0C4"/>
<path d="M16.3225 31.6489H9.06813V33.4625H16.3225V31.6489Z" fill="#D3C0C4"/>
<path d="M13.6021 4.44496C12.0997 4.44496 10.8817 5.66294 10.8817 7.16536C10.8817 8.66779 12.0997 9.88576 13.6021 9.88576C15.1045 9.88576 16.3225 8.66779 16.3225 7.16536C16.3225 5.66294 15.1045 4.44496 13.6021 4.44496ZM13.6021 8.0721C13.1013 8.0721 12.6953 7.66608 12.6953 7.16528C12.6953 6.66447 13.1013 6.25845 13.6021 6.25845C14.1029 6.25845 14.5089 6.66447 14.5089 7.16528C14.5089 7.66617 14.1029 8.0721 13.6021 8.0721Z" fill="#D3C0C4"/>
<path d="M19.9497 10.7925C18.4473 10.7925 17.2293 12.0105 17.2293 13.5129C17.2293 15.0153 18.4473 16.2333 19.9497 16.2333C21.4521 16.2333 22.6701 15.0153 22.6701 13.5129C22.6701 12.0105 21.4521 10.7925 19.9497 10.7925ZM19.9497 14.4198C19.4489 14.4198 19.0429 14.0137 19.0429 13.5129C19.0429 13.0121 19.4489 12.6061 19.9497 12.6061C20.4505 12.6061 20.8566 13.0121 20.8566 13.5129C20.8565 14.0137 20.4505 14.4198 19.9497 14.4198Z" fill="#D3C0C4"/>
<path d="M12.054 7.43127L7.52004 11.9652L8.80242 13.2476L13.3363 8.71365L12.054 7.43127Z" fill="#D3C0C4"/>
<path d="M15.1461 7.43352L13.8637 8.7159L18.3976 13.2498L19.68 11.9674L15.1461 7.43352Z" fill="#D3C0C4"/>
<path d="M26.2973 4.44496C24.7948 4.44496 23.5769 5.66294 23.5769 7.16536C23.5769 8.66779 24.7948 9.88576 26.2973 9.88576C27.7997 9.88576 29.0177 8.66779 29.0177 7.16536C29.0177 5.66294 27.7998 4.44496 26.2973 4.44496ZM26.2973 8.0721C25.7965 8.0721 25.3904 7.66608 25.3904 7.16528C25.3904 6.66447 25.7965 6.25845 26.2973 6.25845C26.7981 6.25845 27.2041 6.66447 27.2041 7.16528C27.2041 7.66617 26.7981 8.0721 26.2973 8.0721Z" fill="#D3C0C4"/>
<path d="M24.7487 7.43442L20.2148 11.9683L21.4971 13.2507L26.0311 8.7168L24.7487 7.43442Z" fill="#D3C0C4"/>
</svg>
