<svg width="637" height="139" viewBox="0 0 637 139" fill="none" xmlns="http://www.w3.org/2000/svg" xmlns:xlink="http://www.w3.org/1999/xlink">
<rect x="64.0469" y="12.5156" width="65.4439" height="63.5652" fill="url(#pattern0)"/>

<path d="M54.4779 90.6811V99.0811H52.1019V92.5171H50.5419V90.6811H54.4779ZM60.3492 99.2491C59.6292 99.2491 58.9892 99.0771 58.4292 98.7331C57.8692 98.3891 57.4292 97.8891 57.1092 97.2331C56.7972 96.5691 56.6412 95.7851 56.6412 94.8811C56.6412 93.9771 56.7972 93.1971 57.1092 92.5411C57.4292 91.8771 57.8692 91.3731 58.4292 91.0291C58.9892 90.6851 59.6292 90.5131 60.3492 90.5131C61.0612 90.5131 61.6972 90.6851 62.2572 91.0291C62.8172 91.3731 63.2532 91.8771 63.5652 92.5411C63.8852 93.1971 64.0452 93.9771 64.0452 94.8811C64.0452 95.7851 63.8852 96.5691 63.5652 97.2331C63.2532 97.8891 62.8172 98.3891 62.2572 98.7331C61.6972 99.0771 61.0612 99.2491 60.3492 99.2491ZM60.3492 97.3051C60.7492 97.3051 61.0652 97.1131 61.2972 96.7291C61.5372 96.3371 61.6572 95.7211 61.6572 94.8811C61.6572 94.0411 61.5372 93.4291 61.2972 93.0451C61.0652 92.6531 60.7492 92.4571 60.3492 92.4571C59.9412 92.4571 59.6172 92.6531 59.3772 93.0451C59.1452 93.4291 59.0292 94.0411 59.0292 94.8811C59.0292 95.7211 59.1452 96.3371 59.3772 96.7291C59.6172 97.1131 59.9412 97.3051 60.3492 97.3051ZM69.464 99.2491C68.744 99.2491 68.104 99.0771 67.544 98.7331C66.984 98.3891 66.544 97.8891 66.224 97.2331C65.912 96.5691 65.756 95.7851 65.756 94.8811C65.756 93.9771 65.912 93.1971 66.224 92.5411C66.544 91.8771 66.984 91.3731 67.544 91.0291C68.104 90.6851 68.744 90.5131 69.464 90.5131C70.176 90.5131 70.812 90.6851 71.372 91.0291C71.932 91.3731 72.368 91.8771 72.68 92.5411C73 93.1971 73.16 93.9771 73.16 94.8811C73.16 95.7851 73 96.5691 72.68 97.2331C72.368 97.8891 71.932 98.3891 71.372 98.7331C70.812 99.0771 70.176 99.2491 69.464 99.2491ZM69.464 97.3051C69.864 97.3051 70.18 97.1131 70.412 96.7291C70.652 96.3371 70.772 95.7211 70.772 94.8811C70.772 94.0411 70.652 93.4291 70.412 93.0451C70.18 92.6531 69.864 92.4571 69.464 92.4571C69.056 92.4571 68.732 92.6531 68.492 93.0451C68.26 93.4291 68.144 94.0411 68.144 94.8811C68.144 95.7211 68.26 96.3371 68.492 96.7291C68.732 97.1131 69.056 97.3051 69.464 97.3051ZM87.591 90.6811V99.0811H85.251V92.5651H82.839L82.791 93.9331C82.751 95.1331 82.651 96.1091 82.491 96.8611C82.339 97.6131 82.075 98.1971 81.699 98.6131C81.323 99.0211 80.791 99.2251 80.103 99.2251C79.783 99.2251 79.423 99.1771 79.023 99.0811L79.155 97.1371C79.259 97.1611 79.367 97.1731 79.479 97.1731C79.791 97.1731 80.031 97.0491 80.199 96.8011C80.367 96.5531 80.487 96.2091 80.559 95.7691C80.631 95.3211 80.679 94.7411 80.703 94.0291L80.823 90.6811H87.591ZM98.2679 90.6811L94.7879 97.1731C94.4199 97.8691 93.9679 98.3971 93.4319 98.7571C92.9039 99.1171 92.3239 99.2971 91.6919 99.2971C91.2279 99.2971 90.7319 99.1931 90.2039 98.9851L90.7679 97.2331C91.0959 97.3291 91.3759 97.3771 91.6079 97.3771C91.8399 97.3771 92.0439 97.3251 92.2199 97.2211C92.4039 97.1171 92.5719 96.9531 92.7239 96.7291L89.4599 90.6811H91.9679L93.9239 94.7371L95.9519 90.6811H98.2679ZM107.39 90.6811V99.0811H105.05V96.2251C104.402 96.4411 103.806 96.5491 103.262 96.5491C102.086 96.5491 101.186 96.2691 100.562 95.7091C99.9458 95.1411 99.6378 94.3251 99.6378 93.2611V90.6811H101.978V92.9971C101.978 94.0771 102.506 94.6171 103.562 94.6171C104.138 94.6171 104.634 94.5211 105.05 94.3291V90.6811H107.39ZM121.476 90.6811V99.0811H110.088V90.6811H112.428V97.1971H114.624V90.6811H116.964V97.1971H119.136V90.6811H121.476ZM124.171 90.6811H126.511V95.6131L129.979 90.6811H132.211V99.0811H129.871V94.1611L126.415 99.0811H124.171V90.6811ZM137.003 90.6691L138.503 92.9491L139.991 90.6691H142.751L139.991 94.6891L142.991 99.0811H140.195L138.503 96.5971L136.823 99.0811H134.087L137.075 94.7971L134.279 90.6691H137.003Z" fill="#413847"/>
<path d="M57.8259 105.673H56.4819V109.081H55.5219V105.673H54.1839V104.881H57.8259V105.673ZM60.8316 109.153C60.3956 109.153 60.0016 109.059 59.6496 108.871C59.3016 108.683 59.0276 108.425 58.8276 108.097C58.6316 107.765 58.5336 107.393 58.5336 106.981C58.5336 106.569 58.6316 106.199 58.8276 105.871C59.0276 105.539 59.3016 105.279 59.6496 105.091C60.0016 104.903 60.3956 104.809 60.8316 104.809C61.2676 104.809 61.6596 104.903 62.0076 105.091C62.3556 105.279 62.6296 105.539 62.8296 105.871C63.0296 106.199 63.1296 106.569 63.1296 106.981C63.1296 107.393 63.0296 107.765 62.8296 108.097C62.6296 108.425 62.3556 108.683 62.0076 108.871C61.6596 109.059 61.2676 109.153 60.8316 109.153ZM60.8316 108.325C61.0796 108.325 61.3036 108.269 61.5036 108.157C61.7036 108.041 61.8596 107.881 61.9716 107.677C62.0876 107.473 62.1456 107.241 62.1456 106.981C62.1456 106.721 62.0876 106.489 61.9716 106.285C61.8596 106.081 61.7036 105.923 61.5036 105.811C61.3036 105.695 61.0796 105.637 60.8316 105.637C60.5836 105.637 60.3596 105.695 60.1596 105.811C59.9596 105.923 59.8016 106.081 59.6856 106.285C59.5736 106.489 59.5176 106.721 59.5176 106.981C59.5176 107.241 59.5736 107.473 59.6856 107.677C59.8016 107.881 59.9596 108.041 60.1596 108.157C60.3596 108.269 60.5836 108.325 60.8316 108.325ZM67.2384 106.891C67.4944 106.967 67.6904 107.091 67.8264 107.263C67.9624 107.435 68.0304 107.647 68.0304 107.899C68.0304 108.271 67.8884 108.561 67.6044 108.769C67.3244 108.977 66.9224 109.081 66.3984 109.081H64.3284V104.881H66.2844C66.7724 104.881 67.1524 104.975 67.4244 105.163C67.6964 105.351 67.8324 105.619 67.8324 105.967C67.8324 106.175 67.7804 106.359 67.6764 106.519C67.5724 106.675 67.4264 106.799 67.2384 106.891ZM65.2944 106.621H66.2004C66.4124 106.621 66.5724 106.579 66.6804 106.495C66.7884 106.407 66.8424 106.279 66.8424 106.111C66.8424 105.947 66.7864 105.821 66.6744 105.733C66.5664 105.645 66.4084 105.601 66.2004 105.601H65.2944V106.621ZM66.3624 108.361C66.8184 108.361 67.0464 108.181 67.0464 107.821C67.0464 107.473 66.8184 107.299 66.3624 107.299H65.2944V108.361H66.3624ZM72.0931 108.181H70.1431L69.7711 109.081H68.7751L70.6471 104.881H71.6071L73.4851 109.081H72.4651L72.0931 108.181ZM71.7871 107.443L71.1211 105.835L70.4551 107.443H71.7871ZM76.3101 104.881C76.6821 104.881 77.0041 104.943 77.2761 105.067C77.5521 105.191 77.7641 105.367 77.9121 105.595C78.0601 105.823 78.1341 106.093 78.1341 106.405C78.1341 106.713 78.0601 106.983 77.9121 107.215C77.7641 107.443 77.5521 107.619 77.2761 107.743C77.0041 107.863 76.6821 107.923 76.3101 107.923H75.4641V109.081H74.4921V104.881H76.3101ZM76.2561 107.131C76.5481 107.131 76.7701 107.069 76.9221 106.945C77.0741 106.817 77.1501 106.637 77.1501 106.405C77.1501 106.169 77.0741 105.989 76.9221 105.865C76.7701 105.737 76.5481 105.673 76.2561 105.673H75.4641V107.131H76.2561ZM81.2879 109.153C80.8519 109.153 80.4579 109.059 80.1059 108.871C79.7579 108.683 79.4839 108.425 79.2839 108.097C79.0879 107.765 78.9899 107.393 78.9899 106.981C78.9899 106.569 79.0879 106.199 79.2839 105.871C79.4839 105.539 79.7579 105.279 80.1059 105.091C80.4579 104.903 80.8519 104.809 81.2879 104.809C81.7239 104.809 82.1159 104.903 82.4639 105.091C82.8119 105.279 83.0859 105.539 83.2859 105.871C83.4859 106.199 83.5859 106.569 83.5859 106.981C83.5859 107.393 83.4859 107.765 83.2859 108.097C83.0859 108.425 82.8119 108.683 82.4639 108.871C82.1159 109.059 81.7239 109.153 81.2879 109.153ZM81.2879 108.325C81.5359 108.325 81.7599 108.269 81.9599 108.157C82.1599 108.041 82.3159 107.881 82.4279 107.677C82.5439 107.473 82.6019 107.241 82.6019 106.981C82.6019 106.721 82.5439 106.489 82.4279 106.285C82.3159 106.081 82.1599 105.923 81.9599 105.811C81.7599 105.695 81.5359 105.637 81.2879 105.637C81.0399 105.637 80.8159 105.695 80.6159 105.811C80.4159 105.923 80.2579 106.081 80.1419 106.285C80.0299 106.489 79.9739 106.721 79.9739 106.981C79.9739 107.241 80.0299 107.473 80.1419 107.677C80.2579 107.881 80.4159 108.041 80.6159 108.157C80.8159 108.269 81.0399 108.325 81.2879 108.325ZM87.6947 106.891C87.9507 106.967 88.1467 107.091 88.2827 107.263C88.4187 107.435 88.4867 107.647 88.4867 107.899C88.4867 108.271 88.3447 108.561 88.0607 108.769C87.7807 108.977 87.3787 109.081 86.8547 109.081H84.7847V104.881H86.7407C87.2287 104.881 87.6087 104.975 87.8807 105.163C88.1527 105.351 88.2887 105.619 88.2887 105.967C88.2887 106.175 88.2367 106.359 88.1327 106.519C88.0287 106.675 87.8827 106.799 87.6947 106.891ZM85.7507 106.621H86.6567C86.8687 106.621 87.0287 106.579 87.1367 106.495C87.2447 106.407 87.2987 106.279 87.2987 106.111C87.2987 105.947 87.2427 105.821 87.1307 105.733C87.0227 105.645 86.8647 105.601 86.6567 105.601H85.7507V106.621ZM86.8187 108.361C87.2747 108.361 87.5027 108.181 87.5027 107.821C87.5027 107.473 87.2747 107.299 86.8187 107.299H85.7507V108.361H86.8187ZM93.6726 104.881C94.0446 104.881 94.3666 104.943 94.6386 105.067C94.9146 105.191 95.1266 105.367 95.2746 105.595C95.4226 105.823 95.4966 106.093 95.4966 106.405C95.4966 106.713 95.4226 106.983 95.2746 107.215C95.1266 107.443 94.9146 107.619 94.6386 107.743C94.3666 107.863 94.0446 107.923 93.6726 107.923H92.8266V109.081H91.8546V104.881H93.6726ZM93.6186 107.131C93.9106 107.131 94.1326 107.069 94.2846 106.945C94.4366 106.817 94.5126 106.637 94.5126 106.405C94.5126 106.169 94.4366 105.989 94.2846 105.865C94.1326 105.737 93.9106 105.673 93.6186 105.673H92.8266V107.131H93.6186ZM98.6504 109.153C98.2144 109.153 97.8204 109.059 97.4684 108.871C97.1204 108.683 96.8464 108.425 96.6464 108.097C96.4504 107.765 96.3524 107.393 96.3524 106.981C96.3524 106.569 96.4504 106.199 96.6464 105.871C96.8464 105.539 97.1204 105.279 97.4684 105.091C97.8204 104.903 98.2144 104.809 98.6504 104.809C99.0864 104.809 99.4784 104.903 99.8264 105.091C100.174 105.279 100.448 105.539 100.648 105.871C100.848 106.199 100.948 106.569 100.948 106.981C100.948 107.393 100.848 107.765 100.648 108.097C100.448 108.425 100.174 108.683 99.8264 108.871C99.4784 109.059 99.0864 109.153 98.6504 109.153ZM98.6504 108.325C98.8984 108.325 99.1224 108.269 99.3224 108.157C99.5224 108.041 99.6784 107.881 99.7904 107.677C99.9064 107.473 99.9644 107.241 99.9644 106.981C99.9644 106.721 99.9064 106.489 99.7904 106.285C99.6784 106.081 99.5224 105.923 99.3224 105.811C99.1224 105.695 98.8984 105.637 98.6504 105.637C98.4024 105.637 98.1784 105.695 97.9784 105.811C97.7784 105.923 97.6204 106.081 97.5044 106.285C97.3924 106.489 97.3364 106.721 97.3364 106.981C97.3364 107.241 97.3924 107.473 97.5044 107.677C97.6204 107.881 97.7784 108.041 97.9784 108.157C98.1784 108.269 98.4024 108.325 98.6504 108.325ZM104.133 109.153C103.705 109.153 103.317 109.061 102.969 108.877C102.625 108.689 102.353 108.431 102.153 108.103C101.957 107.771 101.859 107.397 101.859 106.981C101.859 106.565 101.957 106.193 102.153 105.865C102.353 105.533 102.625 105.275 102.969 105.091C103.317 104.903 103.707 104.809 104.139 104.809C104.503 104.809 104.831 104.873 105.123 105.001C105.419 105.129 105.667 105.313 105.867 105.553L105.243 106.129C104.959 105.801 104.607 105.637 104.187 105.637C103.927 105.637 103.695 105.695 103.491 105.811C103.287 105.923 103.127 106.081 103.011 106.285C102.899 106.489 102.843 106.721 102.843 106.981C102.843 107.241 102.899 107.473 103.011 107.677C103.127 107.881 103.287 108.041 103.491 108.157C103.695 108.269 103.927 108.325 104.187 108.325C104.607 108.325 104.959 108.159 105.243 107.827L105.867 108.403C105.667 108.647 105.419 108.833 105.123 108.961C104.827 109.089 104.497 109.153 104.133 109.153ZM108.849 109.153C108.421 109.153 108.033 109.061 107.685 108.877C107.341 108.689 107.069 108.431 106.869 108.103C106.673 107.771 106.575 107.397 106.575 106.981C106.575 106.565 106.673 106.193 106.869 105.865C107.069 105.533 107.341 105.275 107.685 105.091C108.033 104.903 108.423 104.809 108.855 104.809C109.219 104.809 109.547 104.873 109.839 105.001C110.135 105.129 110.383 105.313 110.583 105.553L109.959 106.129C109.675 105.801 109.323 105.637 108.903 105.637C108.643 105.637 108.411 105.695 108.207 105.811C108.003 105.923 107.843 106.081 107.727 106.285C107.615 106.489 107.559 106.721 107.559 106.981C107.559 107.241 107.615 107.473 107.727 107.677C107.843 107.881 108.003 108.041 108.207 108.157C108.411 108.269 108.643 108.325 108.903 108.325C109.323 108.325 109.675 108.159 109.959 107.827L110.583 108.403C110.383 108.647 110.135 108.833 109.839 108.961C109.543 109.089 109.213 109.153 108.849 109.153ZM111.666 104.881H112.632V107.617L114.636 104.881H115.548V109.081H114.588V106.351L112.584 109.081H111.666V104.881ZM117.044 104.881H118.01V107.617L120.014 104.881H120.926V109.081H119.966V106.351L117.962 109.081H117.044V104.881ZM127.421 108.289V109.081H124.247V108.451L125.867 106.921C126.039 106.757 126.155 106.617 126.215 106.501C126.275 106.381 126.305 106.263 126.305 106.147C126.305 105.979 126.247 105.851 126.131 105.763C126.019 105.671 125.853 105.625 125.633 105.625C125.449 105.625 125.283 105.661 125.135 105.733C124.987 105.801 124.863 105.905 124.763 106.045L124.055 105.589C124.219 105.345 124.445 105.155 124.733 105.019C125.021 104.879 125.351 104.809 125.723 104.809C126.035 104.809 126.307 104.861 126.539 104.965C126.775 105.065 126.957 105.209 127.085 105.397C127.217 105.581 127.283 105.799 127.283 106.051C127.283 106.279 127.235 106.493 127.139 106.693C127.043 106.893 126.857 107.121 126.581 107.377L125.615 108.289H127.421ZM130.06 109.153C129.712 109.153 129.402 109.067 129.13 108.895C128.858 108.723 128.644 108.475 128.488 108.151C128.336 107.823 128.26 107.433 128.26 106.981C128.26 106.529 128.336 106.141 128.488 105.817C128.644 105.489 128.858 105.239 129.13 105.067C129.402 104.895 129.712 104.809 130.06 104.809C130.408 104.809 130.718 104.895 130.99 105.067C131.262 105.239 131.474 105.489 131.626 105.817C131.782 106.141 131.86 106.529 131.86 106.981C131.86 107.433 131.782 107.823 131.626 108.151C131.474 108.475 131.262 108.723 130.99 108.895C130.718 109.067 130.408 109.153 130.06 109.153ZM130.06 108.331C130.316 108.331 130.516 108.221 130.66 108.001C130.808 107.781 130.882 107.441 130.882 106.981C130.882 106.521 130.808 106.181 130.66 105.961C130.516 105.741 130.316 105.631 130.06 105.631C129.808 105.631 129.608 105.741 129.46 105.961C129.316 106.181 129.244 106.521 129.244 106.981C129.244 107.441 129.316 107.781 129.46 108.001C129.608 108.221 129.808 108.331 130.06 108.331ZM134.367 104.881V109.081H133.395V105.661H132.555V104.881H134.367ZM139.393 108.199H138.709V109.081H137.761V108.199H135.499V107.545L137.479 104.881H138.499L136.663 107.407H137.791V106.621H138.709V107.407H139.393V108.199Z" fill="#797180"/>
<path d="M172.724 104.2C173.219 103.984 173.451 103.583 173.668 103.136C175.168 100.19 177.07 97.5686 179.838 95.6562C182.684 93.6821 185.823 92.7259 189.303 92.8801C189.906 92.911 189.968 93.1423 189.829 93.6667C189.226 95.7642 188.128 97.5686 186.751 99.2189C185.066 101.255 183.272 103.152 180.844 104.324C178.756 105.326 176.622 105.804 174.348 104.879C173.281 104.447 172.198 104.972 171.41 106.19C168.843 110.169 165.95 113.855 162.61 117.186C162.564 117.233 162.533 117.31 162.502 117.387C162.997 117.418 162.997 117.418 163.445 116.986C164.234 116.215 164.976 115.366 165.842 114.688C169.245 112.004 173.142 111.295 177.364 111.943C178.694 112.143 179.978 112.529 181.246 112.976C182.251 113.331 182.328 113.577 181.617 114.426C180.24 116.06 178.508 117.263 176.637 118.297C174.302 119.577 171.827 120.394 169.167 120.61C167.172 120.764 165.332 120.348 163.785 118.96C162.765 118.035 161.527 118.142 160.321 119.207C159.161 120.225 157.939 121.165 156.671 122.06C154.522 123.587 152.233 124.867 149.867 126.023C149.588 126.162 149.279 126.239 149.001 126.563C149.464 126.764 149.805 126.579 150.145 126.378C151.568 125.545 153.068 124.851 154.692 124.497C158.682 123.618 162.363 124.481 165.842 126.455C166.878 127.041 167.822 127.735 168.765 128.476C169.245 128.846 169.26 129.108 168.781 129.478C168.147 129.956 167.482 130.434 166.724 130.697C162.687 132.1 158.604 132.84 154.382 131.591C152.527 131.036 150.965 130.064 149.867 128.414C149.109 127.273 148.026 126.903 146.696 127.365C144.144 128.26 141.546 129.015 138.871 129.509C138.546 129.571 138.206 129.632 137.881 129.679C137.603 129.725 137.278 129.833 137.17 129.447C137.077 129.123 137.216 128.83 137.463 128.63C137.819 128.337 138.268 128.306 138.701 128.229C141.732 127.689 144.655 126.779 147.5 125.622C148.212 125.329 148.583 124.882 148.66 124.142C148.738 123.355 148.769 122.569 148.738 121.767C148.521 117.634 149.867 113.978 152.387 110.74C153.702 109.043 155.326 107.732 157.213 106.699C157.568 106.498 158.001 106.298 157.878 107.054C157.274 110.616 156.934 114.241 155.759 117.695C155.047 119.777 153.826 121.489 152.063 122.8C151.398 123.294 150.702 123.726 149.82 123.756C149.495 123.772 149.279 123.926 149.217 124.25C149.171 124.435 149.016 124.666 149.217 124.821C149.372 124.944 149.557 124.774 149.712 124.697C153.888 122.708 157.646 120.147 161.079 117.063C162.332 115.937 162.409 114.657 161.914 113.284C160.275 108.627 160.584 104.031 162.301 99.4965C163.043 97.5378 164.126 95.7642 165.487 94.1448C165.657 93.9443 165.827 93.5896 166.136 93.6821C166.43 93.7592 166.306 94.1294 166.337 94.3607C166.631 97.0597 166.987 99.7587 167.203 102.473C167.42 105.373 167.497 108.287 165.889 110.94C165.193 112.066 164.466 113.146 163.26 113.793C162.966 113.948 162.796 114.194 162.765 114.518C162.749 114.765 162.517 115.073 162.796 115.212C163.074 115.351 163.229 114.996 163.399 114.827C166.461 111.572 169.136 108.041 171.441 104.216C172.106 103.105 172.106 102.103 171.626 101.008C171.394 100.468 171.131 99.9283 170.807 99.4348C169.245 97.1368 168.564 94.5458 168.208 91.8468C167.698 87.9295 168.379 84.1663 169.91 80.5574C170.002 80.3261 170.049 79.9714 170.327 79.9559C170.652 79.9251 170.652 80.2952 170.745 80.5266C172.106 83.9196 173.59 87.2663 174.364 90.8444C174.936 93.4971 174.859 96.1035 173.776 98.6328C173.513 99.2343 173.142 99.7432 172.74 100.252C172.322 100.777 172.291 101.301 172.616 102.103C173.126 101.085 173.575 100.221 173.992 99.3268C175.879 95.3632 177.302 91.2453 178.446 87.0195C178.849 85.5235 178.323 84.4131 177.41 83.3643C176.467 82.2848 175.183 81.5291 174.348 80.3261C171.997 76.9485 170.667 73.2317 170.497 69.1138C170.435 67.6024 170.482 66.0755 170.698 64.5795C170.729 64.3636 170.698 64.0397 170.946 63.978C171.209 63.9009 171.317 64.2094 171.441 64.3945C173.451 67.1705 175.694 69.7616 177.426 72.7227C178.539 74.6351 179.266 76.6863 179.421 78.9072C179.514 80.1719 179.313 81.4365 178.678 82.5624C178.292 83.2564 178.4 83.827 178.895 84.3668C179.173 84.3206 179.127 84.1046 179.158 83.9504C179.838 80.4957 180.333 77.0102 180.565 73.4938C180.658 71.9978 180.658 70.5173 180.704 69.0213C180.751 67.4944 180.008 66.3686 178.709 65.8133C172.879 63.2532 170.435 58.3333 169.245 52.519C169.044 51.5474 168.904 50.5449 168.92 49.5424C168.92 49.3882 168.904 49.2185 169.059 49.126C169.229 49.0489 169.337 49.1877 169.461 49.2802C171.765 51.2081 174.286 52.9046 176.374 55.0946C178.663 57.4851 180.024 60.3074 180.039 63.6696C180.039 64.1785 179.931 64.6875 179.885 65.1964C179.869 65.3969 179.838 65.6128 179.885 65.7979C179.978 66.091 180.179 66.4765 180.472 66.4457C180.844 66.4148 180.673 65.983 180.673 65.7362C180.534 60.4771 179.854 55.2951 178.632 50.1747C178.4 49.1877 177.178 48.2006 176.034 48.2006C172.508 48.1698 169.971 46.2728 167.714 43.8823C165.734 41.7848 164.481 39.2555 163.631 36.5257C163.553 36.2943 163.337 36.0167 163.569 35.8162C163.77 35.6312 164.002 35.8471 164.203 35.9396C167.049 37.1272 170.002 38.1451 172.662 39.7182C175.446 41.3838 177.07 43.836 177.116 47.1673C177.132 47.7997 177.395 48.1698 177.998 48.3549C178.23 48.1081 178.06 47.8613 177.998 47.63C176.699 42.9724 175.075 38.4227 172.956 34.058C172.523 33.1635 171.688 33.1018 170.899 32.9168C170.59 32.8397 170.219 32.8859 169.91 32.9785C167.018 33.873 164.404 33.0401 161.93 31.6058C159.641 30.2795 157.909 28.3517 156.517 26.0999C156.408 25.9303 156.254 25.7606 156.362 25.5293C156.455 25.3596 156.625 25.4059 156.78 25.4213C159.037 25.5756 161.311 25.5447 163.553 25.9611C165.657 26.3467 167.652 26.9328 169.198 28.5676C170.018 29.4467 170.559 30.4337 170.807 31.5904C170.946 32.269 171.301 32.6237 172.106 32.562C171.642 31.282 170.946 30.187 170.296 29.0611C168.904 26.6243 167.358 24.2801 165.672 22.0438C164.976 21.1338 164.064 20.8408 162.966 21.2264C161.945 21.5811 160.986 22.1055 159.904 22.2597C156.455 22.7686 153.455 21.7199 150.748 19.6224C149.975 19.0209 149.31 18.3115 148.691 17.5403C148.475 17.2627 148.243 16.8926 148.799 16.8001C151.8 16.3374 154.769 15.5508 157.831 16.0752C160.074 16.4608 161.775 17.6329 162.904 19.6224C163.12 19.9926 163.306 20.409 163.754 20.5786C163.925 20.6403 164.126 20.7328 164.265 20.5632C164.419 20.3781 164.265 20.2239 164.157 20.0851C163.615 19.4219 163.089 18.7587 162.517 18.1264C160.878 16.3065 159.223 14.5175 157.336 12.9444C156.81 12.4971 156.254 12.2504 155.527 12.1887C151.769 11.8802 148.985 9.90612 146.774 6.99124C145.567 5.37186 144.717 3.50571 144.129 1.51619C144.067 1.30027 143.897 1.03808 144.067 0.85301C144.268 0.637093 144.485 0.899278 144.686 0.976392C146.758 1.77837 148.892 2.37986 150.887 3.36691C152.836 4.33854 154.506 5.61862 155.728 7.45392C156.486 8.61062 156.903 9.84443 156.888 11.2171C156.888 11.6643 156.965 12.0345 157.336 12.3738C160.569 15.3041 163.538 18.4657 166.198 21.9204C166.368 22.1363 166.476 22.4139 166.832 22.5373C166.971 21.9204 166.724 21.4269 166.353 21.0105C163.074 17.4787 161.574 13.1912 161.141 8.50266C160.94 6.37433 160.971 4.246 161.326 2.11767C161.435 1.46992 161.636 1.45449 162.084 1.88633C165.966 5.63404 168.394 10.1066 168.92 15.5046C169.105 17.3553 168.858 19.1597 167.683 20.7791C166.817 21.9512 167.296 23.2467 168.023 24.3109C169.631 26.6706 171.162 29.0765 172.539 31.5904C173.405 33.1944 174.209 34.8292 175.075 36.5411C175.307 35.9396 175.091 35.4615 174.828 34.9988C173.652 32.8551 172.848 30.5725 172.492 28.1666C171.827 23.7557 172.26 19.4528 174.147 15.3658C174.255 15.119 174.317 14.7488 174.627 14.7026C174.982 14.6563 175.09 15.0419 175.245 15.3041C176.931 18.111 177.642 21.2572 178.261 24.4034C178.771 27.0407 178.988 29.6934 178.292 32.3461C178.013 33.3949 177.58 34.3819 176.807 35.1068C175.585 36.2635 175.678 37.6824 176.142 38.9625C177.658 43.2037 179.111 47.4604 179.993 51.8867C180.008 51.9484 180.07 52.01 180.132 52.118C180.519 51.6091 180.395 51.0847 180.256 50.5757C179.653 48.3857 179.282 46.1494 179.22 43.8823C179.127 40.1346 179.9 36.5874 181.895 33.3486C182.437 32.4695 183.04 31.6367 183.658 30.8193C183.813 30.6188 183.906 30.2795 184.184 30.3103C184.462 30.3412 184.478 30.6959 184.571 30.9272C185.174 32.5466 185.483 34.2585 185.622 35.9705C185.885 39.2092 185.885 42.4326 185.189 45.6251C184.942 46.7663 184.617 47.8613 184.029 48.8792C183.566 49.6658 182.993 50.329 182.189 50.8071C180.704 51.6862 180.333 53.213 180.519 54.6936C180.952 58.1637 181.416 61.6184 181.524 65.1193C181.57 66.3069 181.586 67.5098 181.663 68.867C182.174 68.4352 182.096 67.9879 182.096 67.587C182.081 65.2736 182.019 62.9601 182.56 60.6776C183.705 55.8349 186.272 51.9175 190.2 48.8792C190.37 48.7404 190.556 48.4937 190.803 48.6171C191.082 48.7404 191.035 49.0489 191.066 49.2957C191.453 54.308 190.386 59.0582 188.391 63.6079C187.695 65.1964 186.674 66.5999 185.236 67.6332C184.803 67.9571 184.323 68.2655 183.782 68.3427C182.174 68.6048 181.725 69.9004 181.679 71.1033C181.493 76.1003 180.967 81.0355 179.885 85.9245C179.869 85.9862 179.885 86.0633 179.885 86.2792C180.256 85.8474 180.318 85.4156 180.395 85.0146C181.679 78.7221 185.097 73.9719 190.741 70.872C191.375 70.5173 192.04 70.2551 192.736 70.0237C193.324 69.8232 193.541 70.0392 193.541 70.6252C193.541 71.7048 193.247 72.7073 192.922 73.7098C191.654 77.5346 189.891 81.0818 187.03 83.9967C185.437 85.6161 183.612 86.7419 181.215 86.5414C180.735 86.4952 180.364 86.7265 180.101 87.0966C179.622 87.7598 179.22 88.4538 178.957 89.2712C177.426 94.2219 175.431 98.9875 172.91 103.522C172.833 103.738 172.632 103.907 172.724 104.2Z" fill="#C8C8C8"/>
<path d="M31.1843 117.449C30.3801 116.57 29.6068 115.737 28.8336 114.888C26.5138 112.39 24.4724 109.691 22.6474 106.822C22.3536 106.375 22.1371 105.866 21.6886 105.527C20.8225 104.879 20.0029 104.54 18.8121 105.003C16.5077 105.882 14.2498 105.249 12.2393 104.031C8.55856 101.779 5.85213 98.633 4.13548 94.6693C3.39314 92.9266 3.455 92.8803 5.31084 92.8957C9.02251 92.9266 12.2238 94.2684 15.054 96.6435C17.1727 98.4171 18.6574 100.638 19.8792 103.075C20.1111 103.537 20.3895 103.954 20.9617 104.278C20.8999 103.753 20.606 103.445 20.4204 103.106C18.0697 98.6947 16.1056 94.1141 14.6674 89.3177C14.59 89.0709 14.5127 88.8242 14.4354 88.5774C14.2343 87.9451 13.7394 87.4978 13.3992 86.958C12.9352 86.2177 12.2548 86.6033 11.6516 86.557C9.82671 86.4336 8.28018 85.6625 6.98109 84.4133C4.39839 81.9765 2.71267 78.9536 1.39812 75.7149C0.841367 74.3268 0.392873 72.908 0.114497 71.4428C0.0217053 70.9955 -0.132948 70.4403 0.222754 70.1164C0.609387 69.7617 1.11974 70.1319 1.50637 70.3169C7.04295 72.7846 10.7392 76.9024 12.5641 82.6705C12.8424 83.5188 13.0126 84.4133 13.2291 85.2769C13.3219 85.6162 13.3683 85.971 13.8013 86.3874C13.5538 85.1536 13.3373 84.1202 13.1363 83.0715C12.5795 80.1103 12.2702 77.1338 12.0846 74.1263C11.9919 72.5378 12.3012 70.8567 11.3423 69.3916C11.1103 69.0369 10.8938 68.6976 10.4608 68.5896C8.15646 68.0498 6.78004 66.4458 5.69747 64.5026C4.05815 61.526 3.25395 58.2873 2.7436 54.9714C2.46522 53.1207 2.3415 51.2545 2.55802 49.3729C2.58895 49.1262 2.54255 48.8177 2.79 48.6635C3.08384 48.4939 3.26942 48.7869 3.455 48.9257C8.54309 52.9664 11.3578 58.1639 11.5279 64.7031C11.5588 65.7364 11.5124 66.7543 11.5279 67.7876C11.5279 68.1269 11.4815 68.5125 11.8681 68.7901C12.0692 68.4662 11.9764 68.1269 11.9919 67.8185C12.0846 63.9165 12.3166 60.0146 12.9352 56.1589C13.1363 54.9097 13.2445 53.753 12.8115 52.5346C12.6105 51.9331 12.363 51.455 11.8372 51.1157C10.136 50.067 9.1617 48.4939 8.68228 46.6277C7.95541 43.7745 7.75436 40.8596 7.90901 37.9139C8.03273 35.693 8.21832 33.503 8.91426 31.3901C8.96065 31.2513 9.00705 31.0971 9.06891 30.9583C9.33182 30.2951 9.48647 30.2642 9.93497 30.8195C12.131 33.503 13.6002 36.5104 14.157 39.9497C14.7447 43.4969 14.2962 46.967 13.4456 50.4063C13.3064 50.9769 13.1054 51.5475 13.492 52.149C13.7704 51.9485 13.724 51.6401 13.7858 51.3933C14.6055 47.3834 15.8427 43.4815 17.3583 39.6875C17.6986 38.8392 17.7759 37.991 17.8068 37.1273C17.8223 36.6492 17.7913 36.1403 17.4047 35.7547C15.2396 33.5801 14.7911 30.8503 14.9921 27.9817C15.255 24.1569 16.1056 20.4708 17.5903 16.9236C17.8687 16.2759 18.2244 15.6898 18.5801 15.0883C18.9048 14.564 19.1678 14.6102 19.4152 15.1654C20.6524 17.7873 21.3329 20.5325 21.4412 23.4166C21.5958 27.5653 20.8225 31.4981 18.7811 35.1378C18.4718 35.693 18.4718 35.8164 18.4718 36.896C18.7502 36.3254 18.9358 35.9089 19.1368 35.5079C21.0081 31.606 23.1733 27.8737 25.6786 24.3265C26.6375 22.9847 26.5756 21.7663 25.725 20.3629C24.5961 18.4813 24.5188 16.4147 24.8745 14.3172C25.6786 9.53616 27.9211 5.52626 31.3544 2.13327C31.5555 1.9482 31.7411 1.6089 32.0349 1.70144C32.3751 1.8094 32.3597 2.21039 32.3906 2.50342C32.9628 7.71628 32.4679 12.7595 29.8852 17.4634C29.2202 18.6972 28.3696 19.7922 27.4417 20.8256C27.0396 21.2728 26.7612 21.7201 26.9004 22.3216C27.1788 22.4141 27.2406 22.2136 27.3489 22.0748C29.2511 19.6072 31.308 17.2629 33.4577 15.0266C34.3547 14.1013 35.329 13.253 36.2878 12.4048C36.5662 12.1426 36.7673 11.8958 36.7673 11.4948C36.7827 8.11727 38.6695 5.89641 41.3295 4.18449C43.0462 3.07406 45.0257 2.488 46.9125 1.76313C47.6085 1.48552 48.2889 1.19249 48.9849 0.89946C49.1705 0.822346 49.3715 0.637274 49.5571 0.791501C49.7427 0.945728 49.6189 1.17707 49.5725 1.37756C48.8766 3.86061 47.7167 6.11233 46.0001 8.05558C43.9432 10.3844 41.4223 11.8804 38.2829 12.1272C36.8137 12.2506 35.9476 13.2684 35.0042 14.1321C33.0556 15.9057 31.3235 17.8798 29.6687 19.9156C29.514 20.1007 29.1274 20.3629 29.4367 20.5942C29.6842 20.7793 30.1017 20.6096 30.3182 20.3012C30.5038 20.0236 30.6275 19.7151 30.7977 19.4221C32.1895 17.0007 34.4939 16.1679 37.0766 15.952C39.6438 15.7361 42.1492 16.353 44.6546 16.7848C45.1804 16.8774 45.3351 17.1087 44.9639 17.556C42.474 20.5171 39.3964 22.3216 35.4373 22.4141C33.8289 22.4449 32.3287 22.0902 30.9059 21.3037C30.0399 20.8101 28.7253 21.0723 28.1222 21.8589C25.7096 25.0514 23.5754 28.3981 21.7659 31.9762C21.6731 32.1612 21.5339 32.3155 21.5958 32.5931C22.168 32.5776 22.6474 32.4234 22.7866 31.7757C23.4671 28.6449 25.6941 27.1334 28.5552 26.2852C30.0708 25.8379 31.6483 25.8071 33.2257 25.6683C34.3856 25.5603 35.53 25.4986 36.6899 25.4215C36.891 25.4061 37.123 25.329 37.2622 25.5141C37.4168 25.7146 37.2622 25.915 37.1539 26.0847C34.9888 29.4623 32.2359 32.0687 28.184 33.0557C26.622 33.4413 25.0755 33.4259 23.529 32.9632C22.3845 32.6085 21.1628 33.1637 20.637 34.2279C18.4873 38.5462 16.9253 43.0959 15.6262 47.7227C15.5798 47.9078 15.4715 48.1083 15.5953 48.355C16.3376 48.1854 16.4923 47.6456 16.5232 46.9978C16.616 44.9312 17.2655 43.0805 18.7347 41.5536C20.2039 40.0114 22.0288 38.9935 23.9465 38.1761C25.8178 37.3741 27.7201 36.6647 29.6223 35.9244C29.777 35.8627 29.9625 35.7084 30.1172 35.8781C30.2409 36.0015 30.1327 36.1711 30.0863 36.3099C28.648 40.7825 26.2973 44.5611 22.0907 46.967C20.7607 47.7381 19.3224 48.2008 17.7449 48.1854C16.3221 48.1854 15.2396 49.1262 14.9303 50.5296C13.8941 55.1256 13.2445 59.7678 13.0744 64.4872C13.059 65.027 12.9816 65.5668 12.9507 66.0911C12.9352 66.2299 12.9198 66.4458 13.1208 66.4613C13.2136 66.4767 13.3528 66.3533 13.4147 66.2608C13.8168 65.7673 13.7549 65.1812 13.6621 64.6414C13.4147 63.0991 13.6466 61.6186 14.1261 60.1534C14.9767 57.5315 16.6469 55.4495 18.7038 53.6759C20.4204 52.1953 22.2299 50.8227 23.9929 49.4192C24.1476 49.2958 24.3022 49.0799 24.5188 49.1416C24.7817 49.2187 24.7043 49.4809 24.6889 49.6814C24.3177 55.4957 22.3691 60.5544 17.6986 64.3175C17.049 64.8419 16.3067 65.1812 15.5334 65.4896C13.6466 66.2608 12.9352 67.3558 12.9198 69.3916C12.8888 74.188 13.5075 78.9228 14.4044 83.6267C14.4508 83.8889 14.4044 84.1973 14.7292 84.4287C15.0385 83.9814 15.4097 83.5496 15.1004 82.979C13.8941 80.8815 14.1106 78.676 14.6519 76.4706C15.2705 73.9567 16.6778 71.8129 18.178 69.7463C19.508 67.911 20.9153 66.1374 22.2763 64.3329C22.3845 64.1787 22.4619 63.8857 22.7093 63.9628C22.9258 64.0245 22.9104 64.3021 22.9258 64.5026C23.6991 70.5483 22.5856 76.1159 18.7038 80.974C18.147 81.6835 17.482 82.3004 16.7397 82.8247C16.2757 83.1486 15.9046 83.5342 15.6107 84.0431C14.9457 85.169 14.9612 86.264 15.3014 87.5132C16.6469 92.3405 18.379 96.9982 20.6834 101.44C20.7607 101.594 20.8535 101.748 21.0545 102.072C21.271 101.378 21.4257 100.885 20.9772 100.391C19.5389 98.7872 19.1059 96.8285 18.9667 94.7773C18.7347 91.554 19.7864 88.5928 20.8689 85.6317C21.5494 83.7655 22.3227 81.9456 23.0495 80.1103C23.0959 80.0024 23.1269 79.8636 23.2815 79.8327C23.498 79.9098 23.5444 80.1258 23.6218 80.3108C24.8281 83.1795 25.6323 86.1406 25.6013 89.2868C25.5549 93.0345 24.7043 96.5663 22.6011 99.728C22.0288 100.592 21.8123 101.563 21.6422 102.55C21.5649 103.013 21.7505 103.414 21.967 103.8C24.163 107.516 26.6375 111.002 29.6223 114.133C29.9007 114.426 30.1636 114.75 30.442 115.058C30.5502 115.166 30.6585 115.32 30.8286 115.259C31.0606 115.166 30.9523 114.95 30.9214 114.781C30.8595 114.395 30.7977 114.056 30.411 113.809C28.0603 112.328 26.9623 110.046 26.5447 107.424C26.0962 104.555 26.3901 101.687 26.7458 98.8181C26.9313 97.3375 27.1169 95.8569 27.3025 94.3917C27.3334 94.145 27.2561 93.8211 27.5654 93.7286C27.8129 93.6515 27.9675 93.9291 28.1067 94.0987C30.5193 97.0599 32.0968 100.376 32.5762 104.185C32.9628 107.239 32.8855 110.215 31.772 113.146C31.4317 114.025 31.6173 114.981 31.6483 115.906C31.6637 116.184 31.8493 116.369 32.0349 116.554C35.4991 119.916 39.4582 122.584 43.8195 124.666C44.0205 124.759 44.3453 125.021 44.4535 124.62C44.5618 124.204 44.3143 123.849 43.8504 123.803C42.9843 123.726 42.2884 123.34 41.6079 122.847C39.3036 121.196 38.0509 118.914 37.4478 116.199C36.7982 113.207 36.2724 110.2 35.793 107.177C35.762 106.961 35.5764 106.684 35.8084 106.529C36.0249 106.391 36.2415 106.607 36.4425 106.714C40.5872 109.074 43.3091 112.544 44.4535 117.202C44.8247 118.698 45.1031 120.225 44.8247 121.782C44.7938 121.937 44.8092 122.091 44.8092 122.245C44.8092 124.867 45.0257 125.191 47.4383 126.147C49.8973 127.119 52.4182 127.797 55.0318 128.245C55.4648 128.322 55.9133 128.383 56.2381 128.707C56.4701 128.939 56.6093 129.232 56.4701 129.54C56.3154 129.848 56.0216 129.71 55.7896 129.663C52.9131 129.262 50.1448 128.476 47.4074 127.535C45.5206 126.887 44.6391 127.15 43.5101 128.784C42.4585 130.311 40.9584 131.144 39.2417 131.638C35.1898 132.779 31.2307 132.301 27.3334 130.866C26.4364 130.543 25.6013 130.08 24.8435 129.494C24.4105 129.154 24.4105 128.861 24.8435 128.507C28.5088 125.576 32.5916 123.834 37.3859 124.235C39.5046 124.404 41.4378 125.206 43.2472 126.27C43.6493 126.517 44.0514 126.779 44.6236 126.625C44.4381 126.24 44.1133 126.193 43.8349 126.07C40.0614 124.296 36.5972 122.06 33.4268 119.33C32.9783 118.945 32.5143 118.575 31.9112 118.451C31.1534 118.297 30.5038 118.343 29.8697 118.96C28.416 120.394 26.5292 120.826 24.5806 120.641C19.8792 120.194 15.8118 118.266 12.4713 114.919C11.0949 113.547 11.1413 113.454 12.9816 112.822C16.1211 111.742 19.2915 111.403 22.5547 112.159C24.9982 112.729 27.1169 113.886 28.88 115.675C29.3749 116.169 29.8543 116.662 30.3492 117.156C30.5348 117.341 30.7203 117.649 31.1843 117.449Z" fill="#C8C8C8"/>
</svg>
