<svg width="590" height="155" viewBox="0 0 590 155" fill="none" xmlns="http://www.w3.org/2000/svg" xmlns:xlink="http://www.w3.org/1999/xlink">
<path d="M78.4934 92.0777H75.9254V98.5938H73.5854V92.0777H71.0054V90.1937H78.4934V92.0777ZM84.4995 98.7618C83.6115 98.7618 82.8115 98.5738 82.0995 98.1978C81.3955 97.8217 80.8395 97.3017 80.4315 96.6377C80.0315 95.9737 79.8315 95.2257 79.8315 94.3937C79.8315 93.5617 80.0315 92.8137 80.4315 92.1497C80.8395 91.4857 81.3955 90.9657 82.0995 90.5897C82.8115 90.2137 83.6115 90.0257 84.4995 90.0257C85.3875 90.0257 86.1835 90.2137 86.8875 90.5897C87.5995 90.9657 88.1555 91.4857 88.5555 92.1497C88.9635 92.8137 89.1675 93.5617 89.1675 94.3937C89.1675 95.2257 88.9635 95.9737 88.5555 96.6377C88.1555 97.3017 87.5995 97.8217 86.8875 98.1978C86.1835 98.5738 85.3875 98.7618 84.4995 98.7618ZM84.4995 96.7937C84.9235 96.7937 85.3075 96.6937 85.6515 96.4937C85.9955 96.2937 86.2675 96.0137 86.4675 95.6537C86.6675 95.2857 86.7675 94.8657 86.7675 94.3937C86.7675 93.9217 86.6675 93.5057 86.4675 93.1457C86.2675 92.7777 85.9955 92.4937 85.6515 92.2937C85.3075 92.0937 84.9235 91.9937 84.4995 91.9937C84.0755 91.9937 83.6915 92.0937 83.3475 92.2937C83.0035 92.4937 82.7315 92.7777 82.5315 93.1457C82.3315 93.5057 82.2315 93.9217 82.2315 94.3937C82.2315 94.8657 82.3315 95.2857 82.5315 95.6537C82.7315 96.0137 83.0035 96.2937 83.3475 96.4937C83.6915 96.6937 84.0755 96.7937 84.4995 96.7937ZM99.2219 90.1937V98.5938H96.8699V92.0777H93.6779V98.5938H91.3379V90.1937H99.2219ZM108.962 93.2537C110.138 93.2537 111.006 93.4937 111.566 93.9737C112.134 94.4537 112.418 95.0937 112.418 95.8937C112.418 96.4137 112.282 96.8937 112.01 97.3337C111.746 97.7657 111.338 98.1137 110.786 98.3777C110.242 98.6337 109.566 98.7618 108.758 98.7618C108.166 98.7618 107.578 98.6898 106.994 98.5457C106.418 98.4017 105.922 98.1977 105.506 97.9337L106.358 96.1457C106.694 96.3697 107.062 96.5417 107.462 96.6617C107.87 96.7817 108.278 96.8417 108.686 96.8417C109.094 96.8417 109.418 96.7657 109.658 96.6137C109.906 96.4537 110.03 96.2337 110.03 95.9537C110.03 95.6737 109.91 95.4617 109.67 95.3177C109.43 95.1737 109.006 95.1017 108.398 95.1017H106.118L106.538 90.1937H111.89V92.0297H108.506L108.398 93.2537H108.962ZM117.715 98.7618C116.995 98.7618 116.355 98.5897 115.795 98.2457C115.235 97.9017 114.795 97.4017 114.475 96.7457C114.163 96.0817 114.007 95.2977 114.007 94.3937C114.007 93.4897 114.163 92.7097 114.475 92.0537C114.795 91.3897 115.235 90.8857 115.795 90.5417C116.355 90.1977 116.995 90.0257 117.715 90.0257C118.427 90.0257 119.063 90.1977 119.623 90.5417C120.183 90.8857 120.619 91.3897 120.931 92.0537C121.251 92.7097 121.411 93.4897 121.411 94.3937C121.411 95.2977 121.251 96.0817 120.931 96.7457C120.619 97.4017 120.183 97.9017 119.623 98.2457C119.063 98.5897 118.427 98.7618 117.715 98.7618ZM117.715 96.8177C118.115 96.8177 118.431 96.6257 118.663 96.2417C118.903 95.8497 119.023 95.2337 119.023 94.3937C119.023 93.5537 118.903 92.9417 118.663 92.5577C118.431 92.1657 118.115 91.9697 117.715 91.9697C117.307 91.9697 116.983 92.1657 116.743 92.5577C116.511 92.9417 116.395 93.5537 116.395 94.3937C116.395 95.2337 116.511 95.8497 116.743 96.2417C116.983 96.6257 117.307 96.8177 117.715 96.8177Z" fill="#413847"/>
<path d="M51.3232 108.666C50.9912 108.666 50.6692 108.622 50.3572 108.534C50.0492 108.442 49.8012 108.324 49.6132 108.18L49.9432 107.448C50.1232 107.58 50.3372 107.686 50.5852 107.766C50.8332 107.846 51.0812 107.886 51.3292 107.886C51.6052 107.886 51.8092 107.846 51.9412 107.766C52.0732 107.682 52.1392 107.572 52.1392 107.436C52.1392 107.336 52.0992 107.254 52.0192 107.19C51.9432 107.122 51.8432 107.068 51.7192 107.028C51.5992 106.988 51.4352 106.944 51.2272 106.896C50.9072 106.82 50.6452 106.744 50.4412 106.668C50.2372 106.592 50.0612 106.47 49.9132 106.302C49.7692 106.134 49.6972 105.91 49.6972 105.63C49.6972 105.386 49.7632 105.166 49.8952 104.97C50.0272 104.77 50.2252 104.612 50.4892 104.496C50.7572 104.38 51.0832 104.322 51.4672 104.322C51.7352 104.322 51.9972 104.354 52.2532 104.418C52.5092 104.482 52.7332 104.574 52.9252 104.694L52.6252 105.432C52.2372 105.212 51.8492 105.102 51.4612 105.102C51.1892 105.102 50.9872 105.146 50.8552 105.234C50.7272 105.322 50.6632 105.438 50.6632 105.582C50.6632 105.726 50.7372 105.834 50.8852 105.906C51.0372 105.974 51.2672 106.042 51.5752 106.11C51.8952 106.186 52.1572 106.262 52.3612 106.338C52.5652 106.414 52.7392 106.534 52.8832 106.698C53.0312 106.862 53.1052 107.084 53.1052 107.364C53.1052 107.604 53.0372 107.824 52.9012 108.024C52.7692 108.22 52.5692 108.376 52.3012 108.492C52.0332 108.608 51.7072 108.666 51.3232 108.666ZM57.4713 107.814V108.594H54.2193V104.394H57.3933V105.174H55.1853V106.086H57.1353V106.842H55.1853V107.814H57.4713ZM60.717 108.666C60.281 108.666 59.887 108.572 59.535 108.384C59.187 108.196 58.913 107.938 58.713 107.61C58.517 107.278 58.419 106.906 58.419 106.494C58.419 106.082 58.517 105.712 58.713 105.384C58.913 105.052 59.187 104.792 59.535 104.604C59.887 104.416 60.281 104.322 60.717 104.322C61.153 104.322 61.545 104.416 61.893 104.604C62.241 104.792 62.515 105.052 62.715 105.384C62.915 105.712 63.015 106.082 63.015 106.494C63.015 106.906 62.915 107.278 62.715 107.61C62.515 107.938 62.241 108.196 61.893 108.384C61.545 108.572 61.153 108.666 60.717 108.666ZM60.717 107.838C60.965 107.838 61.189 107.782 61.389 107.67C61.589 107.554 61.745 107.394 61.857 107.19C61.973 106.986 62.031 106.754 62.031 106.494C62.031 106.234 61.973 106.002 61.857 105.798C61.745 105.594 61.589 105.436 61.389 105.324C61.189 105.208 60.965 105.15 60.717 105.15C60.469 105.15 60.245 105.208 60.045 105.324C59.845 105.436 59.687 105.594 59.571 105.798C59.459 106.002 59.403 106.234 59.403 106.494C59.403 106.754 59.459 106.986 59.571 107.19C59.687 107.394 59.845 107.554 60.045 107.67C60.245 107.782 60.469 107.838 60.717 107.838ZM64.0329 106.53H65.7309V107.28H64.0329V106.53ZM68.6334 106.902H67.9614V108.594H66.9954V104.394H67.9614V106.092H68.6574L69.7614 104.394H70.7874L69.4134 106.422L70.8294 108.594H69.7254L68.6334 106.902ZM73.7212 108.666C73.2852 108.666 72.8912 108.572 72.5392 108.384C72.1912 108.196 71.9172 107.938 71.7172 107.61C71.5212 107.278 71.4232 106.906 71.4232 106.494C71.4232 106.082 71.5212 105.712 71.7172 105.384C71.9172 105.052 72.1912 104.792 72.5392 104.604C72.8912 104.416 73.2852 104.322 73.7212 104.322C74.1572 104.322 74.5492 104.416 74.8972 104.604C75.2452 104.792 75.5192 105.052 75.7192 105.384C75.9192 105.712 76.0192 106.082 76.0192 106.494C76.0192 106.906 75.9192 107.278 75.7192 107.61C75.5192 107.938 75.2452 108.196 74.8972 108.384C74.5492 108.572 74.1572 108.666 73.7212 108.666ZM73.7212 107.838C73.9692 107.838 74.1932 107.782 74.3932 107.67C74.5932 107.554 74.7492 107.394 74.8612 107.19C74.9772 106.986 75.0352 106.754 75.0352 106.494C75.0352 106.234 74.9772 106.002 74.8612 105.798C74.7492 105.594 74.5932 105.436 74.3932 105.324C74.1932 105.208 73.9692 105.15 73.7212 105.15C73.4732 105.15 73.2492 105.208 73.0492 105.324C72.8492 105.436 72.6912 105.594 72.5752 105.798C72.4632 106.002 72.4072 106.234 72.4072 106.494C72.4072 106.754 72.4632 106.986 72.5752 107.19C72.6912 107.394 72.8492 107.554 73.0492 107.67C73.2492 107.782 73.4732 107.838 73.7212 107.838ZM81.0399 108.594L81.0339 106.08L79.7979 108.15H79.3659L78.1299 106.128V108.594H77.2179V104.394H78.0219L79.5939 107.004L81.1419 104.394H81.9459L81.9519 108.594H81.0399ZM87.2733 104.394V108.594H86.3073V105.186H84.4113V108.594H83.4453V104.394H87.2733ZM91.6084 107.694H89.6584L89.2864 108.594H88.2904L90.1624 104.394H91.1224L93.0004 108.594H91.9804L91.6084 107.694ZM91.3024 106.956L90.6364 105.348L89.9704 106.956H91.3024ZM97.8594 104.394V108.594H96.8874V106.872H94.9794V108.594H94.0074V104.394H94.9794V106.05H96.8874V104.394H97.8594ZM99.3617 104.394H100.328V107.13L102.332 104.394H103.244V108.594H102.284V105.864L100.28 108.594H99.3617V104.394ZM104.739 104.394H105.705V107.13L107.709 104.394H108.621V108.594H107.661V105.864L105.657 108.594H104.739V104.394ZM106.677 104.124C105.909 104.124 105.521 103.818 105.513 103.206H106.179C106.187 103.498 106.353 103.644 106.677 103.644C106.837 103.644 106.959 103.608 107.043 103.536C107.127 103.46 107.171 103.35 107.175 103.206H107.841C107.837 103.506 107.739 103.734 107.547 103.89C107.355 104.046 107.065 104.124 106.677 104.124ZM116.088 108.594L116.082 106.08L114.846 108.15H114.414L113.178 106.128V108.594H112.266V104.394H113.07L114.642 107.004L116.19 104.394H116.994L117 108.594H116.088ZM120.498 108.666C120.062 108.666 119.668 108.572 119.316 108.384C118.968 108.196 118.694 107.938 118.494 107.61C118.298 107.278 118.2 106.906 118.2 106.494C118.2 106.082 118.298 105.712 118.494 105.384C118.694 105.052 118.968 104.792 119.316 104.604C119.668 104.416 120.062 104.322 120.498 104.322C120.934 104.322 121.326 104.416 121.674 104.604C122.022 104.792 122.296 105.052 122.496 105.384C122.696 105.712 122.796 106.082 122.796 106.494C122.796 106.906 122.696 107.278 122.496 107.61C122.296 107.938 122.022 108.196 121.674 108.384C121.326 108.572 120.934 108.666 120.498 108.666ZM120.498 107.838C120.746 107.838 120.97 107.782 121.17 107.67C121.37 107.554 121.526 107.394 121.638 107.19C121.754 106.986 121.812 106.754 121.812 106.494C121.812 106.234 121.754 106.002 121.638 105.798C121.526 105.594 121.37 105.436 121.17 105.324C120.97 105.208 120.746 105.15 120.498 105.15C120.25 105.15 120.026 105.208 119.826 105.324C119.626 105.436 119.468 105.594 119.352 105.798C119.24 106.002 119.184 106.234 119.184 106.494C119.184 106.754 119.24 106.986 119.352 107.19C119.468 107.394 119.626 107.554 119.826 107.67C120.026 107.782 120.25 107.838 120.498 107.838ZM125.981 108.666C125.553 108.666 125.165 108.574 124.817 108.39C124.473 108.202 124.201 107.944 124.001 107.616C123.805 107.284 123.707 106.91 123.707 106.494C123.707 106.078 123.805 105.706 124.001 105.378C124.201 105.046 124.473 104.788 124.817 104.604C125.165 104.416 125.555 104.322 125.987 104.322C126.351 104.322 126.679 104.386 126.971 104.514C127.267 104.642 127.515 104.826 127.715 105.066L127.091 105.642C126.807 105.314 126.455 105.15 126.035 105.15C125.775 105.15 125.543 105.208 125.339 105.324C125.135 105.436 124.975 105.594 124.859 105.798C124.747 106.002 124.691 106.234 124.691 106.494C124.691 106.754 124.747 106.986 124.859 107.19C124.975 107.394 125.135 107.554 125.339 107.67C125.543 107.782 125.775 107.838 126.035 107.838C126.455 107.838 126.807 107.672 127.091 107.34L127.715 107.916C127.515 108.16 127.267 108.346 126.971 108.474C126.675 108.602 126.345 108.666 125.981 108.666ZM130.424 106.902H129.752V108.594H128.786V104.394H129.752V106.092H130.448L131.552 104.394H132.578L131.204 106.422L132.62 108.594H131.516L130.424 106.902ZM136.435 106.404C136.691 106.48 136.887 106.604 137.023 106.776C137.159 106.948 137.227 107.16 137.227 107.412C137.227 107.784 137.085 108.074 136.801 108.282C136.521 108.49 136.119 108.594 135.595 108.594H133.525V104.394H135.481C135.969 104.394 136.349 104.488 136.621 104.676C136.893 104.864 137.029 105.132 137.029 105.48C137.029 105.688 136.977 105.872 136.873 106.032C136.769 106.188 136.623 106.312 136.435 106.404ZM134.491 106.134H135.397C135.609 106.134 135.769 106.092 135.877 106.008C135.985 105.92 136.039 105.792 136.039 105.624C136.039 105.46 135.983 105.334 135.871 105.246C135.763 105.158 135.605 105.114 135.397 105.114H134.491V106.134ZM135.559 107.874C136.015 107.874 136.243 107.694 136.243 107.334C136.243 106.986 136.015 106.812 135.559 106.812H134.491V107.874H135.559ZM140.48 105.774C140.992 105.774 141.384 105.888 141.656 106.116C141.932 106.344 142.07 106.682 142.07 107.13C142.07 107.606 141.918 107.97 141.614 108.222C141.314 108.47 140.89 108.594 140.342 108.594H138.446V104.394H139.412V105.774H140.48ZM140.288 107.874C140.54 107.874 140.736 107.812 140.876 107.688C141.02 107.564 141.092 107.384 141.092 107.148C141.092 106.712 140.824 106.494 140.288 106.494H139.412V107.874H140.288ZM142.604 104.394H143.57V108.594H142.604V104.394Z" fill="#797180"/>
<path d="M172.724 104.461C173.219 104.245 173.451 103.844 173.668 103.397C175.168 100.451 177.07 97.8294 179.838 95.917C182.684 93.9429 185.823 92.9867 189.303 93.1409C189.906 93.1717 189.968 93.4031 189.829 93.9274C189.226 96.0249 188.128 97.8294 186.751 99.4796C185.066 101.515 183.272 103.412 180.844 104.585C178.756 105.587 176.622 106.065 174.348 105.14C173.281 104.708 172.198 105.232 171.41 106.451C168.843 110.43 165.95 114.116 162.61 117.447C162.564 117.493 162.533 117.57 162.502 117.648C162.997 117.678 162.997 117.678 163.445 117.247C164.234 116.475 164.976 115.627 165.842 114.949C169.245 112.265 173.142 111.556 177.364 112.203C178.694 112.404 179.978 112.789 181.246 113.237C182.251 113.591 182.328 113.838 181.617 114.686C180.24 116.321 178.508 117.524 176.637 118.557C174.302 119.838 171.827 120.655 169.167 120.871C167.172 121.025 165.332 120.609 163.785 119.221C162.765 118.295 161.527 118.403 160.321 119.467C159.161 120.485 157.939 121.426 156.671 122.321C154.522 123.847 152.233 125.128 149.867 126.284C149.588 126.423 149.279 126.5 149.001 126.824C149.464 127.025 149.805 126.839 150.145 126.639C151.568 125.806 153.068 125.112 154.692 124.757C158.682 123.878 162.363 124.742 165.842 126.716C166.878 127.302 167.822 127.996 168.765 128.736C169.245 129.107 169.26 129.369 168.781 129.739C168.147 130.217 167.482 130.695 166.724 130.957C162.687 132.361 158.604 133.101 154.382 131.852C152.527 131.297 150.965 130.325 149.867 128.675C149.109 127.533 148.026 127.163 146.696 127.626C144.144 128.521 141.546 129.276 138.871 129.77C138.546 129.831 138.206 129.893 137.881 129.939C137.603 129.986 137.278 130.094 137.17 129.708C137.077 129.384 137.216 129.091 137.463 128.891C137.819 128.598 138.268 128.567 138.701 128.49C141.732 127.95 144.655 127.04 147.5 125.883C148.212 125.59 148.583 125.143 148.66 124.403C148.738 123.616 148.769 122.83 148.738 122.028C148.521 117.894 149.867 114.239 152.387 111C153.702 109.304 155.326 107.993 157.213 106.96C157.568 106.759 158.001 106.559 157.878 107.314C157.274 110.877 156.934 114.501 155.759 117.956C155.047 120.038 153.826 121.75 152.063 123.061C151.398 123.554 150.702 123.986 149.82 124.017C149.495 124.033 149.279 124.187 149.217 124.511C149.171 124.696 149.016 124.927 149.217 125.081C149.372 125.205 149.557 125.035 149.712 124.958C153.888 122.968 157.646 120.408 161.079 117.324C162.332 116.198 162.409 114.918 161.914 113.545C160.275 108.887 160.584 104.291 162.301 99.7572C163.043 97.7985 164.126 96.0249 165.487 94.4055C165.657 94.205 165.827 93.8503 166.136 93.9429C166.43 94.02 166.306 94.3901 166.337 94.6215C166.631 97.3204 166.987 100.019 167.203 102.734C167.42 105.633 167.497 108.548 165.889 111.201C165.193 112.327 164.466 113.406 163.26 114.054C162.966 114.208 162.796 114.455 162.765 114.779C162.749 115.026 162.517 115.334 162.796 115.473C163.074 115.612 163.229 115.257 163.399 115.087C166.461 111.833 169.136 108.301 171.441 104.477C172.106 103.366 172.106 102.364 171.626 101.269C171.394 100.729 171.131 100.189 170.807 99.6955C169.245 97.3976 168.564 94.8065 168.208 92.1076C167.698 88.1902 168.379 84.4271 169.91 80.8182C170.002 80.5868 170.049 80.2321 170.327 80.2167C170.652 80.1858 170.652 80.556 170.745 80.7873C172.106 84.1803 173.59 87.527 174.364 91.1051C174.936 93.7578 174.859 96.3642 173.776 98.8935C173.513 99.495 173.142 100.004 172.74 100.513C172.322 101.037 172.291 101.562 172.616 102.364C173.126 101.346 173.575 100.482 173.992 99.5876C175.879 95.6239 177.302 91.5061 178.446 87.2803C178.849 85.7843 178.323 84.6738 177.41 83.6251C176.467 82.5455 175.183 81.7898 174.348 80.5868C171.997 77.2093 170.667 73.4924 170.497 69.3745C170.435 67.8631 170.482 66.3363 170.698 64.8403C170.729 64.6244 170.698 64.3005 170.946 64.2388C171.209 64.1617 171.317 64.4701 171.441 64.6552C173.451 67.4313 175.694 70.0223 177.426 72.9835C178.539 74.8959 179.266 76.9471 179.421 79.1679C179.514 80.4326 179.313 81.6973 178.678 82.8231C178.292 83.5171 178.4 84.0878 178.895 84.6276C179.173 84.5813 179.127 84.3654 179.158 84.2112C179.838 80.7565 180.333 77.271 180.565 73.7546C180.658 72.2586 180.658 70.778 180.704 69.282C180.751 67.7552 180.008 66.6293 178.709 66.0741C172.879 63.5139 170.435 58.5941 169.245 52.7797C169.044 51.8081 168.904 50.8056 168.92 49.8032C168.92 49.6489 168.904 49.4793 169.059 49.3867C169.229 49.3096 169.337 49.4484 169.461 49.541C171.765 51.4688 174.286 53.1653 176.374 55.3553C178.663 57.7458 180.024 60.5682 180.039 63.9303C180.039 64.4393 179.931 64.9482 179.885 65.4572C179.869 65.6577 179.838 65.8736 179.885 66.0587C179.978 66.3517 180.179 66.7373 180.472 66.7064C180.844 66.6756 180.673 66.2437 180.673 65.997C180.534 60.7378 179.854 55.5558 178.632 50.4355C178.4 49.4484 177.178 48.4614 176.034 48.4614C172.508 48.4305 169.971 46.5336 167.714 44.143C165.734 42.0456 164.481 39.5162 163.631 36.7864C163.553 36.5551 163.337 36.2775 163.569 36.077C163.77 35.8919 164.002 36.1078 164.203 36.2004C167.049 37.3879 170.002 38.4058 172.662 39.9789C175.446 41.6446 177.07 44.0968 177.116 47.4281C177.132 48.0604 177.395 48.4305 177.998 48.6156C178.23 48.3689 178.06 48.1221 177.998 47.8907C176.699 43.2331 175.075 38.6834 172.956 34.3188C172.523 33.4243 171.688 33.3626 170.899 33.1775C170.59 33.1004 170.219 33.1467 169.91 33.2392C167.018 34.1337 164.404 33.3009 161.93 31.8666C159.641 30.5402 157.909 28.6124 156.517 26.3607C156.408 26.191 156.254 26.0214 156.362 25.79C156.455 25.6204 156.625 25.6667 156.78 25.6821C159.037 25.8363 161.311 25.8055 163.553 26.2219C165.657 26.6074 167.652 27.1935 169.198 28.8283C170.018 29.7074 170.559 30.6945 170.807 31.8512C170.946 32.5298 171.301 32.8845 172.106 32.8228C171.642 31.5427 170.946 30.4477 170.296 29.3218C168.904 26.8851 167.358 24.5408 165.672 22.3045C164.976 21.3946 164.064 21.1015 162.966 21.4871C161.945 21.8418 160.986 22.3662 159.904 22.5204C156.455 23.0294 153.455 21.9806 150.748 19.8832C149.975 19.2817 149.31 18.5722 148.691 17.8011C148.475 17.5235 148.243 17.1533 148.799 17.0608C151.8 16.5981 154.769 15.8116 157.831 16.3359C160.074 16.7215 161.775 17.8936 162.904 19.8832C163.12 20.2533 163.306 20.6697 163.754 20.8394C163.925 20.9011 164.126 20.9936 164.265 20.8239C164.419 20.6389 164.265 20.4846 164.157 20.3458C163.615 19.6827 163.089 19.0195 162.517 18.3872C160.878 16.5673 159.223 14.7782 157.336 13.2051C156.81 12.7579 156.254 12.5111 155.527 12.4494C151.769 12.141 148.985 10.1669 146.774 7.25198C145.567 5.6326 144.717 3.76645 144.129 1.77693C144.067 1.56101 143.897 1.29882 144.067 1.11375C144.268 0.897835 144.485 1.16002 144.686 1.23713C146.758 2.03911 148.892 2.6406 150.887 3.62765C152.836 4.59928 154.506 5.87936 155.728 7.71466C156.486 8.87136 156.903 10.1052 156.888 11.4778C156.888 11.9251 156.965 12.2952 157.336 12.6345C160.569 15.5648 163.538 18.7265 166.198 22.1811C166.368 22.3971 166.476 22.6747 166.832 22.798C166.971 22.1811 166.724 21.6876 166.353 21.2712C163.074 17.7394 161.574 13.4519 161.141 8.7634C160.94 6.63507 160.971 4.50674 161.326 2.37841C161.435 1.73066 161.636 1.71524 162.084 2.14707C165.966 5.89478 168.394 10.3674 168.92 15.7653C169.105 17.616 168.858 19.4205 167.683 21.0399C166.817 22.212 167.296 23.5075 168.023 24.5717C169.631 26.9313 171.162 29.3373 172.539 31.8512C173.405 33.4551 174.209 35.0899 175.075 36.8018C175.307 36.2004 175.091 35.7223 174.828 35.2596C173.652 33.1158 172.848 30.8333 172.492 28.4273C171.827 24.0164 172.26 19.7135 174.147 15.6265C174.255 15.3797 174.317 15.0096 174.627 14.9633C174.982 14.9171 175.09 15.3026 175.245 15.5648C176.931 18.3717 177.642 21.518 178.261 24.6642C178.771 27.3015 178.988 29.9542 178.292 32.6069C178.013 33.6556 177.58 34.6427 176.807 35.3675C175.585 36.5242 175.678 37.9431 176.142 39.2232C177.658 43.4644 179.111 47.7211 179.993 52.1474C180.008 52.2091 180.07 52.2708 180.132 52.3787C180.519 51.8698 180.395 51.3454 180.256 50.8365C179.653 48.6465 179.282 46.4102 179.22 44.143C179.127 40.3953 179.9 36.8481 181.895 33.6093C182.437 32.7302 183.04 31.8974 183.658 31.08C183.813 30.8795 183.906 30.5402 184.184 30.5711C184.462 30.6019 184.478 30.9566 184.571 31.188C185.174 32.8074 185.483 34.5193 185.622 36.2312C185.885 39.47 185.885 42.6933 185.189 45.8858C184.942 47.0271 184.617 48.1221 184.029 49.14C183.566 49.9265 182.993 50.5897 182.189 51.0678C180.704 51.9469 180.333 53.4738 180.519 54.9543C180.952 58.4244 181.416 61.8791 181.524 65.3801C181.57 66.5676 181.586 67.7706 181.663 69.1278C182.174 68.6959 182.096 68.2487 182.096 67.8477C182.081 65.5343 182.019 63.2209 182.56 60.9383C183.705 56.0956 186.272 52.1782 190.2 49.14C190.37 49.0012 190.556 48.7544 190.803 48.8778C191.082 49.0012 191.035 49.3096 191.066 49.5564C191.453 54.5688 190.386 59.319 188.391 63.8686C187.695 65.4572 186.674 66.8606 185.236 67.894C184.803 68.2178 184.323 68.5263 183.782 68.6034C182.174 68.8656 181.725 70.1611 181.679 71.3641C181.493 76.361 180.967 81.2963 179.885 86.1853C179.869 86.2469 179.885 86.3241 179.885 86.54C180.256 86.1081 180.318 85.6763 180.395 85.2753C181.679 78.9829 185.097 74.2327 190.741 71.1327C191.375 70.778 192.04 70.5158 192.736 70.2845C193.324 70.084 193.541 70.2999 193.541 70.886C193.541 71.9656 193.247 72.968 192.922 73.9705C191.654 77.7953 189.891 81.3425 187.03 84.2574C185.437 85.8768 183.612 87.0027 181.215 86.8022C180.735 86.7559 180.364 86.9872 180.101 87.3574C179.622 88.0206 179.22 88.7146 178.957 89.532C177.426 94.4827 175.431 99.2483 172.91 103.783C172.833 103.998 172.632 104.168 172.724 104.461Z" fill="#C8C8C8"/>
<path d="M31.1843 117.709C30.3801 116.83 29.6068 115.997 28.8336 115.149C26.5138 112.651 24.4724 109.952 22.6474 107.083C22.3536 106.636 22.1371 106.127 21.6886 105.788C20.8225 105.14 20.0029 104.801 18.8121 105.263C16.5077 106.142 14.2498 105.51 12.2393 104.292C8.55856 102.04 5.85213 98.8937 4.13548 94.9301C3.39314 93.1873 3.455 93.1411 5.31084 93.1565C9.02251 93.1873 12.2238 94.5291 15.054 96.9042C17.1727 98.6778 18.6574 100.899 19.8792 103.335C20.1111 103.798 20.3895 104.215 20.9617 104.538C20.8999 104.014 20.606 103.706 20.4204 103.366C18.0697 98.9554 16.1056 94.3749 14.6674 89.5784C14.59 89.3317 14.5127 89.0849 14.4354 88.8381C14.2343 88.2058 13.7394 87.7586 13.3992 87.2188C12.9352 86.4785 12.2548 86.864 11.6516 86.8178C9.82671 86.6944 8.28018 85.9232 6.98109 84.674C4.39839 82.2372 2.71267 79.2144 1.39812 75.9756C0.841367 74.5876 0.392873 73.1687 0.114497 71.7035C0.0217053 71.2563 -0.132948 70.7011 0.222754 70.3772C0.609387 70.0225 1.11974 70.3926 1.50637 70.5777C7.04295 73.0453 10.7392 77.1632 12.5641 82.9313C12.8424 83.7795 13.0126 84.674 13.2291 85.5377C13.3219 85.877 13.3683 86.2317 13.8013 86.6481C13.5538 85.4143 13.3373 84.381 13.1363 83.3322C12.5795 80.3711 12.2702 77.3945 12.0846 74.3871C11.9919 72.7985 12.3012 71.1175 11.3423 69.6523C11.1103 69.2976 10.8938 68.9583 10.4608 68.8503C8.15646 68.3105 6.78004 66.7066 5.69747 64.7633C4.05815 61.7868 3.25395 58.548 2.7436 55.2321C2.46522 53.3814 2.3415 51.5153 2.55802 49.6337C2.58895 49.3869 2.54255 49.0785 2.79 48.9242C3.08384 48.7546 3.26942 49.0476 3.455 49.1864C8.54309 53.2272 11.3578 58.4246 11.5279 64.9638C11.5588 65.9971 11.5124 67.015 11.5279 68.0484C11.5279 68.3877 11.4815 68.7732 11.8681 69.0508C12.0692 68.727 11.9764 68.3877 11.9919 68.0792C12.0846 64.1773 12.3166 60.2753 12.9352 56.4197C13.1363 55.1704 13.2445 54.0137 12.8115 52.7953C12.6105 52.1938 12.363 51.7157 11.8372 51.3764C10.136 50.3277 9.1617 48.7546 8.68228 46.8884C7.95541 44.0353 7.75436 41.1204 7.90901 38.1746C8.03273 35.9538 8.21832 33.7637 8.91426 31.6508C8.96065 31.512 9.00705 31.3578 9.06891 31.219C9.33182 30.5558 9.48647 30.525 9.93497 31.0802C12.131 33.7637 13.6002 36.7712 14.157 40.2104C14.7447 43.7576 14.2962 47.2277 13.4456 50.667C13.3064 51.2376 13.1054 51.8083 13.492 52.4098C13.7704 52.2093 13.724 51.9008 13.7858 51.6541C14.6055 47.6442 15.8427 43.7422 17.3583 39.9482C17.6986 39.1 17.7759 38.2517 17.8068 37.3881C17.8223 36.91 17.7913 36.401 17.4047 36.0155C15.2396 33.8409 14.7911 31.111 14.9921 28.2424C15.255 24.4176 16.1056 20.7316 17.5903 17.1844C17.8687 16.5366 18.2244 15.9506 18.5801 15.3491C18.9048 14.8247 19.1678 14.871 19.4152 15.4262C20.6524 18.048 21.3329 20.7933 21.4412 23.6773C21.5958 27.826 20.8225 31.7588 18.7811 35.3985C18.4718 35.9538 18.4718 36.0771 18.4718 37.1567C18.7502 36.5861 18.9358 36.1697 19.1368 35.7687C21.0081 31.8668 23.1733 28.1345 25.6786 24.5872C26.6375 23.2455 26.5756 22.0271 25.725 20.6236C24.5961 18.7421 24.5188 16.6754 24.8745 14.5779C25.6786 9.7969 27.9211 5.78701 31.3544 2.39402C31.5555 2.20894 31.7411 1.86965 32.0349 1.96218C32.3751 2.07014 32.3597 2.47113 32.3906 2.76416C32.9628 7.97703 32.4679 13.0202 29.8852 17.7242C29.2202 18.958 28.3696 20.053 27.4417 21.0863C27.0396 21.5336 26.7612 21.9808 26.9004 22.5823C27.1788 22.6748 27.2406 22.4743 27.3489 22.3355C29.2511 19.8679 31.308 17.5237 33.4577 15.2874C34.3547 14.362 35.329 13.5138 36.2878 12.6655C36.5662 12.4033 36.7673 12.1566 36.7673 11.7556C36.7827 8.37802 38.6695 6.15715 41.3295 4.44523C43.0462 3.3348 45.0257 2.74874 46.9125 2.02387C47.6085 1.74626 48.2889 1.45323 48.9849 1.1602C49.1705 1.08309 49.3715 0.898016 49.5571 1.05224C49.7427 1.20647 49.6189 1.43781 49.5725 1.6383C48.8766 4.12136 47.7167 6.37307 46.0001 8.31633C43.9432 10.6452 41.4223 12.1412 38.2829 12.3879C36.8137 12.5113 35.9476 13.5292 35.0042 14.3929C33.0556 16.1665 31.3235 18.1406 29.6687 20.1764C29.514 20.3614 29.1274 20.6236 29.4367 20.855C29.6842 21.04 30.1017 20.8704 30.3182 20.5619C30.5038 20.2843 30.6275 19.9759 30.7977 19.6828C32.1895 17.2615 34.4939 16.4287 37.0766 16.2127C39.6438 15.9968 42.1492 16.6137 44.6546 17.0456C45.1804 17.1381 45.3351 17.3694 44.9639 17.8167C42.474 20.7779 39.3964 22.5823 35.4373 22.6748C33.8289 22.7057 32.3287 22.351 30.9059 21.5644C30.0399 21.0709 28.7253 21.3331 28.1222 22.1196C25.7096 25.3121 23.5754 28.6588 21.7659 32.2369C21.6731 32.422 21.5339 32.5762 21.5958 32.8538C22.168 32.8384 22.6474 32.6842 22.7866 32.0364C23.4671 28.9056 25.6941 27.3942 28.5552 26.5459C30.0708 26.0987 31.6483 26.0678 33.2257 25.929C34.3856 25.8211 35.53 25.7594 36.6899 25.6823C36.891 25.6668 37.123 25.5897 37.2622 25.7748C37.4168 25.9753 37.2622 26.1758 37.1539 26.3454C34.9888 29.723 32.2359 32.3294 28.184 33.3165C26.622 33.7021 25.0755 33.6866 23.529 33.2239C22.3845 32.8692 21.1628 33.4244 20.637 34.4886C18.4873 38.807 16.9253 43.3567 15.6262 47.9835C15.5798 48.1685 15.4715 48.369 15.5953 48.6158C16.3376 48.4461 16.4923 47.9063 16.5232 47.2586C16.616 45.192 17.2655 43.3412 18.7347 41.8144C20.2039 40.2721 22.0288 39.2542 23.9465 38.4368C25.8178 37.6348 27.7201 36.9254 29.6223 36.1851C29.777 36.1234 29.9625 35.9692 30.1172 36.1388C30.2409 36.2622 30.1327 36.4319 30.0863 36.5707C28.648 41.0433 26.2973 44.8218 22.0907 47.2277C20.7607 47.9989 19.3224 48.4616 17.7449 48.4461C16.3221 48.4461 15.2396 49.3869 14.9303 50.7904C13.8941 55.3863 13.2445 60.0286 13.0744 64.7479C13.059 65.2877 12.9816 65.8275 12.9507 66.3519C12.9352 66.4907 12.9198 66.7066 13.1208 66.722C13.2136 66.7374 13.3528 66.6141 13.4147 66.5215C13.8168 66.028 13.7549 65.4419 13.6621 64.9021C13.4147 63.3599 13.6466 61.8793 14.1261 60.4141C14.9767 57.7923 16.6469 55.7102 18.7038 53.9366C20.4204 52.456 22.2299 51.0834 23.9929 49.68C24.1476 49.5566 24.3022 49.3407 24.5188 49.4023C24.7817 49.4795 24.7043 49.7416 24.6889 49.9421C24.3177 55.7565 22.3691 60.8151 17.6986 64.5783C17.049 65.1026 16.3067 65.4419 15.5334 65.7504C13.6466 66.5215 12.9352 67.6165 12.9198 69.6523C12.8888 74.4488 13.5075 79.1835 14.4044 83.8875C14.4508 84.1496 14.4044 84.4581 14.7292 84.6894C15.0385 84.2422 15.4097 83.8103 15.1004 83.2397C13.8941 81.1422 14.1106 78.9368 14.6519 76.7313C15.2705 74.2174 16.6778 72.0737 18.178 70.007C19.508 68.1717 20.9153 66.3981 22.2763 64.5937C22.3845 64.4395 22.4619 64.1464 22.7093 64.2235C22.9258 64.2852 22.9104 64.5628 22.9258 64.7633C23.6991 70.809 22.5856 76.3766 18.7038 81.2348C18.147 81.9442 17.482 82.5611 16.7397 83.0855C16.2757 83.4094 15.9046 83.7949 15.6107 84.3039C14.9457 85.4297 14.9612 86.5247 15.3014 87.774C16.6469 92.6013 18.379 97.2589 20.6834 101.701C20.7607 101.855 20.8535 102.009 21.0545 102.333C21.271 101.639 21.4257 101.145 20.9772 100.652C19.5389 99.0479 19.1059 97.0893 18.9667 95.0381C18.7347 91.8147 19.7864 88.8536 20.8689 85.8924C21.5494 84.0263 22.3227 82.2064 23.0495 80.3711C23.0959 80.2631 23.1269 80.1243 23.2815 80.0935C23.498 80.1706 23.5444 80.3865 23.6218 80.5716C24.8281 83.4402 25.6323 86.4014 25.6013 89.5476C25.5549 93.2953 24.7043 96.8271 22.6011 99.9887C22.0288 100.852 21.8123 101.824 21.6422 102.811C21.5649 103.274 21.7505 103.675 21.967 104.06C24.163 107.777 26.6375 111.263 29.6223 114.394C29.9007 114.687 30.1636 115.01 30.442 115.319C30.5502 115.427 30.6585 115.581 30.8286 115.519C31.0606 115.427 30.9523 115.211 30.9214 115.041C30.8595 114.656 30.7977 114.316 30.411 114.07C28.0603 112.589 26.9623 110.307 26.5447 107.685C26.0962 104.816 26.3901 101.947 26.7458 99.0788C26.9313 97.5982 27.1169 96.1176 27.3025 94.6525C27.3334 94.4057 27.2561 94.0818 27.5654 93.9893C27.8129 93.9122 27.9675 94.1898 28.1067 94.3595C30.5193 97.3206 32.0968 100.636 32.5762 104.446C32.9628 107.5 32.8855 110.476 31.772 113.406C31.4317 114.286 31.6173 115.242 31.6483 116.167C31.6637 116.445 31.8493 116.63 32.0349 116.815C35.4991 120.177 39.4582 122.845 43.8195 124.927C44.0205 125.02 44.3453 125.282 44.4535 124.881C44.5618 124.465 44.3143 124.11 43.8504 124.064C42.9843 123.986 42.2884 123.601 41.6079 123.107C39.3036 121.457 38.0509 119.175 37.4478 116.46C36.7982 113.468 36.2724 110.461 35.793 107.438C35.762 107.222 35.5764 106.944 35.8084 106.79C36.0249 106.651 36.2415 106.867 36.4425 106.975C40.5872 109.335 43.3091 112.805 44.4535 117.463C44.8247 118.959 45.1031 120.485 44.8247 122.043C44.7938 122.197 44.8092 122.352 44.8092 122.506C44.8092 125.128 45.0257 125.452 47.4383 126.408C49.8973 127.379 52.4182 128.058 55.0318 128.505C55.4648 128.582 55.9133 128.644 56.2381 128.968C56.4701 129.199 56.6093 129.492 56.4701 129.801C56.3154 130.109 56.0216 129.97 55.7896 129.924C52.9131 129.523 50.1448 128.737 47.4074 127.796C45.5206 127.148 44.6391 127.41 43.5101 129.045C42.4585 130.572 40.9584 131.405 39.2417 131.898C35.1898 133.04 31.2307 132.561 27.3334 131.127C26.4364 130.803 25.6013 130.341 24.8435 129.755C24.4105 129.415 24.4105 129.122 24.8435 128.767C28.5088 125.837 32.5916 124.094 37.3859 124.495C39.5046 124.665 41.4378 125.467 43.2472 126.531C43.6493 126.778 44.0514 127.04 44.6236 126.886C44.4381 126.5 44.1133 126.454 43.8349 126.331C40.0614 124.557 36.5972 122.321 33.4268 119.591C32.9783 119.205 32.5143 118.835 31.9112 118.712C31.1534 118.558 30.5038 118.604 29.8697 119.221C28.416 120.655 26.5292 121.087 24.5806 120.902C19.8792 120.455 15.8118 118.527 12.4713 115.18C11.0949 113.807 11.1413 113.715 12.9816 113.083C16.1211 112.003 19.2915 111.664 22.5547 112.419C24.9982 112.99 27.1169 114.147 28.88 115.936C29.3749 116.429 29.8543 116.923 30.3492 117.416C30.5348 117.601 30.7203 117.91 31.1843 117.709Z" fill="#C8C8C8"/>
<rect x="64.0469" y="19.0288" width="65.4439" height="63.5652" fill="url(#pattern0)"/>
</svg>
