<svg width="590" height="133" viewBox="0 0 590 133" fill="none" xmlns="http://www.w3.org/2000/svg" xmlns:xlink="http://www.w3.org/1999/xlink">
<path d="M64.0158 110.704C64.2598 110.788 64.4498 110.92 64.5858 111.1C64.7258 111.276 64.7958 111.482 64.7958 111.718C64.7958 111.974 64.7118 112.196 64.5438 112.384C64.3758 112.572 64.1478 112.716 63.8598 112.816C63.5758 112.916 63.2638 112.966 62.9238 112.966C62.6358 112.966 62.3478 112.93 62.0598 112.858C61.7758 112.786 61.5058 112.676 61.2498 112.528L61.5498 111.832C61.7338 111.944 61.9358 112.03 62.1558 112.09C62.3798 112.146 62.5978 112.174 62.8098 112.174C63.0978 112.174 63.3358 112.122 63.5238 112.018C63.7158 111.914 63.8118 111.768 63.8118 111.58C63.8118 111.424 63.7458 111.306 63.6138 111.226C63.4858 111.146 63.3098 111.106 63.0858 111.106H62.0598V110.374H63.0138C63.2098 110.374 63.3618 110.334 63.4698 110.254C63.5818 110.174 63.6378 110.064 63.6378 109.924C63.6378 109.76 63.5578 109.632 63.3978 109.54C63.2418 109.448 63.0398 109.402 62.7918 109.402C62.6078 109.402 62.4178 109.428 62.2218 109.48C62.0258 109.528 61.8398 109.602 61.6638 109.702L61.3698 108.946C61.8138 108.718 62.2938 108.604 62.8098 108.604C63.1378 108.604 63.4398 108.652 63.7158 108.748C63.9918 108.844 64.2118 108.984 64.3758 109.168C64.5398 109.352 64.6218 109.566 64.6218 109.81C64.6218 110.01 64.5678 110.188 64.4598 110.344C64.3518 110.5 64.2038 110.62 64.0158 110.704ZM68.0193 112.966C67.5833 112.966 67.1893 112.872 66.8373 112.684C66.4893 112.496 66.2153 112.238 66.0153 111.91C65.8193 111.578 65.7213 111.206 65.7213 110.794C65.7213 110.382 65.8193 110.012 66.0153 109.684C66.2153 109.352 66.4893 109.092 66.8373 108.904C67.1893 108.716 67.5833 108.622 68.0193 108.622C68.4553 108.622 68.8473 108.716 69.1953 108.904C69.5433 109.092 69.8173 109.352 70.0173 109.684C70.2173 110.012 70.3173 110.382 70.3173 110.794C70.3173 111.206 70.2173 111.578 70.0173 111.91C69.8173 112.238 69.5433 112.496 69.1953 112.684C68.8473 112.872 68.4553 112.966 68.0193 112.966ZM68.0193 112.138C68.2673 112.138 68.4913 112.082 68.6913 111.97C68.8913 111.854 69.0473 111.694 69.1593 111.49C69.2753 111.286 69.3333 111.054 69.3333 110.794C69.3333 110.534 69.2753 110.302 69.1593 110.098C69.0473 109.894 68.8913 109.736 68.6913 109.624C68.4913 109.508 68.2673 109.45 68.0193 109.45C67.7713 109.45 67.5473 109.508 67.3473 109.624C67.1473 109.736 66.9893 109.894 66.8733 110.098C66.7613 110.302 66.7053 110.534 66.7053 110.794C66.7053 111.054 66.7613 111.286 66.8733 111.49C66.9893 111.694 67.1473 111.854 67.3473 111.97C67.5473 112.082 67.7713 112.138 68.0193 112.138ZM75.1429 108.694V112.894H74.1829V109.486H72.7429L72.7129 110.362C72.6929 110.958 72.6449 111.442 72.5689 111.814C72.4929 112.182 72.3649 112.466 72.1849 112.666C72.0089 112.862 71.7609 112.96 71.4409 112.96C71.3089 112.96 71.1489 112.938 70.9609 112.894L71.0209 112.072C71.0729 112.088 71.1309 112.096 71.1949 112.096C71.4269 112.096 71.5889 111.96 71.6809 111.688C71.7729 111.412 71.8309 110.982 71.8549 110.398L71.9149 108.694H75.1429ZM78.6458 112.966C78.2098 112.966 77.8158 112.872 77.4638 112.684C77.1158 112.496 76.8418 112.238 76.6418 111.91C76.4458 111.578 76.3478 111.206 76.3478 110.794C76.3478 110.382 76.4458 110.012 76.6418 109.684C76.8418 109.352 77.1158 109.092 77.4638 108.904C77.8158 108.716 78.2098 108.622 78.6458 108.622C79.0818 108.622 79.4738 108.716 79.8218 108.904C80.1698 109.092 80.4438 109.352 80.6438 109.684C80.8438 110.012 80.9438 110.382 80.9438 110.794C80.9438 111.206 80.8438 111.578 80.6438 111.91C80.4438 112.238 80.1698 112.496 79.8218 112.684C79.4738 112.872 79.0818 112.966 78.6458 112.966ZM78.6458 112.138C78.8938 112.138 79.1178 112.082 79.3178 111.97C79.5178 111.854 79.6738 111.694 79.7858 111.49C79.9018 111.286 79.9598 111.054 79.9598 110.794C79.9598 110.534 79.9018 110.302 79.7858 110.098C79.6738 109.894 79.5178 109.736 79.3178 109.624C79.1178 109.508 78.8938 109.45 78.6458 109.45C78.3978 109.45 78.1738 109.508 77.9738 109.624C77.7738 109.736 77.6158 109.894 77.4998 110.098C77.3878 110.302 77.3318 110.534 77.3318 110.794C77.3318 111.054 77.3878 111.286 77.4998 111.49C77.6158 111.694 77.7738 111.854 77.9738 111.97C78.1738 112.082 78.3978 112.138 78.6458 112.138ZM85.294 109.486H83.95V112.894H82.99V109.486H81.652V108.694H85.294V109.486ZM88.2997 112.966C87.8637 112.966 87.4697 112.872 87.1177 112.684C86.7697 112.496 86.4957 112.238 86.2957 111.91C86.0997 111.578 86.0017 111.206 86.0017 110.794C86.0017 110.382 86.0997 110.012 86.2957 109.684C86.4957 109.352 86.7697 109.092 87.1177 108.904C87.4697 108.716 87.8637 108.622 88.2997 108.622C88.7357 108.622 89.1277 108.716 89.4757 108.904C89.8237 109.092 90.0977 109.352 90.2977 109.684C90.4977 110.012 90.5977 110.382 90.5977 110.794C90.5977 111.206 90.4977 111.578 90.2977 111.91C90.0977 112.238 89.8237 112.496 89.4757 112.684C89.1277 112.872 88.7357 112.966 88.2997 112.966ZM88.2997 112.138C88.5477 112.138 88.7717 112.082 88.9717 111.97C89.1717 111.854 89.3277 111.694 89.4397 111.49C89.5557 111.286 89.6137 111.054 89.6137 110.794C89.6137 110.534 89.5557 110.302 89.4397 110.098C89.3277 109.894 89.1717 109.736 88.9717 109.624C88.7717 109.508 88.5477 109.45 88.2997 109.45C88.0517 109.45 87.8277 109.508 87.6277 109.624C87.4277 109.736 87.2697 109.894 87.1537 110.098C87.0417 110.302 86.9857 110.534 86.9857 110.794C86.9857 111.054 87.0417 111.286 87.1537 111.49C87.2697 111.694 87.4277 111.854 87.6277 111.97C87.8277 112.082 88.0517 112.138 88.2997 112.138ZM91.7965 108.694H92.7625V111.43L94.7665 108.694H95.6785V112.894H94.7185V110.164L92.7145 112.894H91.7965V108.694ZM93.7345 108.424C92.9665 108.424 92.5785 108.118 92.5705 107.506H93.2365C93.2445 107.798 93.4105 107.944 93.7345 107.944C93.8945 107.944 94.0165 107.908 94.1005 107.836C94.1845 107.76 94.2285 107.65 94.2325 107.506H94.8985C94.8945 107.806 94.7965 108.034 94.6045 108.19C94.4125 108.346 94.1225 108.424 93.7345 108.424ZM103.151 108.694V112.894H102.185V109.486H100.289V112.894H99.3235V108.694H103.151ZM107.487 111.994H105.537L105.165 112.894H104.169L106.041 108.694H107.001L108.879 112.894H107.859L107.487 111.994ZM107.181 111.256L106.515 109.648L105.849 111.256H107.181ZM111.704 108.694C112.076 108.694 112.398 108.756 112.67 108.88C112.946 109.004 113.158 109.18 113.306 109.408C113.454 109.636 113.528 109.906 113.528 110.218C113.528 110.526 113.454 110.796 113.306 111.028C113.158 111.256 112.946 111.432 112.67 111.556C112.398 111.676 112.076 111.736 111.704 111.736H110.858V112.894H109.886V108.694H111.704ZM111.65 110.944C111.942 110.944 112.164 110.882 112.316 110.758C112.468 110.63 112.544 110.45 112.544 110.218C112.544 109.982 112.468 109.802 112.316 109.678C112.164 109.55 111.942 109.486 111.65 109.486H110.858V110.944H111.65ZM117.712 109.486H116.368V112.894H115.408V109.486H114.07V108.694H117.712V109.486ZM122.624 108.694V112.894H121.652V111.172H119.744V112.894H118.772V108.694H119.744V110.35H121.652V108.694H122.624ZM127.378 112.114V112.894H124.126V108.694H127.3V109.474H125.092V110.386H127.042V111.142H125.092V112.114H127.378ZM130.431 108.694C130.803 108.694 131.125 108.756 131.397 108.88C131.673 109.004 131.885 109.18 132.033 109.408C132.181 109.636 132.255 109.906 132.255 110.218C132.255 110.526 132.181 110.796 132.033 111.028C131.885 111.256 131.673 111.432 131.397 111.556C131.125 111.676 130.803 111.736 130.431 111.736H129.585V112.894H128.613V108.694H130.431ZM130.377 110.944C130.669 110.944 130.891 110.882 131.043 110.758C131.195 110.63 131.271 110.45 131.271 110.218C131.271 109.982 131.195 109.802 131.043 109.678C130.891 109.55 130.669 109.486 130.377 109.486H129.585V110.944H130.377Z" fill="#797180"/>
<path d="M172.724 104.171C173.219 103.955 173.451 103.554 173.668 103.107C175.168 100.161 177.07 97.5393 179.838 95.6269C182.684 93.6528 185.823 92.6966 189.303 92.8509C189.906 92.8817 189.968 93.113 189.829 93.6374C189.226 95.7349 188.128 97.5393 186.751 99.1896C185.066 101.225 183.272 103.122 180.844 104.294C178.756 105.297 176.622 105.775 174.348 104.85C173.281 104.418 172.198 104.942 171.41 106.161C168.843 110.14 165.95 113.826 162.61 117.157C162.564 117.203 162.533 117.28 162.502 117.357C162.997 117.388 162.997 117.388 163.445 116.956C164.234 116.185 164.976 115.337 165.842 114.659C169.245 111.975 173.142 111.266 177.364 111.913C178.694 112.114 179.978 112.499 181.246 112.947C182.251 113.301 182.328 113.548 181.617 114.396C180.24 116.031 178.508 117.234 176.637 118.267C174.302 119.548 171.827 120.365 169.167 120.581C167.172 120.735 165.332 120.319 163.785 118.931C162.765 118.005 161.527 118.113 160.321 119.177C159.161 120.195 157.939 121.136 156.671 122.031C154.522 123.557 152.233 124.837 149.867 125.994C149.588 126.133 149.279 126.21 149.001 126.534C149.464 126.734 149.805 126.549 150.145 126.349C151.568 125.516 153.068 124.822 154.692 124.467C158.682 123.588 162.363 124.452 165.842 126.426C166.878 127.012 167.822 127.706 168.765 128.446C169.245 128.817 169.26 129.079 168.781 129.449C168.147 129.927 167.482 130.405 166.724 130.667C162.687 132.071 158.604 132.811 154.382 131.562C152.527 131.007 150.965 130.035 149.867 128.385C149.109 127.243 148.026 126.873 146.696 127.336C144.144 128.23 141.546 128.986 138.871 129.48C138.546 129.541 138.206 129.603 137.881 129.649C137.603 129.696 137.278 129.804 137.17 129.418C137.077 129.094 137.216 128.801 137.463 128.601C137.819 128.308 138.268 128.277 138.701 128.2C141.732 127.66 144.655 126.75 147.5 125.593C148.212 125.3 148.583 124.853 148.66 124.113C148.738 123.326 148.769 122.54 148.738 121.738C148.521 117.604 149.867 113.949 152.387 110.71C153.702 109.014 155.326 107.703 157.213 106.67C157.568 106.469 158.001 106.269 157.878 107.024C157.274 110.587 156.934 114.211 155.759 117.666C155.047 119.748 153.826 121.46 152.063 122.771C151.398 123.264 150.702 123.696 149.82 123.727C149.495 123.742 149.279 123.897 149.217 124.221C149.171 124.406 149.016 124.637 149.217 124.791C149.372 124.915 149.557 124.745 149.712 124.668C153.888 122.678 157.646 120.118 161.079 117.034C162.332 115.908 162.409 114.628 161.914 113.255C160.275 108.597 160.584 104.001 162.301 99.4672C163.043 97.5085 164.126 95.7349 165.487 94.1155C165.657 93.915 165.827 93.5603 166.136 93.6528C166.43 93.7299 166.306 94.1001 166.337 94.3314C166.631 97.0304 166.987 99.7294 167.203 102.444C167.42 105.343 167.497 108.258 165.889 110.911C165.193 112.037 164.466 113.116 163.26 113.764C162.966 113.918 162.796 114.165 162.765 114.489C162.749 114.736 162.517 115.044 162.796 115.183C163.074 115.322 163.229 114.967 163.399 114.797C166.461 111.543 169.136 108.011 171.441 104.187C172.106 103.076 172.106 102.074 171.626 100.979C171.394 100.439 171.131 99.899 170.807 99.4055C169.245 97.1075 168.564 94.5165 168.208 91.8175C167.698 87.9002 168.379 84.137 169.91 80.5281C170.002 80.2968 170.049 79.9421 170.327 79.9266C170.652 79.8958 170.652 80.2659 170.745 80.4973C172.106 83.8903 173.59 87.237 174.364 90.8151C174.936 93.4678 174.859 96.0742 173.776 98.6035C173.513 99.205 173.142 99.7139 172.74 100.223C172.322 100.747 172.291 101.272 172.616 102.074C173.126 101.056 173.575 100.192 173.992 99.2975C175.879 95.3339 177.302 91.216 178.446 86.9902C178.849 85.4942 178.323 84.3838 177.41 83.3351C176.467 82.2555 175.183 81.4998 174.348 80.2968C171.997 76.9192 170.667 73.2024 170.497 69.0845C170.435 67.5731 170.482 66.0462 170.698 64.5502C170.729 64.3343 170.698 64.0104 170.946 63.9487C171.209 63.8716 171.317 64.1801 171.441 64.3652C173.451 67.1412 175.694 69.7323 177.426 72.6934C178.539 74.6058 179.266 76.657 179.421 78.8779C179.514 80.1426 179.313 81.4072 178.678 82.5331C178.292 83.2271 178.4 83.7977 178.895 84.3375C179.173 84.2913 179.127 84.0753 179.158 83.9211C179.838 80.4664 180.333 76.9809 180.565 73.4645C180.658 71.9685 180.658 70.488 180.704 68.992C180.751 67.4651 180.008 66.3393 178.709 65.784C172.879 63.2239 170.435 58.304 169.245 52.4897C169.044 51.5181 168.904 50.5156 168.92 49.5131C168.92 49.3589 168.904 49.1892 169.059 49.0967C169.229 49.0196 169.337 49.1584 169.461 49.2509C171.765 51.1788 174.286 52.8753 176.374 55.0653C178.663 57.4558 180.024 60.2781 180.039 63.6403C180.039 64.1492 179.931 64.6582 179.885 65.1671C179.869 65.3676 179.838 65.5835 179.885 65.7686C179.978 66.0617 180.179 66.4472 180.472 66.4164C180.844 66.3855 180.673 65.9537 180.673 65.7069C180.534 60.4478 179.854 55.2658 178.632 50.1454C178.4 49.1584 177.178 48.1713 176.034 48.1713C172.508 48.1405 169.971 46.2435 167.714 43.853C165.734 41.7555 164.481 39.2262 163.631 36.4964C163.553 36.265 163.337 35.9874 163.569 35.7869C163.77 35.6019 164.002 35.8178 164.203 35.9103C167.049 37.0979 170.002 38.1158 172.662 39.6889C175.446 41.3545 177.07 43.8067 177.116 47.138C177.132 47.7704 177.395 48.1405 177.998 48.3256C178.23 48.0788 178.06 47.832 177.998 47.6007C176.699 42.9431 175.075 38.3934 172.956 34.0287C172.523 33.1342 171.688 33.0725 170.899 32.8875C170.59 32.8104 170.219 32.8566 169.91 32.9492C167.018 33.8437 164.404 33.0108 161.93 31.5765C159.641 30.2502 157.909 28.3224 156.517 26.0706C156.408 25.901 156.254 25.7313 156.362 25.5C156.455 25.3304 156.625 25.3766 156.78 25.392C159.037 25.5463 161.311 25.5154 163.553 25.9318C165.657 26.3174 167.652 26.9035 169.198 28.5383C170.018 29.4174 170.559 30.4044 170.807 31.5611C170.946 32.2397 171.301 32.5944 172.106 32.5327C171.642 31.2527 170.946 30.1577 170.296 29.0318C168.904 26.595 167.358 24.2508 165.672 22.0145C164.976 21.1045 164.064 20.8115 162.966 21.1971C161.945 21.5518 160.986 22.0762 159.904 22.2304C156.455 22.7393 153.455 21.6906 150.748 19.5931C149.975 18.9916 149.31 18.2822 148.691 17.5111C148.475 17.2334 148.243 16.8633 148.799 16.7708C151.8 16.3081 154.769 15.5215 157.831 16.0459C160.074 16.4315 161.775 17.6036 162.904 19.5931C163.12 19.9633 163.306 20.3797 163.754 20.5493C163.925 20.611 164.126 20.7036 164.265 20.5339C164.419 20.3488 164.265 20.1946 164.157 20.0558C163.615 19.3926 163.089 18.7294 162.517 18.0971C160.878 16.2772 159.223 14.4882 157.336 12.9151C156.81 12.4678 156.254 12.2211 155.527 12.1594C151.769 11.8509 148.985 9.87683 146.774 6.96194C145.567 5.34256 144.717 3.47641 144.129 1.48689C144.067 1.27097 143.897 1.00879 144.067 0.823713C144.268 0.607796 144.485 0.869981 144.686 0.947095C146.758 1.74907 148.892 2.35056 150.887 3.33761C152.836 4.30924 154.506 5.58932 155.728 7.42462C156.486 8.58132 156.903 9.81514 156.888 11.1878C156.888 11.635 156.965 12.0052 157.336 12.3445C160.569 15.2748 163.538 18.4364 166.198 21.8911C166.368 22.107 166.476 22.3846 166.832 22.508C166.971 21.8911 166.724 21.3976 166.353 20.9812C163.074 17.4494 161.574 13.1619 161.141 8.47336C160.94 6.34503 160.971 4.2167 161.326 2.08837C161.435 1.44062 161.636 1.4252 162.084 1.85703C165.966 5.60474 168.394 10.0773 168.92 15.4753C169.105 17.326 168.858 19.1304 167.683 20.7498C166.817 21.9219 167.296 23.2174 168.023 24.2816C169.631 26.6413 171.162 29.0472 172.539 31.5611C173.405 33.1651 174.209 34.7999 175.075 36.5118C175.307 35.9103 175.091 35.4322 174.828 34.9695C173.652 32.8258 172.848 30.5432 172.492 28.1373C171.827 23.7264 172.26 19.4235 174.147 15.3365C174.255 15.0897 174.317 14.7195 174.627 14.6733C174.982 14.627 175.09 15.0126 175.245 15.2748C176.931 18.0817 177.642 21.2279 178.261 24.3741C178.771 27.0114 178.988 29.6641 178.292 32.3168C178.013 33.3656 177.58 34.3526 176.807 35.0775C175.585 36.2342 175.678 37.6531 176.142 38.9332C177.658 43.1744 179.111 47.4311 179.993 51.8574C180.008 51.9191 180.07 51.9807 180.132 52.0887C180.519 51.5798 180.395 51.0554 180.256 50.5464C179.653 48.3564 179.282 46.1201 179.22 43.853C179.127 40.1053 179.9 36.5581 181.895 33.3193C182.437 32.4402 183.04 31.6074 183.658 30.79C183.813 30.5895 183.906 30.2502 184.184 30.281C184.462 30.3119 184.478 30.6666 184.571 30.8979C185.174 32.5173 185.483 34.2292 185.622 35.9412C185.885 39.1799 185.885 42.4033 185.189 45.5958C184.942 46.737 184.617 47.832 184.029 48.8499C183.566 49.6365 182.993 50.2997 182.189 50.7778C180.704 51.6569 180.333 53.1837 180.519 54.6643C180.952 58.1344 181.416 61.5891 181.524 65.09C181.57 66.2776 181.586 67.4805 181.663 68.8377C182.174 68.4059 182.096 67.9586 182.096 67.5577C182.081 65.2443 182.019 62.9309 182.56 60.6483C183.705 55.8056 186.272 51.8882 190.2 48.8499C190.37 48.7111 190.556 48.4644 190.803 48.5878C191.082 48.7111 191.035 49.0196 191.066 49.2664C191.453 54.2787 190.386 59.0289 188.391 63.5786C187.695 65.1671 186.674 66.5706 185.236 67.6039C184.803 67.9278 184.323 68.2363 183.782 68.3134C182.174 68.5755 181.725 69.8711 181.679 71.074C181.493 76.071 180.967 81.0062 179.885 85.8952C179.869 85.9569 179.885 86.034 179.885 86.2499C180.256 85.8181 180.318 85.3863 180.395 84.9853C181.679 78.6928 185.097 73.9426 190.741 70.8427C191.375 70.488 192.04 70.2258 192.736 69.9944C193.324 69.7939 193.541 70.0099 193.541 70.5959C193.541 71.6755 193.247 72.678 192.922 73.6805C191.654 77.5053 189.891 81.0525 187.03 83.9674C185.437 85.5868 183.612 86.7126 181.215 86.5121C180.735 86.4659 180.364 86.6972 180.101 87.0673C179.622 87.7305 179.22 88.4245 178.957 89.2419C177.426 94.1926 175.431 98.9582 172.91 103.493C172.833 103.708 172.632 103.878 172.724 104.171Z" fill="#C8C8C8"/>
<path d="M31.1843 117.419C30.3801 116.54 29.6068 115.707 28.8336 114.859C26.5138 112.361 24.4724 109.662 22.6474 106.793C22.3536 106.346 22.1371 105.837 21.6886 105.498C20.8225 104.85 20.0029 104.511 18.8121 104.973C16.5077 105.852 14.2498 105.22 12.2393 104.002C8.55856 101.75 5.85213 98.6037 4.13548 94.6401C3.39314 92.8973 3.455 92.851 5.31084 92.8664C9.02251 92.8973 12.2238 94.2391 15.054 96.6142C17.1727 98.3878 18.6574 100.609 19.8792 103.045C20.1111 103.508 20.3895 103.925 20.9617 104.248C20.8999 103.724 20.606 103.416 20.4204 103.076C18.0697 98.6654 16.1056 94.0848 14.6674 89.2884C14.59 89.0416 14.5127 88.7949 14.4354 88.5481C14.2343 87.9158 13.7394 87.4685 13.3992 86.9287C12.9352 86.1884 12.2548 86.574 11.6516 86.5277C9.82671 86.4044 8.28018 85.6332 6.98109 84.384C4.39839 81.9472 2.71267 78.9243 1.39812 75.6856C0.841367 74.2975 0.392873 72.8787 0.114497 71.4135C0.0217053 70.9662 -0.132948 70.411 0.222754 70.0872C0.609387 69.7324 1.11974 70.1026 1.50637 70.2876C7.04295 72.7553 10.7392 76.8731 12.5641 82.6412C12.8424 83.4895 13.0126 84.384 13.2291 85.2476C13.3219 85.5869 13.3683 85.9417 13.8013 86.3581C13.5538 85.1243 13.3373 84.0909 13.1363 83.0422C12.5795 80.081 12.2702 77.1045 12.0846 74.097C11.9919 72.5085 12.3012 70.8274 11.3423 69.3623C11.1103 69.0076 10.8938 68.6683 10.4608 68.5603C8.15646 68.0205 6.78004 66.4165 5.69747 64.4733C4.05815 61.4967 3.25395 58.258 2.7436 54.9421C2.46522 53.0914 2.3415 51.2252 2.55802 49.3436C2.58895 49.0969 2.54255 48.7884 2.79 48.6342C3.08384 48.4646 3.26942 48.7576 3.455 48.8964C8.54309 52.9371 11.3578 58.1346 11.5279 64.6738C11.5588 65.7071 11.5124 66.725 11.5279 67.7583C11.5279 68.0976 11.4815 68.4832 11.8681 68.7608C12.0692 68.4369 11.9764 68.0976 11.9919 67.7892C12.0846 63.8872 12.3166 59.9853 12.9352 56.1296C13.1363 54.8804 13.2445 53.7237 12.8115 52.5053C12.6105 51.9038 12.363 51.4257 11.8372 51.0864C10.136 50.0377 9.1617 48.4646 8.68228 46.5984C7.95541 43.7452 7.75436 40.8303 7.90901 37.8846C8.03273 35.6637 8.21832 33.4737 8.91426 31.3608C8.96065 31.222 9.00705 31.0678 9.06891 30.929C9.33182 30.2658 9.48647 30.2349 9.93497 30.7902C12.131 33.4737 13.6002 36.4811 14.157 39.9204C14.7447 43.4676 14.2962 46.9377 13.4456 50.377C13.3064 50.9476 13.1054 51.5182 13.492 52.1197C13.7704 51.9192 13.724 51.6108 13.7858 51.364C14.6055 47.3541 15.8427 43.4522 17.3583 39.6582C17.6986 38.81 17.7759 37.9617 17.8068 37.098C17.8223 36.6199 17.7913 36.111 17.4047 35.7254C15.2396 33.5508 14.7911 30.821 14.9921 27.9524C15.255 24.1276 16.1056 20.4415 17.5903 16.8943C17.8687 16.2466 18.2244 15.6605 18.5801 15.059C18.9048 14.5347 19.1678 14.5809 19.4152 15.1361C20.6524 17.758 21.3329 20.5032 21.4412 23.3873C21.5958 27.536 20.8225 31.4688 18.7811 35.1085C18.4718 35.6637 18.4718 35.7871 18.4718 36.8667C18.7502 36.2961 18.9358 35.8796 19.1368 35.4787C21.0081 31.5767 23.1733 27.8444 25.6786 24.2972C26.6375 22.9554 26.5756 21.737 25.725 20.3336C24.5961 18.452 24.5188 16.3854 24.8745 14.2879C25.6786 9.50686 27.9211 5.49697 31.3544 2.10398C31.5555 1.91891 31.7411 1.57961 32.0349 1.67214C32.3751 1.7801 32.3597 2.18109 32.3906 2.47412C32.9628 7.68699 32.4679 12.7302 29.8852 17.4341C29.2202 18.6679 28.3696 19.7629 27.4417 20.7963C27.0396 21.2435 26.7612 21.6908 26.9004 22.2923C27.1788 22.3848 27.2406 22.1843 27.3489 22.0455C29.2511 19.5779 31.308 17.2336 33.4577 14.9973C34.3547 14.072 35.329 13.2237 36.2878 12.3755C36.5662 12.1133 36.7673 11.8665 36.7673 11.4655C36.7827 8.08798 38.6695 5.86711 41.3295 4.15519C43.0462 3.04476 45.0257 2.4587 46.9125 1.73383C47.6085 1.45622 48.2889 1.16319 48.9849 0.870163C49.1705 0.793049 49.3715 0.607977 49.5571 0.762204C49.7427 0.916431 49.6189 1.14777 49.5725 1.34827C48.8766 3.83132 47.7167 6.08303 46.0001 8.02629C43.9432 10.3551 41.4223 11.8511 38.2829 12.0979C36.8137 12.2213 35.9476 13.2392 35.0042 14.1028C33.0556 15.8764 31.3235 17.8505 29.6687 19.8863C29.514 20.0714 29.1274 20.3336 29.4367 20.5649C29.6842 20.75 30.1017 20.5803 30.3182 20.2719C30.5038 19.9943 30.6275 19.6858 30.7977 19.3928C32.1895 16.9714 34.4939 16.1386 37.0766 15.9227C39.6438 15.7068 42.1492 16.3237 44.6546 16.7555C45.1804 16.8481 45.3351 17.0794 44.9639 17.5267C42.474 20.4878 39.3964 22.2923 35.4373 22.3848C33.8289 22.4156 32.3287 22.0609 30.9059 21.2744C30.0399 20.7808 28.7253 21.043 28.1222 21.8296C25.7096 25.0221 23.5754 28.3688 21.7659 31.9469C21.6731 32.1319 21.5339 32.2862 21.5958 32.5638C22.168 32.5483 22.6474 32.3941 22.7866 31.7464C23.4671 28.6156 25.6941 27.1041 28.5552 26.2559C30.0708 25.8086 31.6483 25.7778 33.2257 25.639C34.3856 25.531 35.53 25.4693 36.6899 25.3922C36.891 25.3768 37.123 25.2997 37.2622 25.4848C37.4168 25.6853 37.2622 25.8857 37.1539 26.0554C34.9888 29.433 32.2359 32.0394 28.184 33.0264C26.622 33.412 25.0755 33.3966 23.529 32.9339C22.3845 32.5792 21.1628 33.1344 20.637 34.1986C18.4873 38.5169 16.9253 43.0666 15.6262 47.6934C15.5798 47.8785 15.4715 48.079 15.5953 48.3258C16.3376 48.1561 16.4923 47.6163 16.5232 46.9686C16.616 44.9019 17.2655 43.0512 18.7347 41.5243C20.2039 39.9821 22.0288 38.9642 23.9465 38.1468C25.8178 37.3448 27.7201 36.6354 29.6223 35.8951C29.777 35.8334 29.9625 35.6791 30.1172 35.8488C30.2409 35.9722 30.1327 36.1418 30.0863 36.2806C28.648 40.7532 26.2973 44.5318 22.0907 46.9377C20.7607 47.7088 19.3224 48.1715 17.7449 48.1561C16.3221 48.1561 15.2396 49.0969 14.9303 50.5003C13.8941 55.0963 13.2445 59.7385 13.0744 64.4579C13.059 64.9977 12.9816 65.5375 12.9507 66.0618C12.9352 66.2006 12.9198 66.4165 13.1208 66.432C13.2136 66.4474 13.3528 66.324 13.4147 66.2315C13.8168 65.738 13.7549 65.1519 13.6621 64.6121C13.4147 63.0698 13.6466 61.5893 14.1261 60.1241C14.9767 57.5022 16.6469 55.4202 18.7038 53.6466C20.4204 52.166 22.2299 50.7934 23.9929 49.3899C24.1476 49.2665 24.3022 49.0506 24.5188 49.1123C24.7817 49.1894 24.7043 49.4516 24.6889 49.6521C24.3177 55.4664 22.3691 60.5251 17.6986 64.2882C17.049 64.8126 16.3067 65.1519 15.5334 65.4603C13.6466 66.2315 12.9352 67.3265 12.9198 69.3623C12.8888 74.1587 13.5075 78.8935 14.4044 83.5974C14.4508 83.8596 14.4044 84.1681 14.7292 84.3994C15.0385 83.9521 15.4097 83.5203 15.1004 82.9497C13.8941 80.8522 14.1106 78.6467 14.6519 76.4413C15.2705 73.9274 16.6778 71.7836 18.178 69.717C19.508 67.8817 20.9153 66.1081 22.2763 64.3036C22.3845 64.1494 22.4619 63.8564 22.7093 63.9335C22.9258 63.9952 22.9104 64.2728 22.9258 64.4733C23.6991 70.519 22.5856 76.0866 18.7038 80.9447C18.147 81.6542 17.482 82.2711 16.7397 82.7954C16.2757 83.1193 15.9046 83.5049 15.6107 84.0138C14.9457 85.1397 14.9612 86.2347 15.3014 87.4839C16.6469 92.3112 18.379 96.9689 20.6834 101.411C20.7607 101.565 20.8535 101.719 21.0545 102.043C21.271 101.349 21.4257 100.855 20.9772 100.362C19.5389 98.7579 19.1059 96.7992 18.9667 94.748C18.7347 91.5247 19.7864 88.5635 20.8689 85.6024C21.5494 83.7362 22.3227 81.9163 23.0495 80.081C23.0959 79.9731 23.1269 79.8343 23.2815 79.8034C23.498 79.8805 23.5444 80.0965 23.6218 80.2815C24.8281 83.1502 25.6323 86.1113 25.6013 89.2575C25.5549 93.0052 24.7043 96.537 22.6011 99.6987C22.0288 100.562 21.8123 101.534 21.6422 102.521C21.5649 102.984 21.7505 103.385 21.967 103.77C24.163 107.487 26.6375 110.973 29.6223 114.103C29.9007 114.397 30.1636 114.72 30.442 115.029C30.5502 115.137 30.6585 115.291 30.8286 115.229C31.0606 115.137 30.9523 114.921 30.9214 114.751C30.8595 114.366 30.7977 114.026 30.411 113.78C28.0603 112.299 26.9623 110.016 26.5447 107.395C26.0962 104.526 26.3901 101.657 26.7458 98.7888C26.9313 97.3082 27.1169 95.8276 27.3025 94.3624C27.3334 94.1157 27.2561 93.7918 27.5654 93.6993C27.8129 93.6222 27.9675 93.8998 28.1067 94.0694C30.5193 97.0306 32.0968 100.346 32.5762 104.156C32.9628 107.21 32.8855 110.186 31.772 113.116C31.4317 113.996 31.6173 114.952 31.6483 115.877C31.6637 116.155 31.8493 116.34 32.0349 116.525C35.4991 119.887 39.4582 122.555 43.8195 124.637C44.0205 124.73 44.3453 124.992 44.4535 124.591C44.5618 124.174 44.3143 123.82 43.8504 123.773C42.9843 123.696 42.2884 123.311 41.6079 122.817C39.3036 121.167 38.0509 118.885 37.4478 116.17C36.7982 113.178 36.2724 110.171 35.793 107.148C35.762 106.932 35.5764 106.654 35.8084 106.5C36.0249 106.361 36.2415 106.577 36.4425 106.685C40.5872 109.045 43.3091 112.515 44.4535 117.173C44.8247 118.669 45.1031 120.195 44.8247 121.753C44.7938 121.907 44.8092 122.062 44.8092 122.216C44.8092 124.838 45.0257 125.162 47.4383 126.118C49.8973 127.089 52.4182 127.768 55.0318 128.215C55.4648 128.292 55.9133 128.354 56.2381 128.678C56.4701 128.909 56.6093 129.202 56.4701 129.511C56.3154 129.819 56.0216 129.68 55.7896 129.634C52.9131 129.233 50.1448 128.447 47.4074 127.506C45.5206 126.858 44.6391 127.12 43.5101 128.755C42.4585 130.282 40.9584 131.115 39.2417 131.608C35.1898 132.749 31.2307 132.271 27.3334 130.837C26.4364 130.513 25.6013 130.051 24.8435 129.464C24.4105 129.125 24.4105 128.832 24.8435 128.477C28.5088 125.547 32.5916 123.804 37.3859 124.205C39.5046 124.375 41.4378 125.177 43.2472 126.241C43.6493 126.488 44.0514 126.75 44.6236 126.596C44.4381 126.21 44.1133 126.164 43.8349 126.041C40.0614 124.267 36.5972 122.031 33.4268 119.301C32.9783 118.915 32.5143 118.545 31.9112 118.422C31.1534 118.268 30.5038 118.314 29.8697 118.931C28.416 120.365 26.5292 120.797 24.5806 120.612C19.8792 120.165 15.8118 118.237 12.4713 114.89C11.0949 113.517 11.1413 113.425 12.9816 112.793C16.1211 111.713 19.2915 111.374 22.5547 112.129C24.9982 112.7 27.1169 113.857 28.88 115.646C29.3749 116.139 29.8543 116.633 30.3492 117.126C30.5348 117.311 30.7203 117.62 31.1843 117.419Z" fill="#C8C8C8"/>
<rect x="64.9219" y="18.585" width="63.6949" height="61.8663" fill="url(#pattern0)"/>
<path d="M58.4073 93.6937V102.279H56.1194V95.5702H54.6172V93.6937H58.4073Z" fill="#413847"/>
<path d="M64.9045 102.451C64.0571 102.451 63.2945 102.263 62.6166 101.887C61.9464 101.502 61.4187 100.971 61.0335 100.292C60.6483 99.6136 60.4557 98.845 60.4557 97.9864C60.4557 97.1279 60.6483 96.3593 61.0335 95.6806C61.4187 95.0019 61.9464 94.4746 62.6166 94.0984C63.2945 93.7141 64.0571 93.522 64.9045 93.522C65.6441 93.522 66.3104 93.661 66.9036 93.939C67.4967 94.217 67.9898 94.6176 68.3826 95.1409L66.9267 96.5392C66.4028 95.8687 65.7673 95.5334 65.0201 95.5334C64.581 95.5334 64.1881 95.6356 63.8414 95.8401C63.5025 96.0445 63.2367 96.3347 63.0441 96.7109C62.8592 97.0788 62.7668 97.504 62.7668 97.9864C62.7668 98.4688 62.8592 98.8981 63.0441 99.2742C63.2367 99.6422 63.5025 99.9284 63.8414 100.133C64.1881 100.337 64.581 100.439 65.0201 100.439C65.7673 100.439 66.4028 100.104 66.9267 99.4337L68.3826 100.832C67.9898 101.355 67.4967 101.756 66.9036 102.034C66.3104 102.312 65.6441 102.451 64.9045 102.451Z" fill="#413847"/>
<path d="M74.5123 93.6937H81.2721V95.5702H76.7655V96.9562H78.857C79.8354 96.9562 80.5865 97.1769 81.1103 97.6185C81.6341 98.06 81.8961 98.6937 81.8961 99.5195C81.8961 100.386 81.6033 101.065 81.0179 101.556C80.4324 102.038 79.612 102.279 78.5566 102.279H74.5123V93.6937ZM78.4064 100.538C78.7915 100.538 79.0843 100.456 79.2846 100.292C79.4849 100.129 79.585 99.8957 79.585 99.5931C79.585 98.9881 79.1921 98.6855 78.4064 98.6855H76.7655V100.538H78.4064Z" fill="#413847"/>
<path d="M83.9438 93.6937H86.197V98.7346L89.5365 93.6937H91.6858V102.279H89.4325V97.2505L86.1046 102.279H83.9438V93.6937Z" fill="#413847"/>
<path d="M100.806 95.6193H98.3337V102.279H96.0804V95.6193H93.596V93.6937H100.806V95.6193Z" fill="#413847"/>
<path d="M106.426 93.6937C107.157 93.6937 107.793 93.8245 108.332 94.0862C108.871 94.3396 109.287 94.7076 109.58 95.19C109.873 95.6643 110.019 96.2244 110.019 96.8703C110.019 97.5163 109.873 98.0764 109.58 98.5506C109.287 99.0249 108.871 99.3928 108.332 99.6545C107.793 99.9079 107.157 100.035 106.426 100.035H105.016V102.279H102.728V93.6937H106.426ZM106.287 98.1213C106.757 98.1213 107.111 98.015 107.35 97.8024C107.589 97.5817 107.708 97.271 107.708 96.8703C107.708 96.4697 107.589 96.1589 107.35 95.9382C107.111 95.7174 106.757 95.607 106.287 95.607H105.016V98.1213H106.287Z" fill="#413847"/>
<path d="M111.922 93.6937H114.176V98.7346L117.515 93.6937H119.664V102.279H117.411V97.2505L114.083 102.279H111.922V93.6937Z" fill="#413847"/>
<path d="M125.538 98.9921H124.498V102.279H122.222V93.6937H124.498V97.0298H125.596L127.526 93.6937H129.929L127.398 97.8392L129.952 102.279H127.375L125.538 98.9921Z" fill="#413847"/>
<path d="M135.448 102.451C134.601 102.451 133.838 102.263 133.16 101.887C132.49 101.502 131.962 100.971 131.577 100.292C131.192 99.6136 130.999 98.845 130.999 97.9864C130.999 97.1279 131.192 96.3593 131.577 95.6806C131.962 95.0019 132.49 94.4746 133.16 94.0984C133.838 93.7141 134.601 93.522 135.448 93.522C136.187 93.522 136.854 93.661 137.447 93.939C138.04 94.217 138.533 94.6176 138.926 95.1409L137.47 96.5392C136.946 95.8687 136.311 95.5334 135.563 95.5334C135.124 95.5334 134.732 95.6356 134.385 95.8401C134.046 96.0445 133.78 96.3347 133.588 96.7109C133.403 97.0788 133.31 97.504 133.31 97.9864C133.31 98.4688 133.403 98.8981 133.588 99.2742C133.78 99.6422 134.046 99.9284 134.385 100.133C134.732 100.337 135.124 100.439 135.563 100.439C136.311 100.439 136.946 100.104 137.47 99.4337L138.926 100.832C138.533 101.355 138.04 101.756 137.447 102.034C136.854 102.312 136.187 102.451 135.448 102.451Z" fill="#413847"/>
<path d="M72.277 97.9862C72.277 98.5383 71.8294 98.9859 71.2772 98.9859C70.7251 98.9859 70.2775 98.5383 70.2775 97.9862C70.2775 97.434 70.7251 96.9864 71.2772 96.9864C71.8294 96.9864 72.277 97.434 72.277 97.9862Z" fill="#413847"/>

</svg>
