<svg width="8" height="14" viewBox="0 0 8 14" fill="none" xmlns="http://www.w3.org/2000/svg">
<path fill-rule="evenodd" clip-rule="evenodd" d="M6.6965 0.366602C6.78357 0.281198 6.90004 0.233443 7.02128 0.233443C7.14251 0.233443 7.25899 0.281198 7.34606 0.366602C7.38856 0.408367 7.42234 0.458343 7.44541 0.513566C7.46848 0.568789 7.48036 0.628135 7.48036 0.688094C7.48036 0.748053 7.46848 0.807402 7.44541 0.862625C7.42234 0.917849 7.38856 0.967824 7.34606 1.00959L1.6357 6.66333L7.34706 12.3173C7.38955 12.3591 7.42333 12.4091 7.4464 12.4643C7.46947 12.5195 7.48136 12.5788 7.48136 12.6388C7.48136 12.6988 7.46947 12.7581 7.4464 12.8133C7.42333 12.8686 7.38955 12.9185 7.34706 12.9603C7.25993 13.0456 7.14348 13.0933 7.02228 13.0933C6.90108 13.0933 6.78462 13.0456 6.69749 12.9603L0.650142 6.98431C0.607586 6.94258 0.573747 6.89262 0.550639 6.8374C0.52753 6.78217 0.515625 6.7228 0.515625 6.66282C0.515625 6.60284 0.52753 6.54348 0.550639 6.48825C0.573747 6.43302 0.607586 6.38306 0.650142 6.34133L6.6965 0.366602Z" fill="#EFEEEF"/>
</svg>
