<svg width="8" height="14" viewBox="0 0 8 14" fill="none" xmlns="http://www.w3.org/2000/svg">
<path fill-rule="evenodd" clip-rule="evenodd" d="M1.2996 0.366846C1.21253 0.281442 1.09605 0.233687 0.974817 0.233687C0.853582 0.233687 0.7371 0.281442 0.65003 0.366846C0.607535 0.408611 0.573755 0.458587 0.550685 0.51381C0.527617 0.569034 0.515729 0.628379 0.515729 0.688338C0.515729 0.748297 0.527617 0.807646 0.550685 0.862869C0.573755 0.918093 0.607535 0.968068 0.65003 1.00983L6.36039 6.66357L0.649034 12.3176C0.60654 12.3593 0.572759 12.4093 0.54969 12.4645C0.526621 12.5197 0.514733 12.5791 0.514733 12.6391C0.514733 12.699 0.526621 12.7584 0.54969 12.8136C0.572759 12.8688 0.60654 12.9188 0.649034 12.9605C0.736165 13.0458 0.852617 13.0935 0.973814 13.0935C1.09501 13.0935 1.21147 13.0458 1.2986 12.9605L7.34595 6.98456C7.38851 6.94283 7.42235 6.89287 7.44546 6.83764C7.46856 6.78241 7.48047 6.72304 7.48047 6.66307C7.48047 6.60309 7.46856 6.54372 7.44546 6.48849C7.42235 6.43326 7.38851 6.3833 7.34595 6.34157L1.2996 0.366846Z" fill="#EFEEEF"/>
</svg>
