<svg width="99" height="100" viewBox="0 0 99 100" fill="none" xmlns="http://www.w3.org/2000/svg">
<path d="M77.5501 68.6685C78.0236 68.6206 77.7869 68.4288 77.5501 68.6685L63.6306 60.1326L49.7111 52.0283C49.2377 52.364 50.1846 52.364 49.7111 52.0283L35.8389 60.1326L21.9668 68.6685C21.588 68.0451 21.7774 68.0451 21.9668 68.6685C21.2092 68.6685 20.5938 68.0931 20.5938 67.3258V35.6279C20.5938 35.1483 20.8305 34.6688 21.2092 34.429C21.73 34.0933 22.3455 34.1413 22.819 34.429L49.7111 50.5897L76.6979 34.429C77.1714 34.0933 77.7869 34.0933 78.3077 34.429C78.6864 34.6688 78.9232 35.1483 78.9232 35.6279V67.3258C78.9705 68.0931 78.355 68.6685 77.5501 68.6685Z" fill="#967850"/>
<path d="M21.4961 69.8194C21.4961 70.4907 21.8749 71.0662 22.3957 71.258C22.5377 71.306 22.6797 71.3539 22.8691 71.3539C23.1532 71.3539 23.4372 71.258 23.674 71.0662L49.8086 55.2412L76.0379 71.0662C76.2746 71.258 76.5587 71.3539 76.8427 71.3539C76.9848 71.3539 77.1742 71.306 77.3162 71.258C77.837 71.0182 78.2158 70.4428 78.2158 69.8194V69.4357C78.0264 69.4357 77.8843 69.4357 77.695 69.4357V69.8194C77.695 70.251 77.4582 70.5866 77.1268 70.7305C77.0321 70.7785 76.9374 70.7785 76.8427 70.7785C76.6534 70.7785 76.5113 70.7305 76.3693 70.5866L50.14 54.7616L49.8559 54.5698L49.5719 54.7616L23.4372 70.5866C23.2952 70.6826 23.1532 70.7785 22.9638 70.7785C22.8691 70.7785 22.7744 70.7785 22.6797 70.7305C22.3483 70.5866 22.1116 70.203 22.1116 69.8194" fill="#A0A0A0"/>
<path d="M98.5274 99.6042H0.996094V0.817871H98.5274V99.6042ZM1.89566 98.6451H97.5332V1.77696H1.89566V98.6451Z" fill="#967850"/>
</svg>
