<svg version="1.1" xmlns="http://www.w3.org/2000/svg" xmlns:xlink="http://www.w3.org/1999/xlink">


<symbol id="main-logo" width="230" height="63" viewBox="0 0 230 63" fill="none">
<path d="M88.9391 0.323786C88.406 0.310225 87.8885 0.504368 87.4953 0.865392C87.1021 1.22642 86.8639 1.72619 86.8307 2.25964C86.8307 5.19568 86.8307 17.9884 86.8307 17.9884C85.06 16.2796 82.9223 14.9999 80.5815 14.2477C78.2408 13.4955 75.7593 13.2906 73.3273 13.6489C69.6 14.2543 66.242 16.2583 63.9345 19.2541C61.6271 22.25 60.543 26.0134 60.9022 29.781C61.1538 32.149 61.9595 34.424 63.2537 36.4211C64.5478 38.4181 66.294 40.0808 68.3501 41.274C70.4062 42.4671 72.7142 43.1571 75.0865 43.2876C77.4587 43.4182 79.8282 42.9857 82.0023 42.0253C84.8127 40.826 87.1875 38.79 88.8053 36.1932C90.4232 33.5963 91.2059 30.5639 91.0475 27.5064C91.0475 23.3443 91.0475 4.92144 91.0475 2.13059C90.9908 1.61732 90.7413 1.14492 90.3497 0.809342C89.9581 0.473763 89.4538 0.300156 88.9391 0.323786ZM75.8864 39.3474C73.7184 39.3473 71.5992 38.7019 69.7977 37.4929C67.9962 36.2839 66.5935 34.5658 65.7676 32.5567C64.9417 30.5475 64.7297 28.3377 65.1586 26.2076C65.5874 24.0775 66.6378 22.123 68.1764 20.5921C69.7151 19.0612 71.6727 18.0228 73.801 17.6087C75.9293 17.1946 78.1323 17.4234 80.1306 18.2661C82.129 19.1087 83.8327 20.5273 85.0255 22.3419C86.2184 24.1564 86.8466 26.2852 86.8307 28.4582C86.8287 29.8921 86.5432 31.3115 85.9909 32.6342C85.4386 33.957 84.6303 35.157 83.6127 36.1649C82.5952 37.1729 81.3885 37.9688 80.0623 38.5067C78.7362 39.0446 77.3169 39.3139 75.8864 39.299V39.3474ZM42.7636 13.536C40.6418 13.5316 38.5429 13.9755 36.6038 14.8388C34.6647 15.7021 32.929 16.9654 31.5097 18.5464C30.0905 20.1273 29.0197 21.9903 28.3671 24.0139C27.7145 26.0376 27.4949 28.1764 27.7225 30.2908C27.95 32.4053 28.6197 34.4479 29.6878 36.2855C30.756 38.1231 32.1986 39.7143 33.9215 40.9555C35.6445 42.1967 37.6091 43.0599 39.6873 43.4888C41.7654 43.9178 43.9105 43.9028 45.9825 43.4449C48.9676 42.7656 51.6777 41.1966 53.7562 38.9441C53.9508 38.7643 54.1061 38.5461 54.2123 38.3031C54.3186 38.0602 54.3734 37.7978 54.3734 37.5325C54.3734 37.2673 54.3186 37.0049 54.2123 36.7619C54.1061 36.519 53.9508 36.3007 53.7562 36.121C53.5693 35.9332 53.3473 35.7842 53.1029 35.6825C52.8585 35.5808 52.5965 35.5285 52.3318 35.5285C52.0672 35.5285 51.8052 35.5808 51.5608 35.6825C51.3163 35.7842 51.0943 35.9332 50.9075 36.121C50.4246 36.5243 49.974 36.9437 49.475 37.3309C48.0538 38.4046 46.4013 39.1297 44.6501 39.4481C42.8989 39.7665 41.0977 39.6694 39.3907 39.1644C37.6838 38.6594 36.1185 37.7607 34.8204 36.5402C33.5224 35.3198 32.5276 33.8115 31.9158 32.1363C31.4812 30.8458 31.5134 30.7974 32.9297 30.7974H54.6414C56.8142 30.7974 57.6189 29.9746 57.5224 27.7968C57.4419 23.2959 53.209 13.4069 42.7636 13.4069V13.536ZM52.1789 26.6998H32.7205C31.8031 26.6998 31.5778 26.4578 31.8031 25.5383C32.4175 23.177 33.7933 21.0855 35.7164 19.5892C37.6395 18.0928 40.0022 17.2756 42.4367 17.2645C44.8713 17.2535 47.2412 18.0493 49.1778 19.5281C51.1143 21.007 52.5089 23.0859 53.1446 25.4415C53.386 26.2804 53.1607 26.5707 52.1789 26.5707V26.6998ZM153.253 29.4907C153.412 26.4332 152.629 23.4008 151.011 20.8039C149.393 18.207 147.018 16.1711 144.208 14.9718C141.789 13.9053 139.13 13.5014 136.505 13.8014C133.879 14.1013 131.379 15.0943 129.261 16.6789C127.143 18.2636 125.483 20.3832 124.449 22.8213C123.416 25.2594 123.046 27.9288 123.378 30.5569C123.71 33.185 124.732 35.6777 126.339 37.7806C127.947 39.8834 130.082 41.5211 132.527 42.5264C134.973 43.5317 137.64 43.8687 140.258 43.5029C142.875 43.1372 145.349 42.0817 147.427 40.4444C147.894 40.0894 149.117 39.057 149.117 39.057C149.117 39.057 149.117 40.9767 149.117 41.9285C149.148 42.3332 149.294 42.7205 149.538 43.0442C149.782 43.3678 150.114 43.6141 150.495 43.7536C150.875 43.8931 151.287 43.9199 151.682 43.8309C152.077 43.7418 152.438 43.5406 152.722 43.2514C153.069 42.9119 153.286 42.4606 153.334 41.9769C153.269 39.0409 153.286 33.5237 153.253 29.3616V29.4907ZM138.237 39.67C136.799 39.6785 135.373 39.4029 134.041 38.8591C132.709 38.3152 131.497 37.5137 130.474 36.5003C129.451 35.4869 128.637 34.2815 128.079 32.9528C127.52 31.6241 127.229 30.1983 127.22 28.7566C127.212 27.315 127.487 25.8858 128.029 24.5507C128.572 23.2155 129.372 22.0006 130.383 20.9752C131.394 19.9498 132.596 19.1341 133.922 18.5745C135.247 18.015 136.67 17.7227 138.108 17.7142C141.013 17.6971 143.806 18.8373 145.872 20.8839C147.938 22.9306 149.108 25.7161 149.125 28.6276C149.142 31.5391 148.005 34.3382 145.963 36.409C143.921 38.4799 141.142 39.6529 138.237 39.67ZM108.784 21.9247H117.781C118.246 21.8897 118.682 21.6828 119.004 21.3439C119.364 20.9789 119.567 20.4862 119.567 19.9727C119.565 19.7256 119.514 19.4813 119.417 19.254C119.321 19.0267 119.18 18.8209 119.003 18.6484C118.827 18.4759 118.618 18.3402 118.389 18.2491C118.16 18.158 117.915 18.1132 117.668 18.1175H108.88C107.85 18.1175 107.931 17.569 107.931 16.5043C107.931 4.59879 107.931 3.96965 107.931 2.46936C107.931 1.91316 107.71 1.37972 107.318 0.986427C106.926 0.593131 106.393 0.372181 105.838 0.372181C105.284 0.372181 104.751 0.593131 104.359 0.986427C103.967 1.37972 103.746 1.91316 103.746 2.46936C103.746 2.46936 103.746 25.0543 103.746 28.3937C103.518 32.2864 104.831 36.1123 107.4 39.0409C108.642 40.4259 110.168 41.5251 111.874 42.263C113.579 43.0009 115.424 43.3601 117.282 43.3159C117.555 43.3355 117.829 43.3004 118.089 43.2125C118.348 43.1246 118.588 42.9857 118.793 42.804C118.999 42.6222 119.166 42.4012 119.285 42.154C119.404 41.9067 119.472 41.6381 119.487 41.3639C119.487 40.3314 118.811 39.5248 117.555 39.299C117.121 39.299 116.686 39.1699 116.236 39.1215C113.945 38.8484 111.835 37.7409 110.307 36.0096C108.779 34.2784 107.939 32.0443 107.947 29.7326C107.947 25.8932 107.947 25.7319 107.947 23.0862C107.947 22.2957 108.204 21.8602 108.784 21.8602V21.9247ZM25.655 12.8907C25.1658 12.6784 24.6128 12.6677 24.1158 12.8609C23.6189 13.0542 23.2178 13.4357 22.9993 13.9231L13.5357 35.4595L3.87889 13.7134C3.65756 13.2249 3.25247 12.8439 2.75198 12.6535C2.25148 12.4631 1.69617 12.4788 1.20718 12.6971C0.846046 12.8528 0.538837 13.1119 0.32409 13.442C0.109342 13.772 -0.00337874 14.1583 7.71482e-05 14.5523C0.00151062 14.8307 0.0618537 15.1056 0.177119 15.3589L11.4434 41.2832C11.5832 41.7158 11.8566 42.0926 12.2239 42.3594C12.5913 42.6262 13.0338 42.769 13.4874 42.7674C13.8047 42.7762 14.119 42.7038 14.4006 42.5571C14.6822 42.4103 14.9219 42.1939 15.0969 41.9285L26.7333 15.5686C26.84 15.3273 26.898 15.0671 26.904 14.8032C26.9099 14.5392 26.8637 14.2767 26.7679 14.0308C26.6722 13.7848 26.5288 13.5603 26.3461 13.3702C26.1633 13.1801 25.9449 13.0281 25.7032 12.923L25.655 12.8907Z" fill="#EFEEEF"/>
<path d="M75.7307 31.2499C75.1291 31.2371 74.5448 31.0466 74.0512 30.7025C73.5577 30.3583 73.177 29.8758 72.9571 29.3157C72.7372 28.7556 72.6878 28.1429 72.8153 27.5548C72.9428 26.9667 73.2414 26.4295 73.6735 26.0108C74.1056 25.5921 74.6519 25.3106 75.2437 25.2017C75.8354 25.0928 76.4462 25.1615 76.999 25.399C77.5518 25.6365 78.022 26.0323 78.3504 26.5365C78.6788 27.0407 78.8507 27.6308 78.8444 28.2326C78.7928 29.0324 78.4453 29.7844 77.8698 30.3422C77.2942 30.8999 76.5317 31.2235 75.7307 31.2499Z" fill="#E17062"/>
<path d="M98.8833 60.4331C98.8833 60.6636 98.8417 60.8918 98.761 61.1045C98.6803 61.3173 98.562 61.5103 98.413 61.6726C98.264 61.8348 98.0872 61.9629 97.8928 62.0497C97.6984 62.1364 97.4903 62.18 97.2806 62.1778H97.0012C96.7914 62.18 96.5833 62.1364 96.3889 62.0497C96.1946 61.9629 96.0178 61.8348 95.8687 61.6726C95.7197 61.5103 95.6014 61.3173 95.5207 61.1045C95.44 60.8918 95.3984 60.6636 95.3984 60.4331V2.06643C95.3984 1.83595 95.44 1.60775 95.5207 1.39502C95.6014 1.18228 95.7197 0.989217 95.8687 0.826994C96.0178 0.66477 96.1946 0.536597 96.3889 0.449873C96.5833 0.36315 96.7914 0.319596 97.0012 0.32173H97.2806C97.4903 0.319596 97.6984 0.36315 97.8928 0.449873C98.0872 0.536597 98.264 0.66477 98.413 0.826994C98.562 0.989217 98.6803 1.18228 98.761 1.39502C98.8417 1.60775 98.8833 1.83595 98.8833 2.06643V60.4331Z" fill="#E17062"/>
<path d="M107.797 49.3016C106.431 49.1036 105.042 49.1036 103.676 49.3016V61.4385C105.504 61.816 107.401 61.6944 109.165 61.0867C110.455 60.6093 111.546 59.7162 112.264 58.5501C112.982 57.3841 113.286 56.0125 113.126 54.6548C112.967 53.2971 112.353 52.0318 111.384 51.0613C110.415 50.0908 109.146 49.4712 107.781 49.3016H107.797ZM109.407 60.0793C107.99 60.7326 106.421 60.9924 104.867 60.8308C104.593 60.8308 104.61 60.6389 104.61 60.463C104.61 59.2797 104.61 58.0964 104.61 56.9131V55.41C104.61 53.747 104.61 52.0893 104.61 50.4369C104.61 50.213 104.61 50.0372 104.915 50.0052C106.708 49.7279 108.541 50.0966 110.083 51.0446C110.818 51.5815 111.404 52.2953 111.784 53.119C112.165 53.9426 112.328 54.8489 112.259 55.7526C112.19 56.6562 111.89 57.5275 111.388 58.2845C110.887 59.0414 110.199 59.659 109.391 60.0793H109.407ZM129.096 56.4814H126.81C126.536 56.4814 126.455 56.5933 126.455 56.8492C126.455 57.105 126.568 57.217 126.826 57.201H128.21C128.5 57.201 128.597 57.2969 128.58 57.5847C128.58 58.1764 128.58 58.784 128.58 59.3757C128.595 59.5118 128.567 59.649 128.501 59.769C128.435 59.8891 128.333 59.9861 128.21 60.0473C127.428 60.5265 126.548 60.8269 125.634 60.9268C124.818 61.045 123.986 60.9752 123.202 60.7229C122.417 60.4706 121.702 60.0425 121.111 59.4716C120.408 58.8108 119.89 57.9799 119.608 57.0605C119.326 56.1411 119.289 55.1646 119.501 54.2267C119.617 53.5329 119.872 52.8691 120.249 52.2741C120.627 51.6791 121.12 51.1648 121.7 50.7614C122.28 50.3579 122.936 50.0733 123.628 49.9243C124.32 49.7752 125.035 49.7647 125.731 49.8932C126.759 50.0751 127.724 50.5155 128.532 51.1725C128.629 51.1725 128.709 51.3804 128.87 51.2684C129.289 51.0126 129.321 50.7567 128.87 50.4689L128.661 50.325C127.74 49.6758 126.673 49.2588 125.554 49.1097H123.944H123.847C122.394 49.3005 121.052 49.9857 120.049 51.0487C119.047 52.1116 118.446 53.4866 118.35 54.9398C118.253 56.393 118.666 57.8347 119.519 59.0195C120.371 60.2043 121.611 61.0591 123.026 61.4385C123.525 61.5664 124.025 61.5984 124.524 61.6783H125.473H125.715C126.962 61.5774 128.15 61.1097 129.128 60.3351C129.211 60.2784 129.278 60.2017 129.323 60.1122C129.368 60.0228 129.389 59.9234 129.385 59.8234C129.385 58.8427 129.385 57.8619 129.385 56.8811C129.45 56.6413 129.369 56.4814 129.079 56.4814H129.096ZM151.183 57.7606L147.69 49.5414C147.69 49.3975 147.69 49.1577 147.368 49.1577C147.046 49.1577 147.142 49.3975 147.046 49.5414V49.6374L143.23 58.4962L142.119 61.0707C142.119 61.1826 141.942 61.3106 142.119 61.4225C142.279 61.4822 142.454 61.488 142.617 61.4388C142.78 61.3896 142.922 61.2883 143.021 61.1506C143.423 60.2232 143.826 59.2797 144.228 58.3523C144.258 58.2383 144.328 58.1386 144.426 58.0712C144.523 58.0038 144.641 57.973 144.76 57.9845H150.056C150.164 57.9687 150.274 57.9924 150.366 58.0512C150.458 58.11 150.525 58.2 150.555 58.3043C150.941 59.2318 151.344 60.1432 151.73 61.0707C151.843 61.3265 151.972 61.5024 152.245 61.4385C152.793 61.4385 152.809 61.4385 152.616 60.9748L151.183 57.7606ZM149.154 57.2649H145.017C144.824 57.2649 144.631 57.2649 144.76 56.9931L147.287 51.0126V50.9166L149.589 56.4814C149.976 57.2649 149.976 57.2649 149.138 57.2649H149.154ZM142.264 49.6853C142.264 49.3655 142.119 49.3016 141.846 49.3016H135.197C134.907 49.3016 134.778 49.3016 134.794 49.6853C134.811 50.0691 134.939 50.0531 135.197 50.0371C136.002 50.0371 136.807 50.0371 137.628 50.0371C137.966 50.0371 138.095 50.1331 138.079 50.4849C138.079 52.2438 138.079 53.9868 138.079 55.7458C138.079 57.5048 138.079 59.2477 138.079 61.0067C138.079 61.1506 138.079 61.3265 138.207 61.4225C138.284 61.4681 138.371 61.4927 138.46 61.4936C138.549 61.4945 138.636 61.4718 138.714 61.4278C138.791 61.3837 138.855 61.32 138.899 61.2431C138.943 61.1663 138.965 61.0791 138.964 60.9907C138.964 60.8788 138.964 60.7829 138.964 60.6709C138.964 57.2916 138.964 53.9122 138.964 50.5328C138.964 50.0371 138.964 50.0371 139.479 50.0371H141.83C142.119 50.0531 142.248 50.0052 142.248 49.6694L142.264 49.6853ZM132.46 49.2856C132.122 49.2856 132.026 49.4135 132.026 49.7333C132.026 53.5071 132.026 57.2756 132.026 61.0387C132.021 61.1079 132.021 61.1774 132.026 61.2466C132.026 61.3585 132.026 61.4065 132.219 61.4225C132.734 61.5344 132.911 61.4225 132.911 60.8948C132.911 59.0612 132.911 57.2223 132.911 55.378C132.911 53.4911 132.911 51.6042 132.911 49.7173C132.879 49.4135 132.75 49.2856 132.46 49.2856ZM115.991 49.2856C115.492 49.2856 115.412 49.2856 115.412 49.7973C115.412 51.6415 115.412 53.4911 115.412 55.346C115.412 57.2329 115.412 59.1198 115.412 61.0067C115.412 61.3265 115.492 61.4705 115.846 61.4385C116.201 61.4065 116.313 61.4385 116.313 60.9748C116.313 57.2436 116.313 53.5125 116.313 49.7813C116.313 49.7813 116.313 49.6694 116.313 49.6054C116.313 49.5414 116.136 49.3176 115.927 49.3016L115.991 49.2856ZM186.825 56.5453H184.539C184.266 56.5453 184.185 56.6573 184.185 56.9131C184.185 57.169 184.298 57.2809 184.555 57.2649H185.94C186.23 57.2649 186.326 57.3609 186.31 57.6487C186.31 58.2403 186.31 58.848 186.31 59.4396C186.325 59.5757 186.297 59.713 186.231 59.833C186.165 59.953 186.063 60.0501 185.94 60.1112C185.158 60.5905 184.278 60.8909 183.364 60.9907C182.548 61.1089 181.716 61.0392 180.932 60.7868C180.147 60.5345 179.432 60.1064 178.84 59.5356C178.138 58.8747 177.62 58.0439 177.338 57.1244C177.055 56.205 177.019 55.2285 177.231 54.2907C177.347 53.5968 177.601 52.933 177.979 52.338C178.357 51.743 178.85 51.2288 179.43 50.8253C180.01 50.4219 180.665 50.1373 181.357 49.9882C182.049 49.8392 182.765 49.8286 183.461 49.9572C184.489 50.1384 185.454 50.5789 186.262 51.2364C186.358 51.2364 186.439 51.4443 186.6 51.3324C187.019 51.0765 187.051 50.8207 186.6 50.5328L186.391 50.3889C185.469 49.7398 184.403 49.3227 183.284 49.1737H181.674H181.577C180.124 49.3645 178.781 50.0497 177.779 51.1126C176.777 52.1755 176.176 53.5506 176.079 55.0038C175.983 56.457 176.396 57.8986 177.248 59.0835C178.101 60.2683 179.341 61.123 180.756 61.5024C181.255 61.6303 181.754 61.6623 182.253 61.7423H183.203H183.445C184.691 61.6413 185.88 61.1737 186.858 60.3991C186.941 60.3424 187.008 60.2657 187.053 60.1762C187.098 60.0867 187.119 59.9873 187.115 59.8874C187.115 58.9066 187.115 57.9259 187.115 56.9451C187.099 56.6413 187.002 56.5453 186.729 56.5613L186.825 56.5453ZM191.043 60.8308C190.705 60.8308 190.609 60.7349 190.609 60.3991C190.609 58.6934 190.609 56.9877 190.609 55.2821C190.609 54.9303 190.721 54.8343 191.059 54.8343H194.537C194.794 54.8343 194.907 54.8343 194.907 54.4825C194.907 54.1307 194.794 54.0828 194.504 54.0828H191.091C190.609 54.0828 190.592 54.0828 190.592 53.6031C190.592 52.537 190.592 51.5243 190.592 50.5648C190.592 50.0851 190.592 50.0851 191.075 50.0851H195.503C195.776 50.0851 195.969 50.0851 195.969 49.7014C195.969 49.3176 195.76 49.3335 195.486 49.3335H190.158C189.836 49.3335 189.707 49.4295 189.707 49.7653C189.707 53.5391 189.707 57.3129 189.707 61.0867C189.707 61.3905 189.804 61.5024 190.126 61.5024H196.243V60.8628H191.027L191.043 60.8308ZM159.78 60.8308H155.61C155.127 60.8308 155.127 60.8308 155.127 60.3511C155.127 56.9078 155.127 53.4698 155.127 50.0371C155.127 49.9092 155.127 49.7813 155.127 49.6374C155.127 49.4935 155.127 49.3815 154.886 49.3815C154.681 49.3167 154.462 49.3167 154.258 49.3815V61.4385H155.304H159.764C159.989 61.4385 160.15 61.4385 160.15 61.1187C160.15 60.7988 159.973 60.8148 159.683 60.8308H159.78ZM170.55 49.6374C170.55 49.4615 170.55 49.1896 170.212 49.1737C169.873 49.1577 169.922 49.4615 169.841 49.6374L166.203 58.0644L164.899 61.1027C164.899 61.1986 164.722 61.3425 164.899 61.4385C165.063 61.4998 165.244 61.5013 165.409 61.4427C165.574 61.3842 165.713 61.2693 165.801 61.1187C166.187 60.2232 166.589 59.3437 166.944 58.4482C166.978 58.3056 167.065 58.1808 167.187 58.0981C167.309 58.0153 167.457 57.9806 167.604 58.0005C168.441 58.0005 169.294 58.0005 170.147 58.0005H172.707C172.809 57.9852 172.913 58.0078 172.999 58.0638C173.085 58.1199 173.147 58.2055 173.174 58.3043C173.335 58.7201 173.512 59.1198 173.689 59.5196L174.413 61.1187C174.504 61.2478 174.637 61.3422 174.789 61.3858C174.941 61.4295 175.104 61.4198 175.25 61.3585C175.524 61.2146 175.25 61.0227 175.25 60.8788C173.662 57.1903 172.063 53.4645 170.453 49.7014L170.55 49.6374ZM172.53 57.2649H167.7C167.41 57.2649 167.507 57.105 167.571 56.9611L168.956 53.763L170.147 50.9326L172.337 56.2095L172.691 57.041C172.707 57.2169 172.707 57.3289 172.433 57.3289L172.53 57.2649ZM206.466 49.2696C206.095 49.2696 206.063 49.4455 206.063 49.7333C206.063 51.1725 206.063 52.6276 206.063 54.0668C206.063 54.1787 206.063 54.3386 206.063 54.4026C206.063 54.4666 205.854 54.3226 205.773 54.2587L203.294 52.5477L199.189 49.3496C199.044 49.2376 198.899 49.0937 198.738 49.3496V61.4385C199.559 61.5184 199.559 61.5184 199.559 60.7189C199.559 57.5208 199.559 54.3226 199.559 51.1245C199.527 50.9987 199.527 50.8666 199.559 50.7407C199.689 50.7773 199.806 50.8494 199.897 50.9486C201.749 52.3398 203.6 53.763 205.468 55.1222C205.651 55.236 205.798 55.3977 205.895 55.5895C205.992 55.7813 206.033 55.9958 206.015 56.2095C206.015 57.8086 206.015 59.4077 206.015 61.0067C206.015 61.1506 206.015 61.3265 206.144 61.4065C206.273 61.4864 206.836 61.4065 206.836 60.9748C206.836 57.2329 206.836 53.5018 206.836 49.7813C206.82 49.5414 206.755 49.3655 206.385 49.3655L206.466 49.2696ZM219.345 59.6315C219.002 59.9183 218.616 60.1503 218.202 60.3191C217.365 60.7633 216.428 60.989 215.479 60.975C214.53 60.9611 213.6 60.7079 212.776 60.2392C211.778 59.6833 210.98 58.8306 210.495 57.8008C210.01 56.7711 209.862 55.6162 210.072 54.4985C210.166 53.7465 210.419 53.0228 210.815 52.3749C211.21 51.727 211.74 51.1695 212.367 50.7391C212.995 50.3087 213.708 50.0151 214.458 49.8776C215.208 49.7401 215.979 49.7618 216.721 49.9412C217.642 50.1463 218.502 50.5624 219.232 51.1565C219.409 51.3004 219.538 51.3484 219.699 51.1565C219.86 50.9646 219.972 50.7887 219.586 50.5009C218.621 49.7731 217.485 49.3 216.286 49.1257H214.676H214.499C213.122 49.2961 211.844 49.9278 210.877 50.9166C210.214 51.5822 209.714 52.389 209.412 53.2756C209.111 54.1623 209.017 55.1055 209.138 56.0336C209.214 57.0779 209.561 58.0848 210.145 58.9564C210.729 59.8279 211.53 60.5343 212.47 61.0067C213.27 61.4011 214.14 61.6348 215.03 61.6943H215.98H216.27C217.593 61.6119 218.857 61.1261 219.892 60.3031C220.069 60.1592 220.214 60.0473 220.005 59.8234C219.795 59.5996 219.57 59.4556 219.28 59.7275L219.345 59.6315ZM228.601 49.9252C227.7 51.3164 226.734 52.6436 225.8 54.0188C225.639 54.2427 225.575 54.2587 225.414 54.0188C224.448 52.5797 223.45 51.1565 222.484 49.7014C222.41 49.5537 222.29 49.4335 222.143 49.3586C221.995 49.2837 221.826 49.2581 221.663 49.2856C221.534 49.2856 221.373 49.2856 221.309 49.3655C221.244 49.4455 221.389 49.6054 221.47 49.7014C222.58 51.3004 223.707 52.9954 224.834 54.6265C225.05 54.924 225.163 55.2831 225.156 55.6499C225.156 57.4248 225.156 59.2158 225.156 60.9907C225.156 61.1187 225.156 61.3106 225.253 61.3745C225.46 61.4518 225.689 61.4518 225.897 61.3745C226.074 61.3745 226.009 61.1346 226.009 60.9907C226.009 59.1465 226.009 57.3076 226.009 55.474C226 55.223 226.074 54.976 226.219 54.7704L228.392 51.5723L230.002 49.3496V49.2056C229.853 49.1621 229.697 49.1488 229.542 49.1665C229.388 49.1842 229.239 49.2325 229.104 49.3085C228.968 49.3846 228.85 49.4869 228.755 49.6093C228.661 49.7317 228.592 49.8718 228.553 50.0212L228.601 49.9252Z" fill="#E17062"/>
</symbol>

<symbol id="arrow-down" width="32" height="17" viewBox="0 0 32 17" fill="none">
<path fill-rule="evenodd" clip-rule="evenodd" d="M31.6687 1.91547C31.8812 1.70298 32 1.41872 32 1.12284C32 0.826967 31.8812 0.54269 31.6687 0.330193C31.5647 0.226484 31.4404 0.144043 31.303 0.0877419C31.1655 0.0314407 31.0179 0.00242996 30.8687 0.00242996C30.7195 0.00242996 30.5718 0.0314407 30.4344 0.0877419C30.2969 0.144043 30.1726 0.226484 30.0687 0.330193L16.0001 14.2664L1.93084 0.327763C1.82691 0.224054 1.70257 0.141613 1.56515 0.0853119C1.42773 0.0290108 1.28005 0 1.13085 0C0.981651 0 0.833968 0.0290108 0.696552 0.0853119C0.559136 0.141613 0.434777 0.224054 0.330851 0.327763C0.118626 0.540407 0 0.82461 0 1.12039C0 1.41618 0.118626 1.7004 0.330851 1.91304L15.2013 16.6717C15.3052 16.7756 15.4295 16.8582 15.5669 16.9145C15.7043 16.9709 15.8521 17 16.0013 17C16.1506 17 16.2983 16.9709 16.4357 16.9145C16.5732 16.8582 16.6975 16.7756 16.8013 16.6717L31.6687 1.91547Z" fill="#EFEEEF"/>
</symbol>

<symbol id="menu" width="28" height="22" viewBox="0 0 28 22" fill="none">
<rect x="0.953125" y="0.321655" width="26.1076" height="2.65958" rx="1.32979" fill="#A990AD"/>
<rect x="0.953125" y="9.6261" width="26.1076" height="2.65958" rx="1.32979" fill="#A990AD"/>
<rect x="0.953125" y="18.9307" width="26.1076" height="2.65958" rx="1.32979" fill="#A990AD"/>
</symbol>

<symbol id="vkontakte" width="17" height="8" viewBox="0 0 17 8" fill="none">
<path d="M15.293 6.13499C14.945 5.77738 14.5518 5.45808 14.1715 5.14929C14.0379 5.04075 13.8996 4.92851 13.7665 4.81708C13.7665 4.81705 13.7664 4.81702 13.7664 4.817C13.5873 4.66725 13.4997 4.56096 13.4905 4.48246C13.4815 4.40529 13.543 4.2908 13.6845 4.12158C13.896 3.86704 14.1215 3.61207 14.3396 3.36552C14.5335 3.14635 14.7339 2.9197 14.9261 2.69177L14.9692 2.6406C15.344 2.19577 15.7316 1.73581 15.9393 1.17529C15.9986 1.01459 16.0602 0.776767 15.9116 0.567993C15.763 0.359165 15.4875 0.297273 15.2933 0.268925C15.1984 0.254993 15.1084 0.253841 15.0247 0.253841L12.5932 0.251992C12.1729 0.24599 11.8812 0.416825 11.7223 0.759887C11.5951 1.03388 11.4449 1.35141 11.2708 1.65262C10.9379 2.23411 10.5148 2.90387 9.90153 3.46189L9.87428 3.48676C9.83253 3.52497 9.76431 3.58745 9.72928 3.60178C9.66284 3.56599 9.58618 3.36126 9.58968 3.254C9.58978 3.25135 9.58981 3.24873 9.58981 3.2461L9.58765 0.837294C9.58765 0.825049 9.58665 0.812804 9.58474 0.800667C9.53021 0.457015 9.4239 0.112506 8.78952 0.00517115C8.76918 0.0017148 8.74849 0 8.7278 0H6.19857C5.72272 0 5.47104 0.18683 5.26925 0.389388C5.21085 0.448441 5.05566 0.605236 5.13472 0.796916C5.21472 0.990873 5.4531 1.02959 5.53135 1.04229C5.80698 1.08714 5.94951 1.22071 5.99363 1.47605C6.08085 1.97218 6.09154 2.50293 6.02732 3.14552C6.00941 3.31804 5.9761 3.44917 5.92235 3.55822C5.90748 3.58841 5.89441 3.60711 5.88529 3.61813C5.87073 3.61309 5.84807 3.60344 5.81669 3.58504C5.62301 3.47141 5.47704 3.29476 5.33588 3.12398C4.77206 2.44147 4.29781 1.68766 3.88584 0.819155C3.71618 0.463258 3.39724 0.264478 2.98837 0.259333C2.20936 0.248214 1.48889 0.248482 0.786513 0.260191C0.45523 0.265121 0.222916 0.35453 0.0959156 0.525981C-0.0312413 0.697754 -0.026585 0.916763 0.109791 1.17703C1.08467 3.03569 1.96986 4.38779 2.97987 5.56118C3.69103 6.38728 4.40691 6.96071 5.23275 7.36583C6.10045 7.79144 7.07901 8.00003 8.21427 8C8.34336 8 8.47471 7.99729 8.6078 7.99186C9.30821 7.9645 9.59318 7.72564 9.62428 7.14076C9.64171 6.83165 9.68184 6.58124 9.82106 6.36367C9.86 6.30277 9.90393 6.26194 9.93856 6.25446C9.97537 6.24659 10.0407 6.2659 10.1132 6.30634C10.246 6.38023 10.3602 6.48044 10.4542 6.5684C10.5495 6.65781 10.6457 6.75017 10.7389 6.83947C10.9371 7.02962 11.1421 7.22626 11.3568 7.41381C11.8425 7.83833 12.4025 8.03301 13.0218 7.99223L15.2469 7.99311C15.247 7.99311 15.247 7.99311 15.2471 7.99311C15.2541 7.99311 15.2612 7.99293 15.2682 7.99252C15.5249 7.97787 15.7468 7.85604 15.8771 7.6582C16.034 7.41995 16.0317 7.11818 15.8707 6.85064C15.7027 6.5725 15.4847 6.3331 15.293 6.13499ZM15.3221 7.38949C15.2914 7.43608 15.2536 7.44457 15.234 7.44661L13.0093 7.44573C13.0093 7.44573 13.0092 7.44573 13.0091 7.44573C13.0003 7.44573 12.9915 7.44602 12.9828 7.44666C12.5445 7.47796 12.172 7.34587 11.8118 7.03104C11.6074 6.85255 11.4075 6.66079 11.2141 6.47532C11.1199 6.38495 11.0225 6.29146 10.9246 6.19962C10.8033 6.08596 10.6532 5.95534 10.4604 5.84801C10.1718 5.68738 9.93262 5.69223 9.78284 5.7246C9.63462 5.75662 9.42393 5.84798 9.26221 6.10102C9.05271 6.42841 9.00649 6.7816 8.98768 7.11526C8.9768 7.31931 8.93655 7.37322 8.91974 7.38691C8.89771 7.40487 8.82409 7.43643 8.57843 7.44605C7.39792 7.49363 6.40723 7.31237 5.54932 6.89153C4.803 6.52542 4.1495 5.99955 3.49278 5.23672C2.51074 4.09588 1.64667 2.77475 0.6912 0.953068C0.656575 0.887076 0.645887 0.845894 0.642793 0.823843C0.667168 0.816984 0.714794 0.807955 0.798294 0.806642C1.49355 0.795094 2.20649 0.794773 2.97846 0.805811C3.08415 0.807151 3.20449 0.834346 3.29562 1.02552C3.72606 1.93298 4.22328 2.72272 4.81578 3.43992C4.9731 3.63029 5.16891 3.86725 5.45669 4.03608C5.72029 4.19084 5.9342 4.18344 6.06726 4.15C6.20038 4.11654 6.38514 4.02356 6.50957 3.77096C6.58985 3.60813 6.63839 3.42479 6.66242 3.19313C6.73107 2.5058 6.71889 1.93435 6.62414 1.39535C6.55735 1.00917 6.32479 0.730201 5.95845 0.58774C6.02351 0.558696 6.09682 0.546585 6.19863 0.546585H8.6948C8.83524 0.573593 8.86305 0.605316 8.87259 0.616168C8.91302 0.662279 8.93615 0.771355 8.95027 0.856585L8.9524 3.24318C8.94677 3.47197 9.07646 3.97938 9.51803 4.11852C9.52165 4.11967 9.52531 4.12074 9.52896 4.12176C9.93097 4.2344 10.1969 3.99109 10.3396 3.86037L10.3651 3.83716C11.0368 3.22587 11.4892 2.51161 11.8426 1.89443C12.0268 1.57572 12.1828 1.24605 12.3147 0.961883C12.3807 0.819369 12.4407 0.795898 12.584 0.798497C12.586 0.798551 12.5879 0.79855 12.5899 0.79855L15.0245 0.800399C15.0811 0.800399 15.1402 0.800962 15.1861 0.807687C15.3021 0.824621 15.3498 0.845251 15.3656 0.853798C15.3672 0.869633 15.3668 0.915182 15.3318 1.01025C15.1552 1.48687 14.8139 1.89183 14.4526 2.32058L14.4095 2.37183C14.2217 2.59454 14.0235 2.81861 13.8319 3.03534C13.6109 3.28509 13.3825 3.54329 13.166 3.80389C12.7031 4.35768 12.7438 4.72518 13.3215 5.20832C13.458 5.32259 13.598 5.43625 13.7333 5.54615C14.1171 5.85784 14.4796 6.15222 14.8032 6.48462C14.9726 6.65969 15.1646 6.86994 15.3045 7.10164C15.3775 7.22294 15.3596 7.33252 15.3221 7.38949Z" fill="#A990AD"/>
</symbol>

<symbol id="facebook" width="9" height="13" viewBox="0 0 9 13" fill="none">
<path d="M6.07534 2.82551H7.46423C7.76179 2.82551 8.00391 2.61904 8.00391 2.36523V0.461778C8.00391 0.207974 7.76182 0.00149804 7.46423 0.00149804H5.55701C5.53873 0.000837889 5.50697 0 5.46246 0C5.1026 0 3.85122 0.0605565 2.85841 0.839514C1.77475 1.68992 1.87844 2.70717 1.92405 2.95798V4.19805H0.543579C0.246026 4.19805 0.00390625 4.40453 0.00390625 4.65833V6.70555C0.00390625 6.95938 0.245997 7.16588 0.543579 7.16588H1.84417V12.5397C1.84417 12.7935 2.08626 13 2.38385 13H5.10388C5.40143 13 5.64355 12.7935 5.64355 12.5397V7.19241H7.18413C7.45843 7.19241 7.68891 7.01714 7.72026 6.78474L8.00036 4.71104C8.01796 4.58076 7.9694 4.4499 7.86708 4.35202C7.76476 4.25419 7.61797 4.19808 7.46429 4.19808H5.64367V3.15714C5.64361 2.94206 5.71241 2.82551 6.07534 2.82551ZM5.34002 4.71602H7.38841L7.12387 6.6745H5.33993C5.17226 6.6745 5.0363 6.79043 5.0363 6.93346V12.4821H2.4514V6.9069C2.4514 6.76387 2.31544 6.64794 2.14777 6.64794H0.611127V4.71597H2.22767C2.39534 4.71597 2.5313 4.60004 2.5313 4.45701V2.93693C2.5313 2.92207 2.52981 2.90722 2.52683 2.89257C2.49483 2.73578 2.38042 1.91846 3.2696 1.22068C4.10063 0.568622 5.15818 0.517942 5.46249 0.517942C5.50515 0.517942 5.53055 0.518907 5.53519 0.51911C5.54019 0.519313 5.54519 0.519415 5.5502 0.519415H7.39672V2.30762H6.07537C5.42477 2.30762 5.03636 2.62521 5.03636 3.15714V4.45704C5.03636 4.60009 5.17235 4.71602 5.34002 4.71602Z" fill="#A990AD"/>
</symbol>

<symbol id="youtube" width="11" height="10" viewBox="0 0 11 10" fill="none">
<path d="M6.88246 4.11475L4.73432 2.71785C4.56719 2.60914 4.36339 2.61764 4.20234 2.74013C4.0414 2.86259 3.94141 3.08513 3.94141 3.32098V6.12395C3.94141 6.36013 4.04159 6.58289 4.20299 6.70535C4.28776 6.76962 4.38499 6.8036 4.48413 6.8036C4.57136 6.8036 4.65827 6.77687 4.73553 6.72632L6.88367 5.32035C7.06364 5.20263 7.17528 4.97146 7.17508 4.71701C7.17483 4.46273 7.06269 4.23194 6.88246 4.11475ZM6.68688 4.84876H6.68686L4.53868 6.25476C4.50289 6.27821 4.45755 6.27638 4.42308 6.25024C4.38803 6.22364 4.36626 6.17526 4.36626 6.12392V3.32098C4.36626 3.26978 4.38798 3.22147 4.42291 3.19489C4.4416 3.1807 4.46286 3.17356 4.48421 3.17356C4.50285 3.17356 4.52154 3.17901 4.53845 3.19002L6.68663 4.58694C6.72579 4.61239 6.75014 4.66252 6.7502 4.71767C6.75022 4.77296 6.72596 4.8232 6.68688 4.84876Z" fill="#A990AD"/>
<path d="M10.2151 0.86941V0.869437C9.80029 0.251913 9.07083 0 7.69733 0H2.96665C1.56033 0 0.818029 0.268319 0.404505 0.926168C0 1.56975 0 2.44991 0 3.6681V5.88803C0 6.88859 0.067421 7.91092 0.556635 8.61048C1.00777 9.25563 1.77357 9.55611 2.96665 9.55611H7.69735C8.8881 9.55611 9.55688 9.33667 10.0058 8.79867C10.4672 8.24568 10.6641 7.3752 10.6641 5.88803V3.6681C10.6641 2.38118 10.6328 1.49113 10.2151 0.86941ZM10.2392 5.88803C10.2392 7.21588 10.0815 7.97141 9.712 8.41428C9.35063 8.84737 8.76696 9.02406 7.69737 9.02406H2.96665C0.791848 9.02406 0.424875 8.05663 0.424875 5.88806V3.66813C0.424875 2.55693 0.424875 1.75405 0.738361 1.25531C1.06126 0.741602 1.70683 0.532074 2.96667 0.532074V0.532048H7.69735C8.93036 0.532048 9.56562 0.72903 9.89 1.21194V1.21196C10.2149 1.69552 10.2392 2.49839 10.2392 3.6681V5.88803Z" fill="#A990AD"/>
</symbol>

<symbol id="guarantee" width="41" height="44" viewBox="0 0 41 44" fill="none">
<path d="M39.7524 41.6696H37.9161V15.0062C37.9161 13.7652 36.9064 12.7555 35.6654 12.7555H31.5609C30.3198 12.7555 29.3102 13.7653 29.3102 15.0062V41.6696H24.6474V27.0868C24.6474 25.8458 23.6377 24.8361 22.3967 24.8361H18.2922C17.0511 24.8361 16.0415 25.8458 16.0415 27.0868V41.6696H11.3786V34.1173C11.3786 32.8762 10.3689 31.8666 9.12795 31.8666H5.02333C3.78228 31.8666 2.77264 32.8763 2.77264 34.1173V41.6696H0.83725C0.374837 41.6696 0 42.0445 0 42.5069C0 42.9693 0.374837 43.3441 0.83725 43.3441H39.7524C40.2149 43.3441 40.5897 42.9693 40.5897 42.5069C40.5897 42.0445 40.2149 41.6696 39.7524 41.6696ZM9.70398 41.6696H4.44705V34.1173C4.44705 33.7995 4.70551 33.5411 5.02325 33.5411H9.12778C9.44552 33.5411 9.70398 33.7995 9.70398 34.1173V41.6696ZM22.9728 41.6696H17.7159V27.0868C17.7159 26.7691 17.9743 26.5106 18.2921 26.5106H22.3966C22.7143 26.5106 22.9728 26.7691 22.9728 27.0868V41.6696ZM36.2416 41.6696H30.9847V15.0062C30.9847 14.6885 31.2431 14.43 31.5609 14.43H35.6654C35.9832 14.43 36.2416 14.6885 36.2416 15.0062V41.6696Z" fill="#D3C0C4"/>
<path d="M37.9141 1.35738C37.9258 1.1289 37.8454 0.896558 37.671 0.722075C37.4965 0.547593 37.2641 0.467133 37.0357 0.478938C37.0222 0.478352 37.0089 0.476929 36.9951 0.476929H31.9298C31.4674 0.476929 31.0925 0.851765 31.0925 1.31418C31.0925 1.77659 31.4674 2.15143 31.9298 2.15143H35.0575L26.7807 10.4283L23.6594 7.30704C23.5024 7.15006 23.2894 7.06181 23.0674 7.06181C22.8454 7.06181 22.6324 7.15006 22.4754 7.30704L7.42423 22.3583C7.09728 22.6852 7.09728 23.2154 7.42423 23.5424C7.58774 23.7058 7.802 23.7875 8.01625 23.7875C8.2305 23.7875 8.44484 23.7058 8.60827 23.5422L23.0674 9.08302L26.1887 12.2043C26.5156 12.5312 27.0458 12.5312 27.3728 12.2043L36.2416 3.33555V6.16629C36.2416 6.62871 36.6164 7.00354 37.0789 7.00354C37.5413 7.00354 37.9161 6.62871 37.9161 6.16629V1.3979C37.9161 1.38426 37.9147 1.37094 37.9141 1.35738Z" fill="#D3C0C4"/>
<path d="M5.19421 26.7088C5.65661 26.7088 6.03146 26.3339 6.03146 25.8715C6.03146 25.4091 5.65661 25.0343 5.19421 25.0343C4.73181 25.0343 4.35696 25.4091 4.35696 25.8715C4.35696 26.3339 4.73181 26.7088 5.19421 26.7088Z" fill="#D3C0C4"/>
</symbol>

<symbol id="level" width="44" height="45" viewBox="0 0 44 45" fill="none">
<path d="M33.5516 0.817749H2.7204C1.21797 0.817749 0 2.03572 0 3.53815V25.3013C0 26.8038 1.21797 28.0217 2.7204 28.0217H14.5088V26.2082H2.7204C2.21959 26.2082 1.81357 25.8021 1.81357 25.3013V3.53815C1.81357 3.03734 2.21959 2.63132 2.7204 2.63132H33.5516C34.0524 2.63132 34.4584 3.03734 34.4584 3.53815V19.8605H36.272V3.53815C36.272 2.03572 35.054 0.817749 33.5516 0.817749Z" fill="#D3C0C4"/>
<path d="M12.6953 27.1149H10.8817V32.5557H12.6953V27.1149Z" fill="#D3C0C4"/>
<path d="M6.34773 22.5809C5.84692 22.5809 5.4409 22.1749 5.4409 21.6741V19.8605H3.62733V21.6741C3.62733 23.1765 4.84531 24.3945 6.34773 24.3945H8.1613V22.5809H6.34773Z" fill="#D3C0C4"/>
<path d="M5.4409 16.2333H3.62733V18.0469H5.4409V16.2333Z" fill="#D3C0C4"/>
<path d="M33.1409 20.0255C31.2931 18.1774 28.7867 17.1391 26.1732 17.1392C20.7319 17.1394 16.321 21.5507 16.3212 26.992C16.3215 32.4333 20.7327 36.8441 26.174 36.844C28.7866 36.8439 31.2921 35.8061 33.1396 33.9589C36.9876 30.1117 36.9882 23.8735 33.1409 20.0255ZM26.1685 35.0312C21.7288 35.0297 18.1309 31.4294 18.1325 26.9897C18.134 22.5501 21.7343 18.9522 26.174 18.9537C28.3079 18.9479 30.3552 19.797 31.8587 21.3113C33.3649 22.8193 34.2107 24.8638 34.21 26.9952C34.2085 31.4349 30.6082 35.0328 26.1685 35.0312Z" fill="#D3C0C4"/>
<path d="M43.2608 40.2635L37.5688 34.5734C37.3988 34.4034 37.1681 34.3077 36.9277 34.3077C36.6872 34.3078 36.4567 34.4034 36.2866 34.5734L33.7567 37.1034C33.4027 37.4574 33.4027 38.0314 33.7567 38.3856L39.4487 44.0785C39.6187 44.2486 39.8493 44.3441 40.0898 44.3441C40.3306 44.3434 40.5613 44.2468 40.7308 44.0757L43.2608 41.5458C43.6148 41.1916 43.6148 40.6176 43.2608 40.2635ZM40.0897 42.1551L35.6799 37.7444L36.9276 36.4967L41.3374 40.9074L40.0897 42.1551Z" fill="#D3C0C4"/>
<path d="M33.1408 32.6756L31.8584 33.958L35.0208 37.1204L36.3032 35.838L33.1408 32.6756Z" fill="#D3C0C4"/>
<path d="M16.3225 31.6489H9.06813V33.4625H16.3225V31.6489Z" fill="#D3C0C4"/>
<path d="M13.6021 4.44496C12.0997 4.44496 10.8817 5.66294 10.8817 7.16536C10.8817 8.66779 12.0997 9.88576 13.6021 9.88576C15.1045 9.88576 16.3225 8.66779 16.3225 7.16536C16.3225 5.66294 15.1045 4.44496 13.6021 4.44496ZM13.6021 8.0721C13.1013 8.0721 12.6953 7.66608 12.6953 7.16528C12.6953 6.66447 13.1013 6.25845 13.6021 6.25845C14.1029 6.25845 14.5089 6.66447 14.5089 7.16528C14.5089 7.66617 14.1029 8.0721 13.6021 8.0721Z" fill="#D3C0C4"/>
<path d="M19.9497 10.7925C18.4473 10.7925 17.2293 12.0105 17.2293 13.5129C17.2293 15.0153 18.4473 16.2333 19.9497 16.2333C21.4521 16.2333 22.6701 15.0153 22.6701 13.5129C22.6701 12.0105 21.4521 10.7925 19.9497 10.7925ZM19.9497 14.4198C19.4489 14.4198 19.0429 14.0137 19.0429 13.5129C19.0429 13.0121 19.4489 12.6061 19.9497 12.6061C20.4505 12.6061 20.8566 13.0121 20.8566 13.5129C20.8565 14.0137 20.4505 14.4198 19.9497 14.4198Z" fill="#D3C0C4"/>
<path d="M12.054 7.43127L7.52004 11.9652L8.80242 13.2476L13.3363 8.71365L12.054 7.43127Z" fill="#D3C0C4"/>
<path d="M15.1461 7.43352L13.8637 8.7159L18.3976 13.2498L19.68 11.9674L15.1461 7.43352Z" fill="#D3C0C4"/>
<path d="M26.2973 4.44496C24.7948 4.44496 23.5769 5.66294 23.5769 7.16536C23.5769 8.66779 24.7948 9.88576 26.2973 9.88576C27.7997 9.88576 29.0177 8.66779 29.0177 7.16536C29.0177 5.66294 27.7998 4.44496 26.2973 4.44496ZM26.2973 8.0721C25.7965 8.0721 25.3904 7.66608 25.3904 7.16528C25.3904 6.66447 25.7965 6.25845 26.2973 6.25845C26.7981 6.25845 27.2041 6.66447 27.2041 7.16528C27.2041 7.66617 26.7981 8.0721 26.2973 8.0721Z" fill="#D3C0C4"/>
<path d="M24.7487 7.43442L20.2148 11.9683L21.4971 13.2507L26.0311 8.7168L24.7487 7.43442Z" fill="#D3C0C4"/>
</symbol>



<symbol id="black-logo" width="379" height="103" viewBox="0 0 379 103" fill="none">
<path d="M146.425 0.263518C145.547 0.241192 144.695 0.560818 144.048 1.15519C143.4 1.74956 143.008 2.57236 142.953 3.4506C142.953 8.28434 142.953 29.3457 142.953 29.3457C140.038 26.5323 136.519 24.4255 132.665 23.1871C128.811 21.9487 124.726 21.6115 120.722 22.2013C114.586 23.198 109.057 26.4972 105.258 31.4294C101.46 36.3617 99.6748 42.5576 100.266 48.7603C100.68 52.6588 102.007 56.4043 104.137 59.6922C106.268 62.98 109.143 65.7174 112.528 67.6818C115.913 69.6461 119.713 70.7819 123.618 70.9969C127.524 71.2118 131.425 70.4998 135.004 68.9187C139.631 66.9441 143.541 63.5923 146.204 59.3169C148.868 55.0416 150.157 50.0492 149.896 45.0155C149.896 38.1633 149.896 7.83286 149.896 3.23814C149.802 2.39312 149.392 1.61539 148.747 1.06291C148.102 0.510431 147.272 0.224615 146.425 0.263518ZM124.935 64.5099C121.366 64.5098 117.877 63.4471 114.911 61.4567C111.945 59.4663 109.636 56.6378 108.276 53.33C106.916 50.0222 106.568 46.3841 107.274 42.8772C107.98 39.3703 109.709 36.1526 112.242 33.6322C114.775 31.1118 117.998 29.4023 121.502 28.7205C125.006 28.0387 128.633 28.4154 131.923 29.8027C135.213 31.19 138.018 33.5255 139.981 36.5129C141.945 39.5003 142.98 43.005 142.953 46.5825C142.95 48.9433 142.48 51.28 141.571 53.4577C140.662 55.6355 139.331 57.6111 137.656 59.2705C135.98 60.9299 133.994 62.2402 131.81 63.1258C129.627 64.0114 127.29 64.4548 124.935 64.4302V64.5099ZM70.4037 22.0154C66.9105 22.0081 63.455 22.7389 60.2626 24.1603C57.0701 25.5816 54.2125 27.6614 51.876 30.2642C49.5394 32.8669 47.7765 35.9341 46.7021 39.2657C45.6278 42.5973 45.2661 46.1185 45.6408 49.5996C46.0154 53.0807 47.118 56.4436 48.8765 59.4689C50.635 62.4942 53.01 65.114 55.8466 67.1574C58.6831 69.2008 61.9176 70.622 65.339 71.3282C68.7604 72.0343 72.2919 72.0097 75.7031 71.2559C80.6177 70.1375 85.0794 67.5543 88.5014 63.8459C88.8217 63.5499 89.0774 63.1906 89.2523 62.7906C89.4272 62.3907 89.5175 61.9587 89.5175 61.522C89.5175 61.0853 89.4272 60.6533 89.2523 60.2533C89.0774 59.8533 88.8217 59.494 88.5014 59.1981C88.1937 58.8889 87.8282 58.6436 87.4258 58.4762C87.0234 58.3089 86.592 58.2227 86.1563 58.2227C85.7207 58.2227 85.2893 58.3089 84.8869 58.4762C84.4845 58.6436 84.119 58.8889 83.8113 59.1981C83.0164 59.862 82.2745 60.5526 81.4531 61.19C79.1132 62.9577 76.3927 64.1516 73.5096 64.6758C70.6265 65.1999 67.6611 65.04 64.8508 64.2086C62.0405 63.3772 59.4636 61.8976 57.3265 59.8883C55.1895 57.879 53.5517 55.3959 52.5444 52.638C51.829 50.5133 51.882 50.4336 54.2138 50.4336H89.9587C93.5358 50.4336 94.8607 49.0791 94.7018 45.4936C94.5693 38.0836 87.6005 21.8029 70.4037 21.8029V22.0154ZM85.9046 43.6876H53.8693C52.3589 43.6876 51.988 43.2892 52.3589 41.7753C53.3704 37.8879 55.6355 34.4445 58.8016 31.981C61.9677 29.5175 65.8575 28.172 69.8656 28.1538C73.8737 28.1357 77.7754 29.4458 80.9636 31.8805C84.1519 34.3152 86.4479 37.7379 87.4945 41.616C87.8919 42.9971 87.5209 43.4751 85.9046 43.4751V43.6876ZM252.308 48.2823C252.569 43.2486 251.28 38.2562 248.617 33.9809C245.953 29.7055 242.043 26.3537 237.417 24.3791C233.434 22.6234 229.057 21.9585 224.734 22.4523C220.411 22.9461 216.295 24.5809 212.809 27.1898C209.322 29.7987 206.588 33.2882 204.886 37.3022C203.185 41.3163 202.576 45.711 203.123 50.0377C203.67 54.3645 205.352 58.4683 207.999 61.9304C210.645 65.3924 214.16 68.0886 218.186 69.7437C222.212 71.3988 226.604 71.9536 230.913 71.3514C235.223 70.7492 239.296 69.0115 242.716 66.3159C243.484 65.7316 245.498 64.0318 245.498 64.0318C245.498 64.0318 245.498 67.1923 245.498 68.7593C245.549 69.4255 245.789 70.0632 246.191 70.5961C246.594 71.1289 247.14 71.5344 247.766 71.7641C248.392 71.9937 249.071 72.0379 249.721 71.8913C250.372 71.7446 250.966 71.4134 251.434 70.9372C252.005 70.3784 252.362 69.6354 252.441 68.839C252.335 64.0053 252.361 54.9221 252.308 48.0698V48.2823ZM227.586 65.041C225.218 65.055 222.871 64.6013 220.678 63.706C218.485 62.8106 216.489 61.491 214.805 59.8226C213.121 58.1542 211.781 56.1696 210.862 53.9822C209.943 51.7947 209.463 49.4473 209.449 47.0738C209.435 44.7004 209.887 42.3475 210.781 40.1493C211.674 37.9512 212.99 35.951 214.655 34.2629C216.319 32.5747 218.299 31.2318 220.482 30.3106C222.664 29.3894 225.006 28.9081 227.374 28.8942C232.156 28.866 236.754 30.7431 240.155 34.1127C243.557 37.4822 245.483 42.068 245.512 46.8614C245.54 51.6547 243.667 56.263 240.305 59.6723C236.944 63.0817 232.368 65.0129 227.586 65.041ZM179.096 35.8261H193.908C194.674 35.7686 195.392 35.4278 195.922 34.87C196.515 34.269 196.848 33.4579 196.849 32.6124C196.846 32.2056 196.762 31.8034 196.603 31.4292C196.443 31.055 196.212 30.7161 195.921 30.4322C195.63 30.1482 195.286 29.9248 194.909 29.7748C194.532 29.6247 194.128 29.5511 193.722 29.5581H179.255C177.559 29.5581 177.691 28.6551 177.691 26.9022C177.691 7.30166 177.691 6.26587 177.691 3.79588C177.691 2.88017 177.329 2.00196 176.683 1.35445C176.037 0.706952 175.16 0.343192 174.247 0.343192C173.333 0.343192 172.457 0.706952 171.811 1.35445C171.165 2.00196 170.802 2.88017 170.802 3.79588C170.802 3.79588 170.802 40.9785 170.802 46.4763C170.427 52.8851 172.588 59.1839 176.817 64.0052C178.862 66.2855 181.375 68.0951 184.183 69.31C186.991 70.5249 190.029 71.1162 193.086 71.0434C193.536 71.0758 193.988 71.018 194.415 70.8733C194.843 70.7285 195.237 70.4998 195.575 70.2006C195.913 69.9014 196.188 69.5376 196.384 69.1305C196.58 68.7234 196.693 68.2812 196.717 67.8298C196.717 66.13 195.604 64.802 193.537 64.4302C192.822 64.4302 192.106 64.2177 191.364 64.1381C187.594 63.6884 184.12 61.865 181.604 59.0148C179.087 56.1646 177.704 52.4865 177.718 48.6807C177.718 42.3596 177.718 42.094 177.718 37.7383C177.718 36.437 178.142 35.7199 179.096 35.7199V35.8261ZM42.2369 20.953C41.4316 20.6035 40.5213 20.5859 39.703 20.904C38.8848 21.2221 38.2245 21.8503 37.8649 22.6528L22.2844 58.1091L6.386 22.3075C6.02161 21.5032 5.3547 20.8759 4.53071 20.5625C3.70672 20.249 2.79249 20.2748 1.98743 20.6343C1.39289 20.8906 0.887113 21.3172 0.533564 21.8606C0.180015 22.404 -0.00556258 23.0399 0.000127013 23.6886C0.002487 24.147 0.101833 24.5996 0.2916 25.0166L18.8398 67.697C19.07 68.4091 19.52 69.0295 20.1248 69.4687C20.7297 69.9079 21.4581 70.1431 22.2049 70.1404C22.7273 70.1549 23.2448 70.0358 23.7084 69.7941C24.172 69.5525 24.5666 69.1963 24.8547 68.7593L44.0123 25.3618C44.188 24.9645 44.2835 24.5362 44.2933 24.1016C44.3031 23.6671 44.227 23.2349 44.0693 22.83C43.9117 22.4251 43.6756 22.0555 43.3748 21.7424C43.0739 21.4294 42.7142 21.1792 42.3164 21.0061L42.2369 20.953Z" fill="#2A1C35"/>
<path d="M124.679 51.1784C123.689 51.1574 122.727 50.8438 121.914 50.2772C121.102 49.7106 120.475 48.9162 120.113 47.9941C119.751 47.0719 119.67 46.0633 119.88 45.0951C120.089 44.1269 120.581 43.2425 121.292 42.5531C122.004 41.8637 122.903 41.4003 123.878 41.221C124.852 41.0418 125.857 41.1548 126.767 41.5459C127.677 41.9369 128.452 42.5885 128.992 43.4186C129.533 44.2487 129.816 45.2203 129.806 46.2109C129.721 47.5277 129.149 48.7658 128.201 49.6841C127.253 50.6023 125.998 51.135 124.679 51.1784Z" fill="#D8402B"/>
<path d="M162.796 99.2243C162.796 99.6038 162.727 99.9795 162.595 100.33C162.462 100.68 162.267 100.998 162.022 101.265C161.776 101.532 161.485 101.743 161.165 101.886C160.845 102.029 160.503 102.1 160.157 102.097H159.697C159.352 102.1 159.009 102.029 158.689 101.886C158.369 101.743 158.078 101.532 157.833 101.265C157.588 100.998 157.393 100.68 157.26 100.33C157.127 99.9795 157.059 99.6038 157.059 99.2243V3.13252C157.059 2.75306 157.127 2.37737 157.26 2.02713C157.393 1.6769 157.588 1.35905 157.833 1.09197C158.078 0.824896 158.369 0.613878 158.689 0.471101C159.009 0.328324 159.352 0.256619 159.697 0.260133H160.157C160.503 0.256619 160.845 0.328324 161.165 0.471101C161.485 0.613878 161.776 0.824896 162.022 1.09197C162.267 1.35905 162.462 1.6769 162.595 2.02713C162.727 2.37737 162.796 2.75306 162.796 3.13252V99.2243Z" fill="#D8402B"/>
<path d="M177.469 80.898C175.219 80.5721 172.933 80.5721 170.684 80.898V100.879C173.694 101.501 176.817 101.301 179.721 100.3C181.844 99.5145 183.641 98.044 184.823 96.1243C186.005 94.2046 186.505 91.9465 186.242 89.7113C185.98 87.476 184.97 85.3929 183.374 83.7951C181.779 82.1973 179.69 81.1772 177.442 80.898H177.469ZM180.119 98.6418C177.786 99.7175 175.203 100.145 172.645 99.8791C172.194 99.8791 172.221 99.5632 172.221 99.2736C172.221 97.3255 172.221 95.3773 172.221 93.4292V90.9545C172.221 88.2166 172.221 85.4875 172.221 82.7671C172.221 82.3985 172.221 82.109 172.724 82.0563C175.675 81.5998 178.693 82.2068 181.232 83.7675C182.442 84.6514 183.406 85.8267 184.033 87.1827C184.66 88.5387 184.929 90.0308 184.815 91.5185C184.701 93.0063 184.207 94.4407 183.381 95.6869C182.555 96.9331 181.423 97.9499 180.093 98.6418H180.119ZM212.533 92.7184H208.77C208.319 92.7184 208.187 92.9027 208.187 93.3239C208.187 93.7451 208.372 93.9294 208.796 93.9031H211.076C211.553 93.9031 211.712 94.061 211.685 94.5349C211.685 95.509 211.685 96.5094 211.685 97.4834C211.709 97.7075 211.664 97.9334 211.555 98.131C211.446 98.3286 211.279 98.4885 211.076 98.5891C209.788 99.3781 208.339 99.8727 206.835 100.037C205.492 100.232 204.122 100.117 202.83 99.7014C201.539 99.286 200.361 98.5812 199.387 97.6414C198.23 96.5534 197.378 95.1855 196.913 93.6718C196.449 92.1581 196.388 90.5505 196.737 89.0064C196.929 87.8642 197.348 86.7713 197.969 85.7917C198.591 84.8122 199.403 83.9655 200.358 83.3013C201.313 82.637 202.392 82.1685 203.531 81.9231C204.671 81.6777 205.848 81.6603 206.994 81.872C208.687 82.1715 210.275 82.8965 211.606 83.9781C211.765 83.9781 211.897 84.3204 212.162 84.1361C212.851 83.7149 212.904 83.2936 212.162 82.8198L211.818 82.5828C210.301 81.5141 208.546 80.8275 206.703 80.582H204.052H203.893C201.5 80.8962 199.29 82.0243 197.64 83.7743C195.99 85.5242 195.001 87.788 194.842 90.1805C194.682 92.573 195.363 94.9464 196.766 96.897C198.17 98.8476 200.211 100.255 202.541 100.879C203.363 101.09 204.185 101.143 205.006 101.274H206.57H206.968C209.02 101.108 210.976 100.338 212.586 99.063C212.723 98.9696 212.834 98.8434 212.908 98.6961C212.982 98.5487 213.017 98.3851 213.01 98.2206C213.01 96.6059 213.01 94.9912 213.01 93.3765C213.116 92.9816 212.984 92.7184 212.507 92.7184H212.533ZM248.897 94.8245L243.145 81.2928C243.145 81.0559 243.145 80.661 242.615 80.661C242.085 80.661 242.244 81.0559 242.085 81.2928V81.4508L235.804 96.0355L233.975 100.274C233.975 100.458 233.684 100.669 233.975 100.853C234.238 100.952 234.525 100.961 234.794 100.88C235.062 100.799 235.296 100.632 235.459 100.406C236.122 98.8787 236.784 97.3255 237.447 95.7986C237.497 95.6108 237.612 95.4467 237.772 95.3358C237.932 95.2248 238.127 95.1742 238.322 95.193H247.042C247.219 95.167 247.401 95.2061 247.552 95.3029C247.703 95.3998 247.814 95.5478 247.863 95.7196C248.499 97.2465 249.162 98.7471 249.798 100.274C249.983 100.695 250.195 100.985 250.646 100.879C251.547 100.879 251.574 100.88 251.256 100.116L248.897 94.8245ZM245.557 94.0084H238.746C238.428 94.0084 238.11 94.0084 238.322 93.5608L242.483 83.7148V83.5569L246.273 92.7184C246.909 94.0084 246.909 94.0084 245.531 94.0084H245.557ZM234.214 81.5298C234.214 81.0033 233.975 80.898 233.525 80.898H222.578C222.101 80.898 221.889 80.8979 221.916 81.5298C221.942 82.1616 222.154 82.1353 222.578 82.109C223.904 82.109 225.229 82.109 226.58 82.109C227.137 82.109 227.349 82.2669 227.323 82.8461C227.323 85.742 227.323 88.6115 227.323 91.5074C227.323 94.4033 227.323 97.2728 227.323 100.169C227.323 100.406 227.323 100.695 227.535 100.853C227.66 100.928 227.804 100.969 227.95 100.97C228.097 100.972 228.241 100.934 228.368 100.862C228.495 100.789 228.6 100.684 228.673 100.558C228.745 100.431 228.782 100.288 228.78 100.142C228.78 99.9581 228.78 99.8001 228.78 99.6158C228.78 94.0523 228.78 88.4886 228.78 82.9251C228.78 82.1089 228.78 82.109 229.628 82.109H233.498C233.975 82.1353 234.187 82.0563 234.187 81.5035L234.214 81.5298ZM218.073 80.8716C217.516 80.8716 217.357 81.0822 217.357 81.6087C217.357 87.8217 217.357 94.0259 217.357 100.221C217.35 100.335 217.35 100.45 217.357 100.564C217.357 100.748 217.357 100.827 217.675 100.853C218.523 101.037 218.815 100.853 218.815 99.9844C218.815 96.9657 218.815 93.9382 218.815 90.9019C218.815 87.7954 218.815 84.6889 218.815 81.5824C218.762 81.0822 218.55 80.8716 218.073 80.8716ZM190.959 80.8716C190.138 80.8716 190.005 80.8716 190.005 81.7141C190.005 84.7504 190.005 87.7954 190.005 90.8492C190.005 93.9557 190.005 97.0622 190.005 100.169C190.005 100.695 190.137 100.932 190.721 100.879C191.304 100.827 191.489 100.88 191.489 100.116C191.489 93.9733 191.489 87.8305 191.489 81.6878C191.489 81.6878 191.489 81.5035 191.489 81.3982C191.489 81.2929 191.198 80.9243 190.853 80.898L190.959 80.8716ZM307.577 92.8237H303.813C303.362 92.8237 303.23 93.008 303.23 93.4292C303.23 93.8504 303.415 94.0347 303.84 94.0084H306.119C306.596 94.0084 306.755 94.1663 306.728 94.6402C306.728 95.6143 306.728 96.6147 306.728 97.5887C306.752 97.8128 306.707 98.0387 306.598 98.2363C306.489 98.4339 306.322 98.5938 306.119 98.6944C304.831 99.4834 303.382 99.978 301.878 100.142C300.535 100.337 299.165 100.222 297.873 99.8067C296.582 99.3913 295.404 98.6864 294.431 97.7467C293.274 96.6587 292.421 95.2908 291.957 93.7771C291.492 92.2634 291.431 90.6558 291.78 89.1117C291.972 87.9695 292.391 86.8766 293.013 85.897C293.634 84.9175 294.447 84.0708 295.402 83.4066C296.356 82.7423 297.435 82.2738 298.575 82.0284C299.714 81.783 300.891 81.7657 302.037 81.9774C303.731 82.2757 305.319 83.0008 306.649 84.0834C306.808 84.0834 306.941 84.4256 307.206 84.2414C307.895 83.8201 307.948 83.3989 307.206 82.9251L306.861 82.6881C305.344 81.6194 303.589 80.9328 301.746 80.6874H299.095H298.936C296.543 81.0016 294.334 82.1296 292.683 83.8795C291.033 85.6295 290.044 87.8933 289.885 90.2858C289.726 92.6783 290.406 95.0517 291.81 97.0023C293.213 98.9529 295.254 100.36 297.585 100.985C298.406 101.195 299.228 101.248 300.049 101.38H301.613H302.011C304.063 101.213 306.019 100.444 307.63 99.1683C307.766 99.075 307.877 98.9487 307.951 98.8013C308.025 98.654 308.06 98.4904 308.054 98.3259C308.054 96.7112 308.054 95.0965 308.054 93.4819C308.027 92.9817 307.868 92.8237 307.418 92.85L307.577 92.8237ZM314.521 99.8791C313.964 99.8791 313.805 99.7212 313.805 99.1683C313.805 96.3602 313.805 93.552 313.805 90.7439C313.805 90.1647 313.991 90.0068 314.547 90.0068H320.272C320.696 90.0068 320.882 90.0068 320.882 89.4276C320.882 88.8484 320.696 88.7695 320.219 88.7695H314.6C313.805 88.7695 313.779 88.7695 313.779 87.9797C313.779 86.2246 313.779 84.5573 313.779 82.9777C313.779 82.1879 313.779 82.1879 314.574 82.1879H321.862C322.313 82.1879 322.631 82.188 322.631 81.5561C322.631 80.9243 322.286 80.9506 321.836 80.9506H313.063C312.533 80.9506 312.321 81.1086 312.321 81.6614C312.321 87.8744 312.321 94.0873 312.321 100.3C312.321 100.801 312.48 100.985 313.01 100.985H323.081V99.9317H314.494L314.521 99.8791ZM263.05 99.8791H256.185C255.39 99.8791 255.39 99.8791 255.39 99.0893C255.39 93.4204 255.39 87.7603 255.39 82.109C255.39 81.8983 255.39 81.6877 255.39 81.4508C255.39 81.2139 255.39 81.0296 254.993 81.0296C254.657 80.9228 254.295 80.9228 253.959 81.0296V100.879H255.682H263.023C263.395 100.879 263.66 100.879 263.66 100.353C263.66 99.8265 263.368 99.8528 262.891 99.8791H263.05ZM280.781 81.4508C280.781 81.1612 280.781 80.7137 280.224 80.6874C279.668 80.661 279.747 81.1612 279.615 81.4508L273.625 95.3247L271.478 100.327C271.478 100.485 271.187 100.722 271.478 100.879C271.748 100.98 272.046 100.983 272.317 100.886C272.589 100.79 272.818 100.601 272.962 100.353C273.599 98.8787 274.261 97.4308 274.844 95.9565C274.901 95.7217 275.044 95.5162 275.245 95.38C275.445 95.2438 275.69 95.1866 275.931 95.2194C277.309 95.2194 278.714 95.2194 280.118 95.2194H284.333C284.5 95.1943 284.671 95.2314 284.813 95.3236C284.955 95.4159 285.057 95.5569 285.101 95.7196C285.366 96.404 285.658 97.0622 285.949 97.7204L287.142 100.353C287.291 100.566 287.51 100.721 287.761 100.793C288.012 100.865 288.28 100.849 288.52 100.748C288.971 100.511 288.52 100.195 288.52 99.9581C285.905 93.8855 283.272 87.7515 280.622 81.5561L280.781 81.4508ZM284.041 94.0084H276.09C275.613 94.0084 275.772 93.7451 275.878 93.5082L278.157 88.2429L280.118 83.5832L283.723 92.2708L284.306 93.6398C284.333 93.9294 284.333 94.1137 283.882 94.1137L284.041 94.0084ZM339.911 80.8453C339.302 80.8453 339.249 81.1349 339.249 81.6087C339.249 83.9781 339.249 86.3738 339.249 88.7431C339.249 88.9274 339.249 89.1907 339.249 89.296C339.249 89.4013 338.904 89.1644 338.772 89.059L334.69 86.2422L327.932 80.9769C327.693 80.7927 327.455 80.5557 327.19 80.9769V100.879C328.541 101.011 328.541 101.011 328.541 99.6948C328.541 94.4296 328.541 89.1644 328.541 83.8991C328.487 83.6919 328.487 83.4745 328.541 83.2673C328.755 83.3276 328.948 83.4462 329.098 83.6096C332.146 85.8999 335.194 88.243 338.268 90.4807C338.569 90.6681 338.813 90.9342 338.972 91.25C339.131 91.5658 339.199 91.919 339.169 92.2708C339.169 94.9034 339.169 97.5361 339.169 100.169C339.169 100.406 339.169 100.695 339.381 100.827C339.593 100.958 340.521 100.827 340.521 100.116C340.521 93.9557 340.521 87.813 340.521 81.6878C340.495 81.2929 340.388 81.0033 339.779 81.0033L339.911 80.8453ZM361.115 97.9046C360.55 98.3767 359.915 98.7587 359.233 99.0367C357.855 99.768 356.312 100.14 354.75 100.117C353.187 100.094 351.657 99.6766 350.301 98.905C348.657 97.9899 347.343 96.586 346.545 94.8906C345.746 93.1953 345.502 91.2939 345.848 89.454C346.003 88.2159 346.42 87.0244 347.071 85.9577C347.723 84.891 348.594 83.9732 349.628 83.2646C350.661 82.556 351.834 82.0727 353.07 81.8463C354.305 81.6199 355.574 81.6556 356.794 81.951C358.311 82.2886 359.727 82.9738 360.929 83.9518C361.221 84.1887 361.433 84.2677 361.698 83.9518C361.963 83.6359 362.148 83.3463 361.512 82.8724C359.922 81.6743 358.053 80.8954 356.079 80.6084H353.428H353.137C350.869 80.8889 348.766 81.9289 347.174 83.5569C346.083 84.6527 345.259 85.9809 344.763 87.4407C344.267 88.9004 344.112 90.4533 344.311 91.9812C344.436 93.7004 345.007 95.3582 345.968 96.7931C346.93 98.2279 348.249 99.3909 349.797 100.169C351.113 100.818 352.546 101.203 354.012 101.301H355.575H356.052C358.23 101.165 360.313 100.365 362.016 99.0103C362.307 98.7734 362.546 98.5891 362.201 98.2206C361.857 97.852 361.486 97.615 361.009 98.0626L361.115 97.9046ZM376.354 81.9247C374.87 84.2151 373.28 86.4001 371.743 88.6642C371.478 89.0327 371.372 89.0591 371.107 88.6642C369.516 86.2948 367.873 83.9518 366.283 81.5561C366.161 81.313 365.964 81.1151 365.721 80.9918C365.478 80.8685 365.201 80.8264 364.931 80.8716C364.719 80.8716 364.454 80.8716 364.348 81.0033C364.242 81.1349 364.481 81.3982 364.613 81.5561C366.442 84.1887 368.297 86.9793 370.152 89.6646C370.508 90.1544 370.694 90.7456 370.682 91.3494C370.682 94.2716 370.682 97.2202 370.682 100.142C370.682 100.353 370.683 100.669 370.842 100.774C371.183 100.901 371.56 100.901 371.902 100.774C372.193 100.774 372.087 100.379 372.087 100.142C372.087 97.1061 372.087 94.0786 372.087 91.0599C372.072 90.6468 372.193 90.24 372.432 89.9015L376.01 84.6363L378.66 80.9769V80.74C378.415 80.6684 378.157 80.6464 377.903 80.6755C377.649 80.7047 377.404 80.7842 377.181 80.9094C376.959 81.0347 376.764 81.2031 376.608 81.4046C376.452 81.6061 376.339 81.8367 376.275 82.0826L376.354 81.9247Z" fill="#D8402B"/>
</symbol>
</svg>




